<svg width="25" height="25" viewBox="0 0 25 25" fill="none" xmlns="http://www.w3.org/2000/svg">
<path d="M20.3947 21.0938H4.60569C4.41342 21.0937 4.22791 21.0229 4.08465 20.8946C3.94139 20.7664 3.85045 20.5899 3.82921 20.3988L2.44033 7.89877C2.42819 7.78957 2.43923 7.67904 2.47272 7.57439C2.5062 7.46974 2.56139 7.37334 2.63467 7.29147C2.70794 7.2096 2.79767 7.1441 2.89797 7.09926C2.99828 7.05443 3.10692 7.03125 3.2168 7.03125H21.7836C21.8934 7.03125 22.0021 7.05443 22.1024 7.09926C22.2027 7.1441 22.2924 7.2096 22.3657 7.29147C22.439 7.37334 22.4942 7.46974 22.5276 7.57439C22.5611 7.67904 22.5722 7.78957 22.56 7.89877L21.1712 20.3988C21.1499 20.5899 21.059 20.7664 20.9157 20.8946C20.7725 21.0229 20.5869 21.0937 20.3947 21.0938Z" stroke="#A95A1D" stroke-width="1.5" stroke-linecap="round" stroke-linejoin="round"/>
<path d="M8.59375 10.1562V7.03125C8.59375 5.99525 9.0053 5.00168 9.73786 4.26911C10.4704 3.53655 11.464 3.125 12.5 3.125C13.536 3.125 14.5296 3.53655 15.2621 4.26911C15.9947 5.00168 16.4062 5.99525 16.4062 7.03125V10.1562" stroke="#A95A1D" stroke-width="1.5" stroke-linecap="round" stroke-linejoin="round"/>
</svg>
