<svg width="14" height="12" viewBox="0 0 14 12" fill="none" xmlns="http://www.w3.org/2000/svg">
<path d="M12.7055 0.452352C12.6129 0.375561 12.5066 0.318739 12.3929 0.285164C12.2792 0.25159 12.1602 0.241928 12.0429 0.256737C11.9256 0.271545 11.8123 0.310531 11.7094 0.371444C11.6066 0.432356 11.5163 0.51399 11.4438 0.611635L5.17971 9.04424L2.11033 5.12776C2.03833 5.02742 1.94782 4.94324 1.84415 4.88023C1.74049 4.81722 1.62579 4.77665 1.50687 4.76094C1.38794 4.74523 1.26721 4.7547 1.15185 4.78878C1.03649 4.82287 0.928843 4.88087 0.835301 4.95935C0.741759 5.03783 0.664229 5.13518 0.607313 5.24564C0.550397 5.35609 0.515255 5.4774 0.503973 5.60234C0.492691 5.72729 0.505499 5.85334 0.541636 5.973C0.577774 6.09267 0.636505 6.20352 0.714342 6.29896L4.44592 11.1524C4.53014 11.2611 4.63656 11.3487 4.75735 11.4087C4.87814 11.4686 5.01023 11.4995 5.14391 11.4991C5.28582 11.5057 5.42719 11.4769 5.55635 11.415C5.6855 11.353 5.79872 11.2598 5.88665 11.143L12.8934 1.77346C12.9649 1.67417 13.0167 1.56098 13.046 1.4405C13.0752 1.32002 13.0813 1.19465 13.0638 1.07169C13.0463 0.948735 13.0056 0.830652 12.9441 0.724322C12.8826 0.617991 12.8015 0.52554 12.7055 0.452352Z" fill="#BD8051"/>
</svg>
