<svg width="25" height="25" viewBox="0 0 25 25" fill="none" xmlns="http://www.w3.org/2000/svg">
<path d="M14.8432 20.3119V15.6243C14.8432 15.4171 14.7609 15.2184 14.6144 15.0719C14.4678 14.9254 14.2691 14.8431 14.0619 14.8431H10.9369C10.7297 14.8431 10.531 14.9254 10.3845 15.0719C10.238 15.2184 10.1557 15.4171 10.1557 15.6243V20.3119C10.1557 20.5191 10.0734 20.7178 9.92689 20.8643C9.7804 21.0108 9.58171 21.0931 9.37453 21.0932L4.6876 21.0938C4.58499 21.0938 4.48339 21.0736 4.3886 21.0343C4.2938 20.9951 4.20766 20.9375 4.13511 20.865C4.06255 20.7924 4.005 20.7063 3.96573 20.6115C3.92646 20.5167 3.90625 20.4151 3.90625 20.3125V11.2832C3.90625 11.1743 3.92899 11.0667 3.97302 10.9672C4.01705 10.8676 4.08139 10.7784 4.16192 10.7051L11.9739 3.60214C12.1177 3.47139 12.3051 3.39893 12.4994 3.39893C12.6938 3.39892 12.8812 3.47136 13.025 3.60211L20.838 10.7051C20.9186 10.7784 20.9829 10.8676 21.027 10.9672C21.071 11.0667 21.0938 11.1744 21.0938 11.2832V20.3125C21.0938 20.4151 21.0735 20.5167 21.0343 20.6115C20.995 20.7063 20.9374 20.7924 20.8649 20.865C20.7923 20.9375 20.7062 20.9951 20.6114 21.0343C20.5166 21.0736 20.415 21.0938 20.3124 21.0938L15.6243 21.0932C15.4171 21.0931 15.2185 21.0108 15.072 20.8643C14.9255 20.7178 14.8432 20.5191 14.8432 20.3119V20.3119Z" stroke="#A95A1D" stroke-width="1.5" stroke-linecap="round" stroke-linejoin="round"/>
</svg>
