<svg width="200" height="199" viewBox="0 0 200 199" fill="none" xmlns="http://www.w3.org/2000/svg">
<path d="M160.98 146.321C160.389 146.561 156.12 147.736 156.696 148.925C155.775 147.042 154.203 144.382 154.778 142.206C155.272 140.34 157.274 138.383 159.047 137.665C156.966 138.3 154.863 140.262 152.736 138.452C151.456 137.305 151.051 132.229 148.662 132.78C149.359 132.636 150.411 131.655 151.096 131.308C155.31 129.219 158.867 132.983 161.268 136.001C160.284 134.734 159.482 133.15 158.592 131.776C157.702 130.401 156.499 128.841 157.406 127.155C158.22 125.576 160.094 124.851 160.801 123.176C160.094 124.851 165.006 125.984 165.853 126.647C169.035 129.21 164.348 131.838 164.934 134.863C164.961 133.637 166.436 131.305 167.286 130.335C168.325 129.151 169.72 128.863 170.9 130.016C172.393 131.355 173.423 135.067 175.919 134.611C173.92 134.935 174.048 137.07 172.689 137.967C171.324 138.764 169.365 138.065 168.021 137.534C170.294 138.417 173.195 139.671 171.456 142.632C170.63 144.008 170.752 146.04 170.14 147.607C170.317 147.189 165.499 145.948 165.066 145.464C163.874 144.107 163.432 141.788 162.631 140.204C162.622 141.734 162.942 145.388 160.98 146.321Z" fill="#BD8051"/>
<path d="M67.1197 32.3887C66.9461 32.839 66.1124 36.0839 65.205 35.6634C66.6414 36.3356 68.674 37.4911 70.3134 37.0276C71.7187 36.6302 73.1731 35.0906 73.6939 33.7396C73.2402 35.3223 71.7826 36.9382 73.1796 38.5242C74.064 39.4778 77.9097 39.7195 77.5231 41.534C77.623 41.0043 78.3519 40.1963 78.6057 39.6732C80.1322 36.4581 77.2382 33.8158 74.9239 32.0377C75.8951 32.7662 77.1039 33.3522 78.1553 34.0078C79.2068 34.6634 80.4024 35.5541 81.6668 34.8455C82.851 34.2098 83.3751 32.7827 84.6329 32.2265C83.3751 32.7827 82.4546 29.0808 81.942 28.4484C79.9619 26.0743 78.0342 29.6537 75.7379 29.2497C76.6649 29.2133 78.4108 28.0677 79.1331 27.4121C80.0159 26.6108 80.2157 25.5512 79.328 24.6737C78.2962 23.5612 75.4742 22.8294 75.7871 20.9354C75.5676 22.4519 73.9511 22.3824 73.2894 23.4221C72.7047 24.4651 73.2583 25.9386 73.6775 26.9485C72.9798 25.2399 71.9939 23.0612 69.7762 24.4155C68.7461 25.0578 67.2065 24.9916 66.0289 25.475C66.3434 25.3359 67.3441 28.965 67.7158 29.2861C68.7575 30.1702 70.5182 30.4748 71.7269 31.0609C70.5689 31.0874 67.801 30.892 67.1197 32.3887Z" fill="#BD8051"/>
<path d="M165.707 60.6369C165.438 60.2617 163.279 57.8917 164.092 57.3865C162.801 58.1829 160.809 59.2026 160.32 60.7575C159.9 62.0903 160.369 64.062 161.176 65.1877C160.148 63.9941 159.62 61.9798 157.618 62.2652C156.391 62.4723 154.179 65.4222 152.93 64.1606C153.302 64.5186 153.566 65.5257 153.851 66.0034C155.622 68.912 159.255 67.9834 161.892 67.065C160.8 67.4597 159.696 68.1192 158.62 68.6164C157.544 69.1136 156.204 69.6027 156.107 70.9861C155.994 72.2672 156.861 73.4355 156.646 74.7338C156.861 73.4355 160.306 74.6419 161.081 74.5637C164.019 74.2254 162.167 70.8046 163.696 69.1795C163.238 69.9402 163.238 71.9383 163.384 72.8603C163.562 73.9871 164.305 74.7031 165.472 74.4534C166.904 74.2117 168.971 72.338 170.322 73.5823C169.224 72.6108 170.128 71.354 169.643 70.279C169.115 69.2638 167.646 68.9334 166.618 68.7388C168.351 69.0773 170.612 69.4319 170.692 66.9469C170.719 65.7856 171.58 64.5886 171.811 63.3927C171.757 63.7173 168.329 62.6133 167.877 62.7422C166.623 63.1116 165.455 64.3604 164.352 65.0198C164.938 64.0795 166.547 61.9675 165.707 60.6369Z" fill="#BD8051"/>
<path d="M131.886 27.7084C132.173 27.9072 133.994 29.5099 134.366 28.8885C133.78 29.876 133.034 31.3957 131.864 31.7861C130.861 32.1207 129.363 31.7916 128.501 31.1951C129.418 31.9577 130.948 32.331 130.758 33.8494C130.617 34.7805 128.414 36.4918 129.385 37.4204C129.109 37.144 128.344 36.9573 127.979 36.7476C125.755 35.445 126.411 32.6845 127.072 30.6775C126.787 31.5092 126.303 32.3523 125.94 33.1731C125.578 33.9938 125.225 35.014 124.18 35.105C123.212 35.2068 122.317 34.5662 121.337 34.7456C122.317 34.5662 121.36 31.9754 121.409 31.3881C121.627 29.1604 124.239 30.5176 125.449 29.3404C124.879 29.6962 123.368 29.7217 122.668 29.6235C121.813 29.5035 121.262 28.9507 121.436 28.0639C121.6 26.9776 122.991 25.3901 122.033 24.3839C122.782 25.2022 123.721 24.502 124.541 24.8548C125.315 25.2409 125.584 26.3483 125.745 27.1236C125.466 25.8167 125.169 24.111 127.048 24.0182C127.926 23.9831 128.821 23.3162 129.723 23.1259C129.478 23.1707 130.357 25.7505 130.265 26.0942C130.002 27.0477 129.072 27.9473 128.588 28.7905C129.291 28.3346 130.869 27.0901 131.886 27.7084Z" fill="#BD8051"/>
<path d="M186.735 103.242C186.022 102.461 185.393 101.416 184.336 101.166C184.159 101.081 183.73 101.789 183.024 101.535C180.905 100.774 178.93 97.5504 178.638 95.4464C179.724 97.8032 179.321 100.531 178.652 103C177.818 106.261 175.924 109.097 173.853 111.76C171.434 114.779 168.208 116.491 165.69 118.633C163.348 120.773 161.1 123.438 161.324 126.949C161.225 126.16 158.946 126.454 159.098 124.695C159.17 123.552 160.476 122.744 160.373 121.604C159.155 122.411 157.909 121.198 159.035 120.041C159.726 119.241 161.39 118.867 162.354 118.679C160.512 118.879 160.313 117.125 160.997 115.798C161.684 114.647 163.436 114.272 164.57 113.73C164.657 113.641 167.792 111.666 166.911 111.503C166.648 111.506 166.561 111.595 166.299 111.687C164.979 111.529 163.477 110.846 165.478 109.414C166.948 107.725 170.204 108.208 172.632 105.892C175.753 102.951 177.26 97.4852 175.013 93.6509C175.14 96.5477 174.036 99.3733 171.688 101.074C169.166 102.865 166.274 103.343 164.263 103.985C164.784 103.539 165.213 102.83 165.382 102.301C165.897 101.416 166.327 100.795 166.759 100.262C167.283 99.9915 167.716 99.5465 167.884 99.0172L167.971 98.9282C167.797 99.1062 167.712 99.283 167.45 99.3744C167.099 99.3792 166.399 99.5643 165.789 99.9238C164.123 100.122 161.923 99.8004 159.805 99.0386C157.773 98.1877 156.437 96.8004 155.628 95.406C157.874 99.1525 162.638 94.2573 165 93.5227C166.312 93.1537 167.458 93.4895 168.584 92.3325C168.151 92.7775 164.9 92.6457 164.456 92.3004C162.683 91.0947 165.13 90.1833 166.268 89.9044C169.155 89.0749 172.982 86.3004 173.1 82.0829C173.631 75.8396 171.185 70.3392 168.429 67.8293C171.613 69.5429 175.517 72.4765 178.394 77.3562C180.819 81.3637 182.827 86.9579 185.49 89.1177C185.95 90.6047 188.929 90.1252 190.514 90.4551C192.282 91.3096 192.569 93.0623 191.703 93.9524C191.529 94.0426 191.353 94.045 191.178 94.0473L191.09 94.0485C192.854 94.6395 193.02 93.9346 194.818 96.9844C196.931 97.395 198.413 96.5845 199.281 95.7823C198.594 96.9334 197.825 98.5248 196.703 100.033C195.24 102.249 193.038 101.751 191.804 101.417C191.894 101.591 192.072 101.765 192.338 101.937C193.951 104.286 189.388 104.611 188.153 104.189C187.625 104.108 187.18 103.675 186.735 103.242Z" fill="#BD8051"/>
<path d="M99.3826 12.3489C99.9826 12.8784 100.782 13.3407 100.984 14.1374C101.051 14.2701 100.52 14.6042 100.721 15.135C101.325 16.7277 103.789 18.1809 105.385 18.3747C103.588 17.5836 101.529 17.923 99.6698 18.4611C97.2133 19.1342 95.0919 20.6034 93.1038 22.2051C90.8508 24.0736 89.5968 26.5365 88.0086 28.4691C86.42 30.2687 84.4324 32.0033 81.7737 31.8797C82.372 31.9441 82.1787 33.6724 83.5074 33.5348C84.371 33.4654 84.9656 32.4666 85.8298 32.53C85.235 33.4623 86.1686 34.3893 87.0295 33.5225C87.6257 32.9888 87.8871 31.7254 88.0175 30.994C87.8894 32.3899 89.219 32.5181 90.2139 31.9831C91.076 31.4485 91.3372 30.1186 91.7329 29.2534C91.7991 29.1867 93.2527 26.7895 93.388 27.4535C93.3887 27.6529 93.3224 27.7195 93.2567 27.9191C93.3931 28.9154 93.9287 30.0431 94.9866 28.5111C96.2453 27.3771 95.8379 24.9199 97.5593 23.0534C99.7439 20.6536 103.86 19.4432 106.79 21.0941C104.597 21.0353 102.473 21.9066 101.217 23.7051C99.8942 25.6367 99.5697 27.8306 99.1098 29.3605C99.4407 28.9606 99.9712 28.6265 100.369 28.4923C101.033 28.0913 101.497 27.7574 101.894 27.4238C102.092 27.0244 102.423 26.691 102.822 26.5567L102.888 26.49C102.755 26.6234 102.623 26.6903 102.557 26.8899C102.558 27.1557 102.427 27.6877 102.163 28.1537C102.034 29.4167 102.306 31.077 102.909 32.6696C103.579 34.1955 104.646 35.1885 105.711 35.7828C102.848 34.1316 106.49 30.4643 107.016 28.6684C107.278 27.6707 107.009 26.8078 107.87 25.941C107.539 26.2744 107.68 28.7325 107.947 29.0638C108.882 30.3895 109.54 28.5266 109.737 27.6621C110.327 25.4673 112.377 22.5364 115.566 22.3924C120.283 21.9107 124.476 23.6901 126.41 25.7433C125.073 23.3558 122.803 20.44 119.074 18.3268C116.011 16.5434 111.753 15.0964 110.085 13.1088C108.954 12.7806 109.278 10.5202 109.008 9.32507C108.339 7.99846 107.009 7.80378 106.347 8.47057C106.281 8.6037 106.281 8.7366 106.282 8.86949L106.282 8.93592C105.812 7.60861 106.343 7.47387 104.013 6.15306C103.675 4.5595 104.269 3.4278 104.865 2.76124C104.003 3.29584 102.809 3.89805 101.682 4.76581C100.025 5.90122 100.429 7.561 100.698 8.49033C100.565 8.42435 100.432 8.29192 100.298 8.09304C98.4996 6.90327 98.3123 10.3592 98.6479 11.2883C98.7157 11.6868 99.0492 12.0178 99.3826 12.3489Z" fill="#BD8051"/>
<path d="M156.496 188.612C156.416 188.612 156.417 188.771 156.417 188.771C156.576 188.771 156.656 188.771 156.815 188.77C156.099 189.17 155.702 189.968 154.986 190.368C154.35 190.768 153.079 192.523 151.721 191.092C151.557 189.181 153.629 189.256 154.425 188.935C154.744 188.855 154.983 188.854 155.301 188.854C155.461 188.774 155.54 188.773 155.7 188.693L155.779 188.693C155.779 188.693 155.859 188.693 155.859 188.613C150.76 188.864 146.691 186.403 144.137 184.657C144.137 184.736 144.058 184.816 144.058 184.816C144.059 185.453 141.668 185.22 142.541 183.465C142.778 182.748 143.973 182.586 144.293 183.222C144.613 183.7 144.375 184.178 144.136 184.338C144.137 184.418 144.137 184.497 144.137 184.497L144.376 184.656C153.472 190.212 163.188 188.198 169.783 180.137C171.928 177.503 173.674 174.392 174.463 171.044C175.252 167.537 175.483 164.27 175.397 161.083C175.397 161.243 175.397 161.402 175.318 161.562C175.165 164.589 173.5 168.099 170.236 169.381C162.912 171.787 157.474 163.036 160.092 158.091C160.965 156.496 161.758 154.98 163.749 154.577C165.421 154.255 167.417 155.684 167.102 157.517C166.301 155.607 163.51 154.498 162.399 156.652C161.606 158.167 162.249 160.635 163.288 161.908C164.806 163.816 167.515 163.969 169.344 162.372C172.604 159.576 172.355 155.195 172.029 151.77C172.029 151.85 171.95 152.009 171.87 152.089C171.793 153.284 171.163 156.233 168.691 155.602C168.452 155.523 168.292 155.364 168.212 155.284C167.573 154.569 168.686 153.371 169.164 153.211C171.709 151.372 171.944 149.619 171.619 146.593C171.294 143.885 170.411 141.098 168.415 139.27C169.613 140.383 171.208 141.256 172.485 142.289C174.321 143.718 176.157 145.148 178.152 146.498C180.626 148.086 182.304 150.392 183.185 152.541C183.907 154.372 186.461 156.358 186.855 154.604C186.855 154.684 186.855 154.684 186.856 154.764L186.935 154.763C187.338 156.675 183.993 157.16 181.601 156.608C178.97 155.817 176.415 153.592 174.656 150.728C174.096 149.614 173.535 148.5 173.135 147.466C174.66 152.401 176.027 157.975 175.802 164.19C175.88 163.393 175.958 162.596 176.036 161.879C176.112 160.445 176.741 156.619 175.384 155.586C177.539 157.255 179.138 159.641 181.452 161.149C183.287 162.34 186.635 163.05 188.305 161.373C189.577 160.095 189.173 157.865 188.058 157.709C190.765 157.145 192.455 164.311 187.12 166.076C182.979 166.962 179.946 164.499 178.667 162.51C179.387 164.102 179.949 166.013 180.113 168.084C180.682 172.942 180.297 178.838 183.484 178.672C183.325 178.752 183.165 178.752 183.086 178.752C183.165 178.752 183.245 178.752 183.325 178.752C183.245 178.752 183.165 178.752 183.086 178.832C182.927 178.832 182.688 178.833 182.449 178.833C179.739 178.68 175.508 175.025 175.496 169.608C175.414 168.652 175.412 167.776 175.489 166.819C175.411 167.377 175.332 167.935 175.254 168.493C175.256 169.449 175.02 170.565 174.704 171.761C174.704 171.681 174.704 171.681 174.783 171.681L174.704 171.92C174.546 172.478 174.468 173.036 174.31 173.673C174.231 174.072 174.152 174.47 174.073 174.869C173.761 177.499 174.487 181.719 175.926 183.788C177.445 186.015 180.713 186.326 182.063 184.65C182.778 183.692 182.856 182.656 182.615 181.781C182.454 181.383 182.214 180.985 181.895 180.508C181.575 180.11 181.176 179.872 180.857 179.634C180.219 179.476 179.661 179.397 178.944 179.558C176.317 180.202 177.202 184.183 179.273 184.099C180.23 184.256 180.944 183.139 180.863 182.342C180.782 181.625 180.064 181.308 179.506 181.469L179.586 181.469C181.656 180.827 181.347 185.05 178.796 184.259C176.643 183.706 176.395 179.484 179.421 179.079C180.537 178.997 181.573 179.313 182.451 179.869C185.962 182.171 187.411 188.621 183.355 191.976C180.65 193.974 176.823 192.788 174.986 190.641C172.909 188.574 172.106 185.708 172.021 183.239C171.773 179.176 173.279 176.066 174.15 173.594C174.15 173.435 174.229 173.275 174.229 173.116C173.04 176.066 171.453 178.779 169.466 181.094C169.387 181.173 169.387 181.333 169.308 181.413L169.308 181.492C169.387 181.412 169.467 181.333 169.546 181.173L169.467 181.333C169.387 181.412 169.388 181.492 169.308 181.572C169.229 181.731 169.229 181.891 169.15 182.05C169.071 182.369 168.912 182.688 168.833 183.087L168.913 182.927L168.834 183.246L168.834 183.326L168.993 183.007C168.913 183.086 168.834 183.246 168.754 183.326C168.281 185.239 167.968 187.789 168.053 190.418C168.221 194.242 169.745 198.46 171.976 198.376C172.055 198.376 172.135 198.375 172.215 198.375C172.135 198.375 172.135 198.375 172.056 198.455C172.215 198.455 172.374 198.454 172.533 198.374C172.215 198.535 171.976 198.535 171.737 198.536C171.498 198.536 171.339 198.616 171.1 198.537C170.064 198.619 168.789 198.542 167.592 197.589C165.836 196.398 164.636 194.09 164.47 191.462C164.3 186.682 167.48 183.568 169.07 181.811C169.149 181.652 169.228 181.492 169.308 181.333C168.594 182.689 167.64 183.806 166.447 184.685C164.14 186.523 159.287 189.641 156.496 188.612ZM179.257 177.088L179.337 177.167C179.337 177.088 179.337 177.088 179.257 177.088Z" fill="#BD8051"/>
<path d="M13.5398 46.3866C13.5413 46.4872 13.3402 46.4901 13.3402 46.4901C13.3372 46.289 13.3357 46.1884 13.3328 45.9873C12.8433 46.8998 11.8451 47.4175 11.3557 48.33C10.8647 49.142 8.67615 50.7838 10.5114 52.4668C12.9278 52.6324 12.7887 50.019 13.1761 49.0074C13.2707 48.6036 13.2663 48.3019 13.2604 47.8996C13.358 47.697 13.3565 47.5964 13.4541 47.3938L13.4526 47.2932C13.4526 47.2932 13.4511 47.1926 13.5517 47.1912C13.3449 53.6322 16.5378 58.7154 18.7975 61.9011C18.6969 61.9025 18.5978 62.0046 18.5978 62.0046C17.7934 62.0164 18.1395 65.0291 20.3355 63.8902C21.2361 63.5752 21.415 62.0637 20.6046 61.6732C19.9953 61.2798 19.3964 61.5904 19.1997 61.8951C19.0992 61.8966 18.9986 61.8981 18.9986 61.8981L18.793 61.5994C11.585 50.238 13.9181 37.9312 23.9516 29.4342C27.2301 26.6698 31.1193 24.3995 35.328 23.3315C39.7378 22.2606 43.8563 21.8982 47.8801 21.9395C47.679 21.9425 47.4779 21.9454 47.2782 22.049C43.4599 22.3064 39.0664 24.4836 37.5182 28.6307C34.6378 37.9277 45.8001 44.6035 51.9859 41.1928C53.9807 40.0569 55.8765 39.0231 56.3423 36.5014C56.7134 34.3835 54.8663 31.8958 52.5594 32.3322C54.9876 33.3024 56.4473 36.8016 53.7529 38.2496C51.8571 39.2835 48.728 38.5248 47.0998 37.2411C44.6582 35.3658 44.4067 31.9494 46.3838 29.6066C49.8426 25.4313 55.3778 25.6515 59.7078 25.9901C59.6072 25.9916 59.4076 26.0951 59.3085 26.1972C57.8016 26.32 54.0928 27.1794 54.9432 30.2852C55.0482 30.5855 55.2522 30.7837 55.3543 30.8828C56.2712 31.674 57.7588 30.2438 57.9511 29.6374C60.2165 26.385 62.4243 26.0507 66.2515 26.3967C69.6765 26.7486 73.2124 27.803 75.5623 30.2832C74.1322 28.7954 72.9964 26.8003 71.6654 25.2104C69.8213 22.9239 67.9771 20.6375 66.2306 18.1484C64.1735 15.0603 61.2261 12.9912 58.4947 11.925C56.1685 11.0539 53.6071 7.87269 55.812 7.33723C55.7114 7.33872 55.7115 7.33871 55.6109 7.3402L55.6094 7.23965C53.1886 6.77235 52.6475 11.0052 53.3958 14.0119C54.4503 17.316 57.3134 20.4928 60.9662 22.652C62.3844 23.3353 63.8025 24.0185 65.1172 24.5021C58.8544 22.6831 51.79 21.0772 43.9509 21.4944C44.955 21.3791 45.9591 21.2636 46.8627 21.1497C48.6712 21.0225 53.4862 20.1468 54.8187 21.8373C52.6669 19.153 49.6205 17.186 47.6669 14.2976C46.1245 12.0066 45.1572 7.79601 47.2378 5.65291C48.823 4.02006 51.6461 4.48142 51.868 5.88645C52.5215 2.45666 43.4401 0.478027 41.327 7.24889C40.2979 12.4949 43.4716 16.2706 46.0093 17.8427C43.9847 16.9672 41.561 16.2988 38.9435 16.1362C32.799 15.5226 25.365 16.135 25.5068 12.1092C25.4092 12.3119 25.4122 12.513 25.4137 12.6136C25.4122 12.513 25.4107 12.4124 25.4092 12.3119C25.4107 12.4124 25.4122 12.513 25.3131 12.6151C25.3161 12.8162 25.3205 13.1179 25.325 13.4196C25.5765 16.8361 30.2807 22.0982 37.1188 21.9974C38.327 22.0802 39.4331 22.0639 40.6384 21.9456C39.9359 22.0565 39.2335 22.1675 38.531 22.2784C37.3243 22.2962 35.9209 22.6187 34.4185 23.0432C34.519 23.0417 34.519 23.0417 34.5176 22.9411L34.2174 23.0461C33.5164 23.2576 32.814 23.3686 32.0125 23.5816C31.5112 23.6896 31.0098 23.7975 30.5085 23.9055C27.196 24.3567 21.853 23.5301 19.2118 21.7583C16.368 19.889 15.905 15.7715 17.9916 14.0306C19.1849 13.1077 20.4907 12.9879 21.6013 13.2733C22.1071 13.4671 22.6143 13.7613 23.2236 14.1547C23.7323 14.5496 24.0414 15.048 24.349 15.4459C24.562 16.2475 24.6729 16.95 24.4852 17.8581C23.7296 21.1888 18.6853 20.1566 18.7473 17.5402C18.5284 16.3364 19.9229 15.4105 20.93 15.4962C21.8365 15.5835 22.2521 16.4827 22.0614 17.1897L22.0599 17.0891C22.8258 14.4624 17.5021 14.9432 18.5551 18.1467C19.299 20.8517 24.6331 21.0749 25.0796 17.2458C25.1594 15.8363 24.7379 14.5348 24.0177 13.4389C21.0363 9.05671 12.8643 7.36647 8.7164 12.5578C6.2528 16.0143 7.83233 20.8195 10.5815 23.0926C13.2346 25.6689 16.8695 26.6213 19.9883 26.676C25.1213 26.9021 29.015 24.9335 32.116 23.7812C32.3171 23.7783 32.5168 23.6748 32.7179 23.6718C29.0194 25.2352 25.63 27.297 22.7509 29.8542C22.6518 29.9563 22.4507 29.9592 22.3516 30.0613L22.251 30.0627C22.3501 29.9607 22.4492 29.8587 22.6488 29.7551L22.4492 29.8587C22.3501 29.9607 22.2495 29.9622 22.1505 30.0642C21.9508 30.1678 21.7497 30.1707 21.5501 30.2743C21.1493 30.3808 20.7501 30.5879 20.2487 30.6958L20.4484 30.5923L20.0476 30.6988L19.947 30.7003L20.3463 30.4932C20.2473 30.5953 20.0476 30.6988 19.9485 30.8008C17.544 31.4398 14.332 31.8895 11.0121 31.8379C6.18229 31.7078 0.82449 29.8755 0.883559 27.058C0.882077 26.9575 0.880595 26.8569 0.879113 26.7563C0.880595 26.8569 0.880588 26.8569 0.78151 26.959C0.778546 26.7578 0.77559 26.5566 0.873186 26.354C0.677993 26.7593 0.682462 27.061 0.686907 27.3627C0.691353 27.6644 0.593757 27.8671 0.698763 28.1673C0.617467 29.4762 0.741712 31.0838 1.97065 32.5746C3.51164 34.765 6.4501 36.2306 9.77152 36.3828C15.808 36.4951 19.6706 32.4145 21.8533 30.3704C22.0529 30.2669 22.2525 30.1633 22.4521 30.0598C20.756 30.9901 19.3659 32.2177 18.282 33.7426C16.0121 36.6933 12.1807 42.8859 13.5398 46.3866ZM27.5966 17.4099L27.4945 17.3108C27.5951 17.3093 27.5951 17.3093 27.5966 17.4099Z" fill="#BD8051"/>
<path d="M172.786 54.5588C172.767 54.6363 172.923 54.6728 172.923 54.6728C172.959 54.5176 172.977 54.4401 173.014 54.2849C173.237 55.0742 173.922 55.6442 174.146 56.4334C174.387 57.1451 175.802 58.7871 174.096 59.7776C172.198 59.4953 172.75 57.4968 172.622 56.6483C172.617 56.3198 172.672 56.0872 172.745 55.7769C172.704 55.6035 172.722 55.526 172.681 55.3526L172.699 55.275C172.699 55.275 172.717 55.1975 172.64 55.1793C171.706 60.198 168.372 63.5887 166.082 65.6697C166.16 65.688 166.219 65.7837 166.219 65.7837C166.84 65.9295 166.06 68.2018 164.555 66.9476C163.911 66.5508 164.03 65.3509 164.723 65.1865C165.261 64.9856 165.672 65.3277 165.772 65.5968C165.85 65.615 165.927 65.6333 165.927 65.6333L166.137 65.437C173.644 57.8707 173.929 47.9523 167.609 39.6736C165.542 36.9779 162.919 34.5606 159.844 33.0194C156.614 31.4418 153.488 30.4618 150.368 29.8103C150.523 29.8467 150.678 29.8832 150.815 29.9972C153.726 30.845 156.755 33.2758 157.249 36.7476C157.898 44.4302 148.128 47.6995 143.921 44.0098C142.57 42.792 141.279 41.6701 141.347 39.6399C141.42 37.9382 143.271 36.3271 144.982 37.0566C142.939 37.3948 141.215 39.8544 143.054 41.4324C144.345 42.5543 146.895 42.4988 148.373 41.7822C150.58 40.7459 151.355 38.1452 150.224 35.9967C148.257 32.1787 143.936 31.4089 140.529 30.9353C140.606 30.9536 140.743 31.0676 140.802 31.1634C141.947 31.5143 144.671 32.8093 143.486 35.0679C143.353 35.2824 143.162 35.4011 143.066 35.4604C142.222 35.9169 141.314 34.5576 141.268 34.0557C140.068 31.1545 138.416 30.5208 135.396 30.1384C132.687 29.8289 129.772 30.0441 127.532 31.564C128.891 30.6557 130.109 29.305 131.409 28.3009C133.224 26.8451 135.04 25.3892 136.814 23.76C138.93 21.7201 141.562 20.6198 143.856 20.2587C145.804 19.9799 148.326 17.9536 146.711 17.1647C146.789 17.183 146.789 17.183 146.866 17.2012L146.885 17.1237C148.837 17.1733 148.537 20.5403 147.447 22.7396C146.07 25.1169 143.315 27.0886 140.122 28.1388C138.909 28.4266 137.695 28.7143 136.596 28.8652C141.751 28.5216 147.489 28.4789 153.484 30.1333C152.727 29.8735 151.969 29.6136 151.289 29.372C149.912 28.9664 146.335 27.471 145.017 28.5526C147.138 26.8412 149.829 25.8367 151.831 23.9337C153.414 22.4231 154.877 19.3295 153.631 17.3179C152.682 15.7853 150.42 15.6627 150.009 16.7122C150.086 13.9474 157.449 13.959 157.934 19.5568C157.839 23.7906 154.742 26.1729 152.511 26.9583C154.227 26.6247 156.216 26.5193 158.268 26.838C163.127 27.407 168.775 29.1436 169.349 26.0046C169.39 26.1779 169.353 26.3331 169.335 26.4106C169.353 26.3331 169.372 26.2555 169.39 26.178C169.372 26.2555 169.353 26.3331 169.413 26.4289C169.376 26.584 169.322 26.8167 169.267 27.0494C168.492 29.6501 163.958 32.9225 158.685 31.683C157.736 31.5419 156.883 31.3414 155.97 31.0451C156.495 31.2502 157.02 31.4554 157.544 31.6605C158.475 31.8792 159.506 32.3671 160.596 32.9508C160.519 32.9326 160.519 32.9326 160.537 32.855L160.751 32.9872C161.258 33.27 161.782 33.4751 162.366 33.7761C162.736 33.9448 163.106 34.1135 163.475 34.2821C165.961 35.1939 170.236 35.4619 172.58 34.5397C175.098 33.5763 176.156 30.4691 174.837 28.7678C174.071 27.851 173.081 27.5365 172.173 27.5687C171.749 27.6327 171.306 27.7742 170.768 27.9751C170.307 28.1942 169.983 28.5273 169.678 28.7829C169.377 29.367 169.172 29.8917 169.163 30.6262C169.182 33.3316 173.26 33.3898 173.656 31.3549C174.03 30.4606 173.108 29.5073 172.315 29.4026C171.598 29.3161 171.124 29.9413 171.152 30.5207L171.17 30.4432C171.023 28.2807 175.061 29.557 173.702 31.8568C172.667 33.8234 168.502 33.09 168.807 30.0515C168.984 28.9474 169.532 28.0119 170.275 27.2863C173.326 24.4021 179.936 24.4824 182.264 29.2037C183.583 32.2965 181.545 35.7461 179.031 37.038C176.541 38.5807 173.567 38.7002 171.144 38.2127C167.134 37.5158 164.456 35.3312 162.252 33.913C162.097 33.8765 161.96 33.7625 161.805 33.7261C164.401 35.5639 166.674 37.7349 168.467 40.2026C168.526 40.2984 168.681 40.3348 168.741 40.4306L168.818 40.4488C168.759 40.353 168.7 40.2572 168.563 40.1432L168.7 40.2573C168.759 40.3531 168.837 40.3712 168.896 40.467C169.033 40.5811 169.188 40.6175 169.325 40.7315C169.617 40.882 169.89 41.1101 170.26 41.2788L170.123 41.1647L170.415 41.3152L170.493 41.3334L170.219 41.1054C170.278 41.2012 170.415 41.3152 170.474 41.411C172.226 42.3138 174.635 43.2074 177.213 43.7313C180.972 44.4511 185.428 43.9434 185.861 41.7534C185.88 41.6758 185.898 41.5983 185.916 41.5207C185.898 41.5983 185.898 41.5983 185.957 41.6941C185.994 41.539 186.03 41.3838 185.989 41.2105C186.071 41.5572 186.016 41.7899 185.962 42.0225C185.907 42.2552 185.948 42.4286 185.816 42.6431C185.656 43.6696 185.287 44.8924 184.083 45.8371C182.519 47.2701 179.996 47.905 177.401 47.4586C172.711 46.5201 170.415 42.7067 169.074 40.7544C168.937 40.6404 168.8 40.5264 168.663 40.4124C169.818 41.4203 170.685 42.6063 171.264 43.9702C172.519 46.6388 174.432 52.081 172.786 54.5588ZM166.831 29.7509L166.927 29.6916C166.85 29.6733 166.85 29.6733 166.831 29.7509Z" fill="#BD8051"/>
</svg>
