<svg width="200" height="201" viewBox="0 0 200 201" fill="none" xmlns="http://www.w3.org/2000/svg">
<path d="M146.817 161.357C147.056 160.766 148.231 156.497 149.42 157.073C147.537 156.152 144.878 154.58 142.701 155.155C140.835 155.649 138.879 157.651 138.16 159.424C138.795 157.343 140.758 155.24 138.947 153.113C137.8 151.833 132.724 151.427 133.276 149.039C133.132 149.736 132.15 150.788 131.803 151.473C129.714 155.687 133.479 159.244 136.497 161.645C135.23 160.661 133.646 159.859 132.271 158.969C130.896 158.079 129.337 156.875 127.65 157.783C126.071 158.597 125.346 160.471 123.672 161.177C125.346 160.471 126.479 165.383 127.142 166.23C129.706 169.412 132.333 164.725 135.358 165.311C134.133 165.338 131.8 166.813 130.831 167.663C129.646 168.702 129.358 170.097 130.512 171.277C131.85 172.77 135.562 173.8 135.107 176.296C135.431 174.297 137.565 174.425 138.463 173.066C139.259 171.701 138.56 169.742 138.029 168.398C138.913 170.671 140.167 173.572 143.127 171.833C144.503 171.007 146.536 171.129 148.103 170.517C147.684 170.693 146.443 165.876 145.959 165.443C144.603 164.251 142.283 163.809 140.699 163.008C142.23 162.999 145.883 163.319 146.817 161.357Z" fill="#BD8051"/>
<path d="M32.8838 67.4966C33.3341 67.323 36.579 66.4894 36.1585 65.582C36.8307 67.0184 37.9863 69.0509 37.5227 70.6904C37.1254 72.0956 35.5857 73.55 34.2347 74.0709C35.8175 73.6172 37.4333 72.1595 39.0193 73.5566C39.9729 74.441 40.2147 78.2866 42.0292 77.9001C41.4994 78 40.6915 78.7288 40.1683 78.9827C36.9532 80.5091 34.3109 77.6151 32.5328 75.3009C33.2613 76.2721 33.8473 77.4808 34.5029 78.5323C35.1585 79.5838 36.0492 80.7794 35.3407 82.0438C34.7049 83.2279 33.2778 83.752 32.7216 85.0099C33.2778 83.752 29.576 82.8316 28.9435 82.319C26.5694 80.3388 30.1488 78.4111 29.7448 76.1149C29.7084 77.0419 28.5628 78.7878 27.9072 79.5101C27.1059 80.3929 26.0463 80.5927 25.1688 79.705C24.0563 78.6732 23.3245 75.8512 21.4306 76.164C22.9471 75.9445 22.8775 74.328 23.9172 73.6663C24.9602 73.0816 26.4337 73.6352 27.4436 74.0545C25.735 73.3568 23.5563 72.3708 24.9106 70.1532C25.5529 69.123 25.4867 67.5834 25.9701 66.4058C25.8311 66.7203 29.4601 67.721 29.7813 68.0928C30.6653 69.1345 30.9699 70.8951 31.556 72.1038C31.5825 70.9459 31.3871 68.178 32.8838 67.4966Z" fill="#BD8051"/>
<path d="M61.1321 166.084C60.7569 165.815 58.3869 163.656 57.8816 164.469C58.678 163.177 59.6977 161.186 61.2527 160.697C62.5855 160.277 64.5572 160.746 65.6829 161.553C64.4892 160.525 62.475 159.997 62.7603 157.995C62.9674 156.768 65.9173 154.556 64.6558 153.307C65.0137 153.679 66.0209 153.943 66.4985 154.228C69.4072 155.999 68.4785 159.632 67.5602 162.269C67.9549 161.177 68.6144 160.073 69.1115 158.997C69.6087 157.921 70.0978 156.581 71.4813 156.484C72.7623 156.371 73.9306 157.238 75.2289 157.023C73.9306 157.238 75.137 160.683 75.0588 161.458C74.7206 164.396 71.2997 162.544 69.6746 164.072C70.4354 163.615 72.4335 163.615 73.3554 163.761C74.4823 163.939 75.1982 164.681 74.9485 165.849C74.7069 167.281 72.8332 169.348 74.0775 170.699C73.106 169.601 71.8492 170.505 70.7741 170.02C69.7589 169.492 69.4285 168.023 69.2339 166.995C69.5724 168.728 69.927 170.989 67.442 171.069C66.2807 171.096 65.0837 171.957 63.8879 172.188C64.2124 172.134 63.1085 168.706 63.2373 168.254C63.6067 167 64.8555 165.832 65.515 164.729C64.5747 165.315 62.4627 166.924 61.1321 166.084Z" fill="#BD8051"/>
<path d="M28.2035 132.263C28.4023 132.55 30.005 134.371 29.3837 134.743C30.3711 134.157 31.8908 133.411 32.2812 132.241C32.6158 131.238 32.2867 129.74 31.6902 128.878C32.4528 129.795 32.8261 131.325 34.3446 131.135C35.2756 130.994 36.9869 128.791 37.9155 129.762C37.6391 129.486 37.4524 128.721 37.2427 128.356C35.9401 126.132 33.1796 126.788 31.1726 127.449C32.0043 127.164 32.8475 126.68 33.6682 126.317C34.489 125.955 35.5091 125.602 35.6001 124.557C35.702 123.589 35.0613 122.694 35.2407 121.714C35.0613 122.694 32.4706 121.737 31.8832 121.786C29.6555 122.004 31.0127 124.616 29.8355 125.826C30.1913 125.256 30.2168 123.744 30.1186 123.045C29.9986 122.19 29.4458 121.639 28.559 121.813C27.4728 121.977 25.8852 123.368 24.879 122.41C25.6973 123.159 24.9972 124.098 25.3499 124.917C25.736 125.692 26.8435 125.961 27.6187 126.122C26.3119 125.843 24.6061 125.546 24.5133 127.425C24.4782 128.303 23.8114 129.198 23.621 130.1C23.6659 129.855 26.2457 130.734 26.5894 130.642C27.5429 130.379 28.4424 129.449 29.2856 128.965C28.8297 129.668 27.5853 131.246 28.2035 132.263Z" fill="#BD8051"/>
<path d="M103.737 187.112C102.956 186.399 101.911 185.77 101.662 184.713C101.576 184.536 102.285 184.106 102.031 183.4C101.269 181.282 98.0456 179.307 95.9416 179.015C98.2984 180.101 101.027 179.698 103.495 179.029C106.756 178.195 109.592 176.301 112.255 174.229C115.274 171.811 116.987 168.585 119.129 166.067C121.268 163.725 123.934 161.477 127.444 161.701C126.655 161.602 126.949 159.323 125.19 159.475C124.048 159.547 123.239 160.853 122.099 160.75C122.906 159.531 121.693 158.286 120.536 159.412C119.736 160.103 119.362 161.767 119.174 162.73C119.374 160.889 117.62 160.69 116.294 161.374C115.143 162.061 114.768 163.813 114.225 164.947C114.136 165.034 112.162 168.168 111.998 167.288C112.001 167.025 112.09 166.938 112.182 166.676C112.024 165.356 111.341 163.854 109.909 165.855C108.22 167.325 108.703 170.581 106.387 173.009C103.446 176.13 97.9804 177.637 94.1461 175.39C97.0429 175.517 99.8684 174.413 101.569 172.065C103.36 169.543 103.838 166.651 104.48 164.64C104.034 165.161 103.325 165.59 102.796 165.759C101.911 166.274 101.29 166.704 100.757 167.136C100.487 167.659 100.042 168.093 99.5124 168.261L99.4234 168.348C99.6014 168.174 99.7782 168.089 99.8696 167.827C99.8743 167.476 100.059 166.775 100.419 166.166C100.617 164.5 100.296 162.3 99.5337 160.182C98.6829 158.15 97.2956 156.814 95.9012 156.005C99.6476 158.251 94.7525 163.015 94.0179 165.376C93.6489 166.689 93.9847 167.835 92.8277 168.961C93.2727 168.528 93.1409 165.277 92.7956 164.833C91.5899 163.06 90.6785 165.507 90.3996 166.645C89.5701 169.532 86.7956 173.359 82.578 173.477C76.3348 174.008 70.8344 171.562 68.3245 168.806C70.0381 171.99 72.9716 175.894 77.8514 178.77C81.8589 181.196 87.4531 183.204 89.6129 185.867C91.0998 186.327 90.6204 189.306 90.9503 190.891C91.8048 192.659 93.5575 192.946 94.4475 192.08C94.5377 191.906 94.5401 191.73 94.5425 191.555L94.5437 191.467C95.1347 193.231 94.4298 193.397 97.4796 195.195C97.8902 197.308 97.0797 198.79 96.2775 199.658C97.4286 198.971 99.02 198.202 100.528 197.08C102.744 195.617 102.247 193.415 101.912 192.181C102.086 192.271 102.26 192.449 102.432 192.715C104.781 194.328 105.107 189.765 104.684 188.53C104.603 188.002 104.17 187.557 103.737 187.112Z" fill="#BD8051"/>
<path d="M12.8442 99.7596C13.3737 100.36 13.836 101.159 14.6327 101.361C14.7653 101.428 15.0994 100.897 15.6303 101.098C17.2229 101.702 18.6762 104.166 18.8699 105.762C18.0788 103.965 18.4183 101.906 18.9564 100.047C19.6294 97.5902 21.0987 95.4688 22.7004 93.4808C24.5688 91.2278 27.0318 89.9737 28.9643 88.3856C30.764 86.7969 32.4986 84.8093 32.375 82.1507C32.4393 82.749 34.1676 82.5557 34.0301 83.8843C33.9606 84.748 32.9618 85.3426 33.0253 86.2067C33.9576 85.6119 34.8846 86.5455 34.0178 87.4064C33.4841 88.0026 32.2207 88.264 31.4893 88.3944C32.8852 88.2664 33.0134 89.5959 32.4783 90.5909C31.9437 91.4529 30.6139 91.7141 29.7487 92.1098C29.682 92.176 27.2848 93.6297 27.9488 93.7649C28.1481 93.7656 28.2148 93.6994 28.4144 93.6336C29.4106 93.77 30.5384 94.3056 29.0064 95.3636C27.8723 96.6223 25.4152 96.2149 23.5486 97.9362C21.1489 100.121 19.9384 104.237 21.5894 107.167C21.5306 104.973 22.4018 102.85 24.2003 101.594C26.1319 100.271 28.3259 99.9466 29.8558 99.4868C29.4559 99.8177 29.1218 100.348 28.9875 100.746C28.5865 101.41 28.2527 101.874 27.919 102.271C27.5197 102.469 27.1863 102.8 27.052 103.198L26.9853 103.265C27.1186 103.132 27.1856 103 27.3851 102.934C27.6509 102.935 28.183 102.804 28.649 102.54C29.912 102.411 31.5722 102.683 33.1649 103.286C34.6908 103.956 35.6838 105.023 36.2781 106.088C34.6269 103.225 30.9596 106.867 29.1636 107.393C28.166 107.655 27.3031 107.386 26.4363 108.247C26.7697 107.916 29.2278 108.057 29.5591 108.324C30.8847 109.259 29.0219 109.917 28.1574 110.114C25.9625 110.704 23.0317 112.754 22.8876 115.943C22.406 120.66 24.1854 124.853 26.2385 126.787C23.8511 125.45 20.9353 123.18 18.822 119.451C17.0387 116.388 15.5917 112.13 13.6041 110.462C13.2758 109.331 11.0155 109.655 9.82034 109.385C8.49373 108.716 8.29905 107.386 8.96584 106.724C9.09897 106.658 9.23187 106.658 9.36476 106.659L9.43119 106.659C8.10388 106.189 7.96914 106.72 6.64833 104.39C5.05477 104.052 3.92307 104.646 3.25651 105.242C3.79111 104.38 4.39332 103.186 5.26108 102.059C6.39649 100.402 8.05627 100.806 8.9856 101.075C8.91962 100.942 8.78719 100.809 8.58831 100.675C7.39854 98.8766 10.8545 98.6893 11.7836 99.0248C12.182 99.0927 12.5131 99.4261 12.8442 99.7596Z" fill="#BD8051"/>
<path d="M189.107 156.873C189.107 156.793 189.267 156.794 189.267 156.794C189.266 156.953 189.266 157.033 189.266 157.192C189.666 156.476 190.463 156.079 190.863 155.363C191.263 154.727 193.019 153.456 191.588 152.098C189.676 151.934 189.751 154.006 189.43 154.802C189.35 155.121 189.35 155.36 189.349 155.678C189.269 155.838 189.269 155.917 189.189 156.076L189.188 156.156C189.188 156.156 189.188 156.236 189.109 156.236C189.359 151.137 186.899 147.068 185.152 144.514C185.232 144.514 185.311 144.435 185.311 144.435C185.949 144.436 185.715 142.045 183.96 142.918C183.243 143.155 183.081 144.35 183.717 144.67C184.195 144.99 184.673 144.752 184.833 144.513C184.913 144.514 184.993 144.514 184.993 144.514L185.151 144.753C190.707 153.849 188.694 163.565 180.632 170.16C177.998 172.305 174.887 174.051 171.539 174.84C168.032 175.629 164.765 175.86 161.579 175.773C161.738 175.774 161.897 175.774 162.057 175.695C165.085 175.542 168.594 173.877 169.876 170.613C172.283 163.289 163.532 157.851 158.586 160.469C156.991 161.342 155.475 162.135 155.073 164.126C154.75 165.798 156.18 167.794 158.013 167.479C156.102 166.678 154.993 163.887 157.147 162.776C158.662 161.983 161.131 162.626 162.403 163.664C164.312 165.183 164.465 167.892 162.867 169.721C160.071 172.981 155.69 172.732 152.265 172.406C152.345 172.406 152.505 172.327 152.584 172.247C153.78 172.17 156.729 171.54 156.097 169.068C156.018 168.829 155.859 168.669 155.779 168.589C155.064 167.95 153.866 169.063 153.706 169.541C151.868 172.086 150.115 172.321 147.088 171.996C144.38 171.671 141.594 170.788 139.766 168.792C140.878 169.99 141.751 171.585 142.784 172.862C144.214 174.698 145.644 176.534 146.993 178.529C148.581 181.003 150.888 182.681 153.037 183.562C154.867 184.284 156.853 186.838 155.1 187.232C155.179 187.232 155.179 187.232 155.259 187.233L155.259 187.312C157.17 187.715 157.655 184.37 157.103 181.978C156.313 179.347 154.088 176.792 151.224 175.033C150.11 174.473 148.996 173.912 147.961 173.512C152.897 175.037 158.47 176.404 164.685 176.179C163.888 176.257 163.091 176.335 162.374 176.413C160.94 176.489 157.114 177.118 156.082 175.761C157.75 177.916 160.136 179.515 161.645 181.829C162.835 183.664 163.545 187.012 161.868 188.682C160.59 189.954 158.361 189.55 158.204 188.434C157.64 191.142 164.806 192.832 166.571 187.497C167.457 183.356 164.994 180.323 163.005 179.044C164.597 179.764 166.508 180.326 168.579 180.49C173.437 181.059 179.333 180.674 179.167 183.861C179.247 183.702 179.247 183.542 179.247 183.463C179.247 183.542 179.247 183.622 179.247 183.702C179.247 183.622 179.247 183.542 179.327 183.463C179.327 183.304 179.328 183.065 179.329 182.826C179.175 180.116 175.52 175.885 170.103 175.873C169.147 175.791 168.271 175.789 167.315 175.866C167.872 175.788 168.43 175.709 168.988 175.631C169.944 175.633 171.06 175.397 172.256 175.081C172.176 175.081 172.176 175.081 172.176 175.16L172.415 175.081C172.973 174.923 173.531 174.845 174.169 174.687C174.567 174.608 174.966 174.529 175.364 174.45C177.994 174.138 182.215 174.864 184.283 176.303C186.51 177.822 186.821 181.09 185.145 182.44C184.188 183.155 183.152 183.233 182.276 182.992C181.878 182.831 181.48 182.591 181.003 182.272C180.605 181.952 180.367 181.553 180.129 181.234C179.971 180.596 179.893 180.038 180.054 179.321C180.697 176.693 184.678 177.579 184.594 179.65C184.751 180.607 183.634 181.321 182.838 181.24C182.121 181.159 181.804 180.441 181.964 179.883L181.964 179.963C181.322 182.033 185.545 181.724 184.754 179.173C184.202 177.02 179.98 176.771 179.574 179.798C179.492 180.914 179.809 181.95 180.364 182.828C182.667 186.339 189.116 187.788 192.472 183.732C194.47 181.027 193.283 177.2 191.136 175.363C189.07 173.286 186.204 172.483 183.734 172.398C179.672 172.15 176.561 173.656 174.089 174.527C173.93 174.527 173.771 174.606 173.611 174.606C176.562 173.417 179.274 171.83 181.589 169.843C181.669 169.764 181.828 169.764 181.908 169.685L181.988 169.685C181.908 169.764 181.828 169.844 181.668 169.923L181.828 169.844C181.908 169.764 181.987 169.765 182.067 169.685C182.227 169.606 182.386 169.606 182.546 169.527C182.864 169.448 183.183 169.289 183.582 169.21L183.422 169.29L183.741 169.211L183.821 169.211L183.502 169.37C183.582 169.29 183.741 169.211 183.821 169.131C185.734 168.658 188.284 168.345 190.913 168.43C194.737 168.598 198.956 170.122 198.871 172.353C198.871 172.432 198.871 172.512 198.87 172.592C198.871 172.512 198.871 172.512 198.95 172.432C198.95 172.592 198.95 172.751 198.87 172.91C199.03 172.592 199.03 172.353 199.031 172.114C199.031 171.875 199.111 171.716 199.032 171.477C199.114 170.441 199.038 169.166 198.084 167.969C196.893 166.213 194.586 165.013 191.957 164.847C187.177 164.677 184.063 167.857 182.307 169.447C182.147 169.526 181.988 169.605 181.828 169.684C183.184 168.97 184.302 168.017 185.181 166.824C187.018 164.517 190.136 159.664 189.107 156.873ZM177.583 179.634L177.663 179.714C177.583 179.714 177.583 179.714 177.583 179.634Z" fill="#BD8051"/>
<path d="M46.8818 13.9168C46.9824 13.9183 46.9853 13.7171 46.9853 13.7171C46.7842 13.7142 46.6836 13.7127 46.4824 13.7097C47.395 13.2203 47.9126 12.2221 48.8252 11.7326C49.6372 11.2417 51.2789 9.0531 52.962 10.8884C53.1276 13.3047 50.5142 13.1656 49.5025 13.5531C49.0988 13.6477 48.7971 13.6433 48.3948 13.6373C48.1922 13.7349 48.0916 13.7335 47.889 13.831L47.7884 13.8296C47.7884 13.8296 47.6878 13.8281 47.6863 13.9286C54.1273 13.7218 59.2105 16.9147 62.3962 19.1744C62.3977 19.0739 62.4997 18.9748 62.4997 18.9748C62.5116 18.1703 65.5243 18.5165 64.3854 20.7125C64.0704 21.6131 62.5588 21.7919 62.1684 20.9815C61.775 20.3722 62.0856 19.7733 62.3903 19.5767C62.3918 19.4761 62.3933 19.3755 62.3933 19.3755L62.0945 19.17C50.7331 11.9619 38.4264 14.2951 29.9293 24.3286C27.165 27.607 24.8946 31.4963 23.8267 35.7049C22.7558 40.1147 22.3934 44.2332 22.4347 48.2571C22.4377 48.0559 22.4406 47.8548 22.5441 47.6552C22.8016 43.8369 24.9788 39.4434 29.1259 37.8952C38.4229 35.0147 45.0987 46.177 41.688 52.3628C40.5521 54.3577 39.5182 56.2535 36.9966 56.7193C34.8786 57.0904 32.391 55.2433 32.8274 52.9363C33.7975 55.3646 37.2968 56.8243 38.7448 54.1299C39.7787 52.2341 39.02 49.1049 37.7363 47.4767C35.861 45.0351 32.4446 44.7836 30.1018 46.7607C25.9265 50.2195 26.1467 55.7547 26.4853 60.0847C26.4868 59.9842 26.5903 59.7845 26.6924 59.6854C26.8152 58.1785 27.6745 54.4697 30.7804 55.3201C31.0806 55.4251 31.2788 55.6292 31.3779 55.7312C32.1692 56.6481 30.7389 58.1358 30.1325 58.328C26.8802 60.5935 26.5458 62.8013 26.8918 66.6285C27.2437 70.0534 28.2982 73.5893 30.7784 75.9392C29.2905 74.5092 27.2954 73.3734 25.7056 72.0424C23.4191 70.1982 21.1327 68.3541 18.6436 66.6075C15.5555 64.5504 13.4864 61.6031 12.4201 58.8717C11.5491 56.5455 8.36786 53.9841 7.83241 56.189C7.83389 56.0884 7.83389 56.0884 7.83537 55.9879L7.73483 55.9864C7.26753 53.5655 11.5004 53.0244 14.5071 53.7728C17.8112 54.8273 20.988 57.6904 23.1472 61.3431C23.8304 62.7613 24.5137 64.1795 24.9973 65.4942C23.1783 59.2313 21.5723 52.167 21.9896 44.3278C21.8742 45.3319 21.7588 46.3361 21.6449 47.2396C21.5177 49.0482 20.642 53.8632 22.3325 55.1956C19.6482 53.0439 17.6811 49.9975 14.7927 48.0439C12.5018 46.5014 8.29119 45.5341 6.14808 47.6147C4.51524 49.2 4.9766 52.0231 6.38163 52.2449C2.95184 52.8985 0.973205 43.817 7.74407 41.704C12.9901 40.6749 16.7658 43.8485 18.3379 46.3862C17.4624 44.3617 16.794 41.9379 16.6314 39.3204C16.0177 33.1759 16.6302 25.742 12.6044 25.8838C12.807 25.7862 13.0082 25.7892 13.1088 25.7906C13.0082 25.7892 12.9076 25.7877 12.8071 25.7862C12.9076 25.7877 13.0082 25.7892 13.1102 25.6901C13.3114 25.693 13.6131 25.6975 13.9148 25.7019C17.3312 25.9534 22.5934 30.6577 22.4926 37.4957C22.5754 38.7039 22.5591 39.8101 22.4408 41.0153C22.5517 40.3129 22.6626 39.6104 22.7736 38.908C22.7914 37.7013 23.1138 36.2979 23.5383 34.7954C23.5369 34.896 23.5369 34.896 23.4363 34.8945L23.5413 34.5943C23.7528 33.8934 23.8638 33.1909 24.0768 32.3894C24.1847 31.8881 24.2927 31.3868 24.4007 30.8855C24.8519 27.573 24.0253 22.23 22.2535 19.5888C20.3841 16.745 16.2666 16.282 14.5258 18.3685C13.6029 19.5619 13.4831 20.8677 13.7685 21.9783C13.9623 22.4841 14.2565 22.9913 14.6499 23.6006C15.0448 24.1093 15.5432 24.4184 15.941 24.726C16.7426 24.9389 17.4452 25.0499 18.3533 24.8621C21.684 24.1065 20.6518 19.0623 18.0354 19.1243C16.8315 18.9054 15.9057 20.2999 15.9914 21.307C16.0786 22.2135 16.9779 22.6291 17.6848 22.4383L17.5843 22.4368C14.9576 23.2028 15.4384 17.8791 18.6419 18.9321C21.3469 19.676 21.5701 25.0101 17.741 25.4566C16.3315 25.5364 15.03 25.1149 13.9341 24.3947C9.55189 21.4133 7.86165 13.2413 13.053 9.09335C16.5095 6.62975 21.3147 8.20928 23.5878 10.9585C26.1641 13.6115 27.1165 17.2465 27.1711 20.3653C27.3973 25.4983 25.4286 29.3919 24.2764 32.493C24.2735 32.6941 24.17 32.8937 24.167 33.0948C25.7304 29.3964 27.7922 26.007 30.3494 23.1278C30.4515 23.0287 30.4544 22.8276 30.5564 22.7286L30.5579 22.628C30.4559 22.7271 30.3538 22.8261 30.2503 23.0258L30.3539 22.8261C30.4559 22.727 30.4574 22.6265 30.5594 22.5274C30.6629 22.3278 30.6659 22.1267 30.7695 21.927C30.8759 21.5263 31.083 21.127 31.191 20.6257L31.0875 20.8253L31.194 20.4246L31.1955 20.324L30.9884 20.7233C31.0904 20.6242 31.194 20.4246 31.296 20.3255C31.935 17.9209 32.3847 14.709 32.333 11.3891C32.203 6.55924 30.3707 1.20144 27.5532 1.26051C27.4526 1.25903 27.3521 1.25755 27.2515 1.25607C27.3521 1.25755 27.3521 1.25754 27.4541 1.15846C27.253 1.1555 27.0518 1.15254 26.8492 1.25014C27.2544 1.05495 27.5562 1.05941 27.8579 1.06386C28.1596 1.06831 28.3623 0.97071 28.6625 1.07572C29.9714 0.99442 31.579 1.11867 33.0698 2.3476C35.2601 3.88859 36.7258 6.82705 36.878 10.1485C36.9903 16.185 32.9096 20.0475 30.8656 22.2302C30.7621 22.4298 30.6585 22.6295 30.555 22.8291C31.4853 21.1329 32.7129 19.7429 34.2378 18.659C37.1884 16.3891 43.3811 12.5577 46.8818 13.9168ZM17.905 27.9735L17.806 27.8715C17.8045 27.972 17.8045 27.972 17.905 27.9735Z" fill="#BD8051"/>
<path d="M55.0539 173.163C55.1315 173.144 55.1679 173.3 55.1679 173.3C55.0128 173.336 54.9352 173.354 54.7801 173.391C55.5693 173.614 56.1394 174.299 56.9286 174.522C57.6402 174.764 59.2823 176.179 60.2728 174.473C59.9904 172.575 57.992 173.127 57.1435 172.999C56.815 172.994 56.5823 173.049 56.272 173.122C56.0987 173.081 56.0211 173.099 55.8478 173.058L55.7702 173.076C55.7702 173.076 55.6926 173.094 55.6744 173.017C60.6931 172.083 64.0838 168.749 66.1649 166.459C66.1831 166.537 66.2789 166.596 66.2789 166.596C66.4247 167.217 68.6969 166.437 67.4427 164.931C67.046 164.288 65.8461 164.407 65.6816 165.1C65.4808 165.638 65.8228 166.049 66.092 166.149C66.1102 166.227 66.1284 166.304 66.1284 166.304L65.9322 166.514C58.3659 174.021 48.4474 174.306 40.1687 167.986C37.473 165.919 35.0557 163.296 33.5146 160.221C31.9369 156.99 30.957 153.865 30.3054 150.745C30.3419 150.9 30.3783 151.055 30.4924 151.192C31.3401 154.103 33.771 157.132 37.2427 157.626C44.9253 158.275 48.1946 148.505 44.5049 144.298C43.2872 142.947 42.1653 141.656 40.135 141.724C38.4333 141.797 36.8223 143.648 37.5518 145.359C37.89 143.316 40.3495 141.592 41.9275 143.431C43.0495 144.722 42.994 147.272 42.2773 148.75C41.2411 150.957 38.6404 151.732 36.4919 150.6C32.6738 148.633 31.904 144.313 31.4305 140.906C31.4487 140.983 31.5627 141.12 31.6585 141.179C32.0095 142.324 33.3044 145.048 35.5631 143.863C35.7775 143.73 35.8962 143.539 35.9556 143.443C36.412 142.599 35.0527 141.691 34.5509 141.645C31.6496 140.445 31.0159 138.793 30.6335 135.773C30.3241 133.064 30.5393 130.149 32.0592 127.909C31.1509 129.268 29.8001 130.486 28.7961 131.786C27.3402 133.601 25.8844 135.416 24.2551 137.191C22.2152 139.307 21.1149 141.939 20.7539 144.233C20.475 146.181 18.4487 148.703 17.6599 147.088C17.6781 147.166 17.6781 147.166 17.6963 147.243L17.6188 147.262C17.6684 149.214 21.0354 148.914 23.2347 147.824C25.6121 146.447 27.5837 143.692 28.6339 140.499C28.9217 139.286 29.2095 138.072 29.3604 136.973C29.0167 142.128 28.9741 147.866 30.6285 153.861C30.3687 153.103 30.1088 152.346 29.8672 151.666C29.4615 150.289 27.9661 146.712 29.0478 145.394C27.3363 147.515 26.3318 150.206 24.4288 152.208C22.9183 153.791 19.8247 155.254 17.8131 154.008C16.2804 153.059 16.1579 150.797 17.2073 150.386C14.4426 150.463 14.4542 157.826 20.0519 158.311C24.2857 158.216 26.6681 155.119 27.4534 152.888C27.1199 154.604 27.0144 156.592 27.3332 158.645C27.9021 163.504 29.6387 169.152 26.4997 169.726C26.6731 169.767 26.8282 169.73 26.9058 169.712C26.8282 169.73 26.7507 169.749 26.6731 169.767C26.7507 169.749 26.8282 169.73 26.924 169.79C27.0791 169.753 27.3118 169.699 27.5445 169.644C30.1452 168.869 33.4176 164.335 32.1782 159.062C32.037 158.113 31.8365 157.26 31.5402 156.347C31.7454 156.872 31.9505 157.396 32.1557 157.921C32.3744 158.852 32.8623 159.883 33.4459 160.973C33.4277 160.896 33.4277 160.896 33.3502 160.914L33.4824 161.128C33.7651 161.635 33.9703 162.159 34.2712 162.743C34.4399 163.113 34.6086 163.482 34.7773 163.852C35.6891 166.338 35.957 170.613 35.0348 172.957C34.0715 175.475 30.9643 176.533 29.2629 175.214C28.3461 174.448 28.0316 173.458 28.0638 172.55C28.1278 172.126 28.2693 171.683 28.4702 171.145C28.6894 170.684 29.0225 170.36 29.278 170.055C29.8621 169.754 30.3868 169.549 31.1214 169.54C33.8268 169.559 33.8849 173.637 31.85 174.033C30.9557 174.407 30.0025 173.485 29.8978 172.692C29.8113 171.975 30.4365 171.501 31.0159 171.529L30.9383 171.547C28.7758 171.4 30.0521 175.438 32.3519 174.079C34.3185 173.044 33.5852 168.879 30.5466 169.184C29.4425 169.361 28.5071 169.909 27.7815 170.652C24.8973 173.703 24.9775 180.313 29.6988 182.641C32.7917 183.96 36.2413 181.922 37.5331 179.408C39.0759 176.918 39.1953 173.944 38.7078 171.521C38.0109 167.511 35.8264 164.833 34.4081 162.629C34.3717 162.474 34.2577 162.337 34.2212 162.182C36.0591 164.778 38.2301 167.051 40.6977 168.844C40.7935 168.903 40.8299 169.058 40.9257 169.118L40.944 169.195C40.8482 169.136 40.7524 169.077 40.6384 168.94L40.7524 169.077C40.8482 169.136 40.8664 169.213 40.9622 169.273C41.0762 169.41 41.1127 169.565 41.2267 169.702C41.3772 169.994 41.6052 170.267 41.7739 170.637L41.6599 170.5L41.8104 170.792L41.8286 170.87L41.6005 170.596C41.6963 170.655 41.8104 170.792 41.9061 170.851C42.809 172.603 43.7025 175.012 44.2265 177.59C44.9462 181.349 44.4386 185.805 42.2486 186.238C42.171 186.257 42.0934 186.275 42.0159 186.293C42.0934 186.275 42.0934 186.275 42.1892 186.334C42.0341 186.371 41.879 186.407 41.7056 186.366C42.0523 186.448 42.285 186.393 42.5177 186.339C42.7504 186.284 42.9238 186.325 43.1382 186.193C44.1648 186.033 45.3875 185.664 46.3323 184.46C47.7653 182.896 48.4001 180.373 47.9538 177.778C47.0153 173.088 43.2019 170.792 41.2496 169.451C41.1356 169.314 41.0215 169.177 40.9075 169.04C41.9154 170.195 43.1014 171.061 44.4654 171.641C47.1339 172.896 52.5761 174.809 55.0539 173.163ZM30.246 167.208L30.1867 167.304C30.1685 167.227 30.1685 167.227 30.246 167.208Z" fill="#BD8051"/>
</svg>
