<svg width="104" height="105" viewBox="0 0 104 105" fill="none" xmlns="http://www.w3.org/2000/svg">
<path d="M76.1227 84.4371C76.2468 84.1295 76.8551 81.9083 77.4712 82.208C76.496 81.7291 75.1184 80.9108 73.9909 81.2103C73.0246 81.4671 72.0112 82.5086 71.6391 83.4314C71.968 82.3485 72.9844 81.2546 72.0467 80.1478C71.4525 79.4818 68.8234 79.2706 69.1091 78.0276C69.0345 78.3907 68.5263 78.9376 68.3465 79.2944C67.2643 81.487 69.2143 83.3376 70.7774 84.5871C70.1212 84.0749 69.3008 83.6579 68.5888 83.1948C67.8768 82.7318 67.0689 82.1054 66.1952 82.5778C65.3774 83.001 65.0021 83.9761 64.1348 84.3438C65.0021 83.9761 65.589 86.532 65.9324 86.9728C67.26 88.6283 68.621 86.1899 70.1879 86.4945C69.553 86.5087 68.3447 87.2759 67.8428 87.7182C67.2293 88.2588 67.0802 88.985 67.6775 89.5987C68.3707 90.3757 70.2936 90.9118 70.0574 92.2103C70.2253 91.1702 71.3308 91.2369 71.7958 90.5298C72.2081 89.8195 71.8464 88.8 71.5712 88.1008C72.0288 89.2836 72.6782 90.7931 74.2117 89.8879C74.9243 89.4583 75.9772 89.5219 76.7888 89.2033C76.5719 89.2952 75.9293 86.7884 75.6786 86.5633C74.976 85.9432 73.7745 85.7132 72.9541 85.2961C73.7469 85.2915 75.639 85.4581 76.1227 84.4371Z" fill="#BD8051"/>
<path d="M17.1114 35.5994C17.3447 35.5091 19.0254 35.0753 18.8076 34.6032C19.1557 35.3506 19.7542 36.4082 19.5141 37.2612C19.3083 37.9924 18.5109 38.7492 17.8112 39.0202C18.6309 38.7841 19.4678 38.0256 20.2893 38.7526C20.7832 39.2127 20.9084 41.2137 21.8483 41.0126C21.5739 41.0646 21.1554 41.4438 20.8844 41.5759C19.2192 42.3702 17.8506 40.8643 16.9296 39.6602C17.3069 40.1655 17.6105 40.7944 17.9501 41.3416C18.2896 41.8887 18.751 42.5108 18.384 43.1687C18.0547 43.7848 17.3155 44.0575 17.0274 44.712C17.3155 44.0575 15.3981 43.5786 15.0706 43.3119C13.8409 42.2815 15.6948 41.2785 15.4856 40.0837C15.4668 40.5661 14.8734 41.4745 14.5338 41.8503C14.1188 42.3097 13.57 42.4136 13.1155 41.9517C12.5392 41.4149 12.1602 39.9465 11.1792 40.1093C11.9647 39.9951 11.9287 39.154 12.4672 38.8097C13.0074 38.5054 13.7706 38.7935 14.2937 39.0116C13.4087 38.6486 12.2803 38.1356 12.9817 36.9817C13.3144 36.4457 13.2801 35.6446 13.5305 35.0319C13.4585 35.1955 15.3381 35.7162 15.5045 35.9096C15.9624 36.4516 16.1202 37.3677 16.4237 37.9967C16.4374 37.3942 16.3362 35.9539 17.1114 35.5994Z" fill="#BD8051"/>
<path d="M31.743 86.897C31.5487 86.7569 30.3211 85.6337 30.0594 86.0566C30.4719 85.3845 31.0001 84.3484 31.8055 84.0937C32.4958 83.8753 33.517 84.1191 34.1001 84.5393C33.4818 84.0043 32.4386 83.7297 32.5864 82.6879C32.6936 82.0494 34.2215 80.8987 33.5681 80.2488C33.7535 80.4421 34.2752 80.5794 34.5226 80.7279C36.0291 81.6495 35.5481 83.5397 35.0724 84.9119C35.2769 84.3434 35.6185 83.7694 35.876 83.2093C36.1335 82.6493 36.3868 81.952 37.1034 81.9017C37.7669 81.8429 38.372 82.2939 39.0445 82.182C38.372 82.2939 38.9969 84.0863 38.9563 84.4896C38.7812 86.0186 37.0093 85.055 36.1676 85.8502C36.5617 85.6122 37.5966 85.6124 38.0741 85.6881C38.6577 85.7806 39.0286 86.1671 38.8992 86.7748C38.7741 87.5197 37.8036 88.595 38.4481 89.298C37.9449 88.7266 37.2939 89.197 36.7371 88.9448C36.2113 88.6703 36.0401 87.9058 35.9394 87.3709C36.1147 88.2726 36.2983 89.4489 35.0113 89.4907C34.4097 89.5046 33.7898 89.9526 33.1704 90.0729C33.3385 90.045 32.7667 88.261 32.8334 88.0257C33.0248 87.3732 33.6716 86.7656 34.0131 86.1916C33.5261 86.4968 32.4322 87.3339 31.743 86.897Z" fill="#BD8051"/>
<path d="M14.6878 69.2987C14.7908 69.4483 15.6209 70.3957 15.2991 70.5892C15.8105 70.2843 16.5977 69.8962 16.7999 69.2874C16.9732 68.7655 16.8027 67.9862 16.4938 67.5376C16.8887 68.0144 17.0821 68.8109 17.8686 68.7119C18.3508 68.6386 19.2372 67.4922 19.7181 67.9972C19.575 67.8538 19.4783 67.4555 19.3697 67.2656C18.695 66.1087 17.2652 66.4499 16.2257 66.7938C16.6564 66.6457 17.0932 66.3935 17.5183 66.205C17.9434 66.0165 18.4718 65.8329 18.5189 65.2889C18.5717 64.7854 18.2398 64.3197 18.3328 63.81C18.2398 64.3197 16.8979 63.8217 16.5937 63.8473C15.4399 63.9608 16.1428 65.3198 15.5331 65.9493C15.7174 65.6529 15.7306 64.8663 15.6798 64.5024C15.6176 64.0576 15.3313 63.7708 14.872 63.8613C14.3093 63.9468 13.4871 64.6706 12.9659 64.1717C13.3897 64.5615 13.0271 65.0502 13.2098 65.4767C13.4098 65.8799 13.9834 66.0198 14.385 66.1032C13.7081 65.9584 12.8246 65.8037 12.7765 66.7814C12.7583 67.2384 12.4129 67.7038 12.3143 68.173C12.3376 68.0456 13.6738 68.5032 13.8518 68.4555C14.3457 68.3184 14.8116 67.8347 15.2483 67.5824C15.0122 67.9487 14.3676 68.7693 14.6878 69.2987Z" fill="#BD8051"/>
<path d="M53.8103 97.8389C53.4058 97.4678 52.8644 97.1406 52.7353 96.5905C52.691 96.4985 53.0579 96.275 52.9264 95.9076C52.5318 94.8056 50.8624 93.7776 49.7726 93.6257C50.9933 94.1907 52.4064 93.9814 53.6849 93.6331C55.374 93.1991 56.843 92.2137 58.2223 91.1358C59.7859 89.8775 60.6729 88.1988 61.7823 86.8886C62.8906 85.6699 64.2711 84.5005 66.0892 84.6166C65.6805 84.5654 65.8329 83.3793 64.922 83.4584C64.3301 83.496 63.9115 84.1758 63.3208 84.1221C63.7388 83.488 63.1106 82.8397 62.5113 83.4256C62.097 83.7856 61.9034 84.6512 61.8057 85.1525C61.9096 84.1943 61.0011 84.0906 60.3139 84.4468C59.7177 84.8043 59.5235 85.7156 59.2426 86.3058C59.1965 86.3509 58.1737 87.9821 58.0889 87.524C58.0907 87.3869 58.1368 87.3418 58.1842 87.2054C58.1024 86.5188 57.749 85.7372 57.0071 86.7781C56.1324 87.5431 56.3826 89.2372 55.1828 90.5004C53.6597 92.1248 50.8286 92.9089 48.8426 91.7396C50.343 91.8056 51.8065 91.2315 52.6873 90.0096C53.6148 88.697 53.8625 87.1924 54.195 86.1459C53.9639 86.417 53.597 86.6405 53.3229 86.7281C52.8643 86.9961 52.5429 87.2202 52.2669 87.4449C52.1267 87.7172 51.8962 87.9426 51.6221 88.0302L51.576 88.0753C51.6682 87.9852 51.7598 87.9407 51.8071 87.8043C51.8096 87.6215 51.9055 87.2572 52.0917 86.9399C52.1943 86.0731 52.0278 84.9284 51.6332 83.8263C51.1925 82.7693 50.4739 82.0742 49.7517 81.6531C51.6922 82.8218 49.1567 85.3007 48.7763 86.5293C48.5851 87.2122 48.7591 87.8086 48.1598 88.3945C48.3903 88.1691 48.322 86.4775 48.1431 86.2465C47.5187 85.3241 47.0466 86.5972 46.9022 87.1893C46.4725 88.6915 45.0355 90.6826 42.851 90.7443C39.6173 91.0203 36.7684 89.7478 35.4684 88.3136C36.3559 89.9707 37.8754 92.002 40.4028 93.4985C42.4785 94.7605 45.376 95.8052 46.4947 97.1912C47.2648 97.4302 47.0165 98.9805 47.1874 99.8053C47.6299 100.725 48.5378 100.875 48.9988 100.424C49.0455 100.333 49.0467 100.242 49.048 100.15L49.0486 100.105C49.3547 101.023 48.9896 101.109 50.5692 102.045C50.7819 103.144 50.3621 103.915 49.9466 104.367C50.5428 104.009 51.3671 103.609 52.1483 103.026C53.2958 102.264 53.0383 101.119 52.865 100.476C52.9553 100.523 53.0451 100.616 53.1342 100.754C54.3512 101.593 54.5196 99.2194 54.3008 98.5767C54.259 98.3019 54.0346 98.0704 53.8103 97.8389Z" fill="#BD8051"/>
<path d="M6.73203 52.3869C7.00627 52.699 7.24574 53.1148 7.65838 53.22C7.72709 53.2548 7.90013 52.9788 8.1751 53.0835C9 53.3976 9.7527 54.6797 9.85306 55.5099C9.44332 54.5748 9.61913 53.5035 9.89783 52.5363C10.2464 51.2581 11.0075 50.1543 11.8371 49.1198C12.8048 47.9476 14.0805 47.295 15.0814 46.4687C16.0136 45.6421 16.912 44.6079 16.848 43.2245C16.8813 43.5358 17.7765 43.4352 17.7053 44.1266C17.6693 44.576 17.1519 44.8853 17.1848 45.335C17.6677 45.0255 18.1478 45.5113 17.6989 45.9592C17.4225 46.2694 16.7681 46.4054 16.3892 46.4733C17.1122 46.4067 17.1787 47.0985 16.9015 47.6162C16.6246 48.0647 15.9358 48.2006 15.4877 48.4065C15.4532 48.441 14.2115 49.1973 14.5554 49.2677C14.6587 49.268 14.6932 49.2336 14.7966 49.1994C15.3126 49.2703 15.8967 49.549 15.1032 50.0995C14.5158 50.7544 13.2432 50.5425 12.2764 51.4381C11.0334 52.5748 10.4065 54.7165 11.2616 56.241C11.2312 55.0998 11.6824 53.9948 12.6139 53.3411C13.6144 52.6531 14.7507 52.4842 15.5432 52.2449C15.3361 52.4171 15.163 52.6931 15.0935 52.9003C14.8858 53.2454 14.7128 53.4868 14.54 53.6937C14.3332 53.7967 14.1605 53.969 14.0909 54.1762L14.0564 54.2107C14.1255 54.1417 14.1601 54.0727 14.2635 54.0385C14.4012 54.039 14.6767 53.9708 14.9181 53.8333C15.5723 53.7665 16.4322 53.9078 17.2571 54.2219C18.0475 54.5705 18.5618 55.1255 18.8696 55.6799C18.0144 54.19 16.1149 56.0851 15.1847 56.3585C14.6679 56.495 14.221 56.3551 13.772 56.8031C13.9447 56.6308 15.2179 56.7044 15.3895 56.8433C16.0761 57.3298 15.1113 57.6722 14.6635 57.7744C13.5267 58.0816 12.0086 59.1482 11.934 60.8077C11.6846 63.2619 12.6062 65.4436 13.6696 66.4501C12.433 65.7542 10.9228 64.5732 9.82825 62.633C8.90456 61.0391 8.15511 58.8235 7.12564 57.9554C6.9556 57.3669 5.78485 57.5357 5.16584 57.3952C4.47872 57.047 4.37789 56.3551 4.72325 56.0105C4.79221 55.9762 4.86104 55.9764 4.92987 55.9767L4.96428 55.9768C4.2768 55.7323 4.20701 56.0087 3.5229 54.7961C2.69752 54.6203 2.11136 54.9294 1.76611 55.2394C2.04301 54.7909 2.35492 54.1696 2.80438 53.5833C3.39246 52.7209 4.25214 52.9314 4.73349 53.0714C4.69931 53.0021 4.63072 52.9327 4.52771 52.8632C3.91147 51.9274 5.70147 51.83 6.1827 52.0045C6.38907 52.0398 6.56055 52.2134 6.73203 52.3869Z" fill="#BD8051"/>
<path d="M98.028 82.1053C98.0281 82.0638 98.1107 82.064 98.1107 82.064C98.1105 82.1469 98.1104 82.1884 98.1102 82.2713C98.3174 81.8987 98.7305 81.6923 98.9376 81.3197C99.1447 80.9885 100.054 80.3272 99.3129 79.6208C98.3227 79.5356 98.3616 80.6136 98.1956 81.0278C98.1539 81.1935 98.1536 81.3179 98.1533 81.4837C98.1118 81.5665 98.1117 81.608 98.0703 81.6908L98.0702 81.7323C98.0702 81.7323 98.0701 81.7737 98.0288 81.7736C98.1586 79.1207 96.8842 77.0034 95.9795 75.6747C96.0207 75.6748 96.0621 75.6335 96.0621 75.6335C96.3922 75.6342 96.2712 74.3902 95.3624 74.8442C94.9907 74.9677 94.9068 75.5894 95.2365 75.7559C95.4837 75.9223 95.7316 75.7985 95.8144 75.6743C95.8557 75.6744 95.8969 75.6745 95.8969 75.6745L95.9792 75.7991C98.8569 80.5318 97.8138 85.5872 93.6384 89.0187C92.2741 90.1349 90.6627 91.0433 88.9287 91.4539C87.1122 91.8644 85.4201 91.9849 83.7696 91.9396C83.8521 91.9398 83.9347 91.94 84.0173 91.8987C85.5855 91.8194 87.4031 90.9529 88.0672 89.2547C89.3137 85.4435 84.7811 82.614 82.2197 83.9763C81.3933 84.4304 80.6084 84.8432 80.3997 85.8792C80.2327 86.7494 80.9731 87.7875 81.9225 87.6239C80.9331 87.207 80.3587 85.7547 81.4742 85.1768C82.2591 84.7641 83.5376 85.0987 84.1966 85.6391C85.1851 86.429 85.2644 87.8388 84.437 88.7904C82.9889 90.4869 80.7197 90.3573 78.9457 90.1874C78.987 90.1875 79.0696 90.1463 79.1109 90.1049C79.73 90.0649 81.2575 89.7367 80.9303 88.4507C80.8893 88.3263 80.807 88.2432 80.7658 88.2016C80.3952 87.8691 79.7749 88.4481 79.6918 88.6967C78.7397 90.0211 77.8317 90.1434 76.264 89.974C74.8614 89.805 73.4182 89.3457 72.4715 88.3071C73.0478 88.9303 73.4998 89.7604 74.0347 90.425C74.7753 91.3802 75.5159 92.3354 76.215 93.3734C77.0374 94.6605 78.232 95.5338 79.3451 95.9924C80.2934 96.3677 81.3219 97.6966 80.4137 97.9019C80.4549 97.9019 80.4549 97.9019 80.4962 97.902L80.4961 97.9435C81.486 98.153 81.7375 96.4124 81.4515 95.168C81.042 93.799 79.8896 92.4697 78.4061 91.5543C77.8291 91.2628 77.2521 90.9713 76.7161 90.7627C79.2727 91.5563 82.1596 92.2676 85.3784 92.1506C84.9657 92.1911 84.5529 92.2316 84.1815 92.2723C83.4386 92.312 81.4572 92.6391 80.9224 91.9331C81.7864 93.0545 83.0224 93.8864 83.8037 95.0905C84.4205 96.0454 84.7879 97.7875 83.9194 98.6561C83.2577 99.3179 82.1027 99.108 82.0215 98.5274C81.7295 99.9363 85.4413 100.815 86.3554 98.0398C86.8142 95.885 85.5386 94.3068 84.5085 93.6411C85.3329 94.0161 86.3226 94.3085 87.3953 94.3939C89.9117 94.6898 92.9657 94.4895 92.8794 96.1476C92.9208 96.0648 92.921 95.9819 92.9211 95.9404C92.921 95.9819 92.9209 96.0233 92.9208 96.0648C92.9209 96.0233 92.921 95.9819 92.9624 95.9405C92.9626 95.8576 92.9629 95.7332 92.9631 95.6089C92.8838 94.1991 90.9907 91.9976 88.1847 91.9912C87.6897 91.9486 87.2358 91.9476 86.7405 91.9879C87.0294 91.9471 87.3184 91.9063 87.6073 91.8655C88.1025 91.8666 88.6805 91.7436 89.2998 91.5791C89.2585 91.579 89.2585 91.579 89.2584 91.6205L89.3823 91.5793C89.6714 91.4971 89.9603 91.4563 90.2906 91.3741C90.497 91.3331 90.7034 91.2921 90.9098 91.2512C92.2719 91.0884 94.4581 91.4665 95.5292 92.2152C96.6828 93.0055 96.844 94.7057 95.9759 95.4085C95.4799 95.7804 94.9433 95.8207 94.4897 95.6952C94.2836 95.6119 94.0776 95.487 93.8304 95.3206C93.6244 95.1543 93.5011 94.9468 93.3777 94.7807C93.2959 94.4488 93.2553 94.1585 93.3387 93.7856C93.6719 92.4183 95.734 92.879 95.6903 93.9568C95.7717 94.4545 95.1932 94.8263 94.7806 94.7839C94.4094 94.7416 94.2451 94.3681 94.3283 94.0781L94.3282 94.1195C93.9957 95.1966 96.183 95.0358 95.7734 93.7082C95.4871 92.5882 93.3004 92.4589 93.0905 94.0338C93.0479 94.6141 93.2118 95.1534 93.4996 95.6101C94.6921 97.4369 98.0328 98.1908 99.7706 96.0804C100.805 94.6732 100.191 92.6819 99.079 91.7258C98.0086 90.6455 96.5241 90.2275 95.245 90.1831C93.1408 90.054 91.5297 90.838 90.2495 91.2911C90.167 91.2909 90.0844 91.3322 90.0019 91.332C91.53 90.7136 92.9349 89.8877 94.1339 88.854C94.1752 88.8126 94.2578 88.8128 94.2991 88.7714L94.3404 88.7715C94.299 88.8129 94.2577 88.8543 94.1751 88.8955L94.2577 88.8542C94.299 88.8129 94.3403 88.813 94.3817 88.7716C94.4643 88.7304 94.5468 88.7305 94.6294 88.6893C94.7946 88.6482 94.9598 88.5657 95.1662 88.5247L95.0836 88.5659L95.2488 88.5249L95.29 88.5249L95.1248 88.6075C95.1661 88.5661 95.2488 88.5249 95.2901 88.4835C96.281 88.237 97.6018 88.0742 98.9635 88.1188C100.944 88.2062 103.129 88.9989 103.085 90.1596C103.085 90.201 103.085 90.2425 103.085 90.2839C103.085 90.2425 103.085 90.2425 103.126 90.2011C103.126 90.284 103.126 90.367 103.085 90.4498C103.167 90.2841 103.168 90.1598 103.168 90.0354C103.168 89.911 103.21 89.8282 103.169 89.7037C103.211 89.1649 103.172 88.5015 102.678 87.8785C102.061 86.965 100.866 86.3404 99.5041 86.2544C97.0285 86.1658 95.4154 87.8205 94.5057 88.6475C94.4231 88.6888 94.3405 88.7301 94.2579 88.7714C94.9602 88.3998 95.539 87.9037 95.9943 87.2828C96.9461 86.0827 98.5612 83.5575 98.028 82.1053ZM92.0591 93.9485L92.1003 93.9901C92.059 93.99 92.059 93.99 92.0591 93.9485Z" fill="#BD8051"/>
<path d="M24.3659 7.72212C24.418 7.72289 24.4195 7.61824 24.4195 7.61824C24.3153 7.61669 24.2632 7.61592 24.159 7.61437C24.6317 7.35974 24.8998 6.8404 25.3725 6.58577C25.793 6.33036 26.6434 5.19171 27.5152 6.14664C27.6011 7.40389 26.2474 7.33142 25.7234 7.53296C25.5142 7.58218 25.358 7.57986 25.1496 7.57676C25.0446 7.62754 24.9925 7.62677 24.8876 7.67754L24.8355 7.67676C24.8355 7.67676 24.7834 7.67599 24.7826 7.72831C28.119 7.62092 30.7521 9.28236 32.4024 10.4582C32.4031 10.4059 32.456 10.3543 32.456 10.3543C32.4621 9.93577 34.0227 10.116 33.4328 11.2585C33.2697 11.7271 32.4867 11.8201 32.2844 11.3984C32.0806 11.0814 32.2415 10.7698 32.3993 10.6675C32.4001 10.6152 32.4009 10.5628 32.4009 10.5628L32.2461 10.4559C26.3608 6.70514 19.9861 7.91865 15.585 13.1387C14.1533 14.8444 12.9774 16.8679 12.4243 19.0576C11.8698 21.352 11.6822 23.4948 11.7037 25.5884C11.7052 25.4838 11.7068 25.3791 11.7604 25.2753C11.8936 23.2886 13.0212 21.0028 15.1693 20.1974C19.985 18.699 23.4434 24.507 21.6769 27.7253C21.0885 28.7632 20.5531 29.7495 19.2469 29.9918C18.1499 30.1848 16.8612 29.2237 17.0872 28.0234C17.5898 29.2868 19.4024 30.0464 20.1524 28.6446C20.6879 27.6583 20.2948 26.0301 19.6297 25.1829C18.6583 23.9125 16.8886 23.7815 15.6751 24.8101C13.5125 26.6096 13.6268 29.4896 13.8023 31.7424C13.803 31.6901 13.8567 31.5863 13.9095 31.5347C13.9731 30.7507 14.4181 28.821 16.0269 29.2636C16.1825 29.3182 16.2851 29.4244 16.3365 29.4775C16.7464 29.9546 16.0056 30.7286 15.6915 30.8286C14.0069 32.0072 13.8337 33.1559 14.0131 35.1472C14.1955 36.9292 14.7418 38.7689 16.0266 39.9917C15.2559 39.2475 14.2224 38.6565 13.3988 37.964C12.2144 37.0044 11.03 36.0448 9.74058 35.136C8.14091 34.0655 7.06905 32.532 6.51663 31.1108C6.06535 29.9005 4.41743 28.5677 4.14015 29.7148C4.14091 29.6625 4.14091 29.6625 4.14167 29.6102L4.08959 29.6094C3.84745 28.3499 6.04 28.0685 7.5975 28.4579C9.30899 29.0067 10.9546 30.4965 12.0732 32.3971C12.4272 33.135 12.7812 33.8729 13.0317 34.5569C12.0893 31.2983 11.2572 27.6227 11.473 23.544C11.4133 24.0664 11.3535 24.5889 11.2946 25.059C11.2287 26 10.7753 28.5052 11.651 29.1985C10.2605 28.0789 9.24148 26.4938 7.74524 25.4772C6.55852 24.6746 4.37742 24.1712 3.26738 25.2536C2.42164 26.0784 2.66072 27.5472 3.38852 27.6627C1.61194 28.0026 0.586716 23.2775 4.09388 22.1783C6.81122 21.6431 8.76713 23.2945 9.58155 24.6149C9.12798 23.5615 8.78165 22.3004 8.69733 20.9385C8.37927 17.7415 8.69627 13.8736 6.61095 13.9473C6.7159 13.8965 6.82009 13.8981 6.87218 13.8989C6.82009 13.8981 6.768 13.8973 6.71591 13.8965C6.768 13.8973 6.82009 13.8981 6.87295 13.8465C6.97714 13.8481 7.13342 13.8504 7.2897 13.8527C9.0594 13.9837 11.7853 16.4315 11.7333 19.9893C11.7763 20.6179 11.7679 21.1935 11.7066 21.8205C11.764 21.4551 11.8215 21.0896 11.8789 20.7241C11.8881 20.0963 12.0551 19.3661 12.2749 18.5844C12.2742 18.6367 12.2742 18.6367 12.2221 18.6359L12.2764 18.4798C12.386 18.1151 12.4434 17.7496 12.5537 17.3326C12.6096 17.0717 12.6656 16.8109 12.7215 16.5501C12.9551 14.8266 12.5267 12.0466 11.6089 10.6724C10.6404 9.19267 8.5076 8.95163 7.60595 10.0372C7.12793 10.6581 7.06592 11.3375 7.2138 11.9153C7.31417 12.1785 7.46662 12.4424 7.67042 12.7594C7.87498 13.0241 8.13315 13.185 8.33924 13.345C8.75447 13.4558 9.11838 13.5136 9.58877 13.4159C11.314 13.0229 10.7792 10.3984 9.42392 10.4305C8.80031 10.3166 8.32076 11.0421 8.36522 11.5661C8.41043 12.0378 8.87624 12.254 9.24243 12.1548L9.19035 12.154C7.82977 12.5525 8.07864 9.78256 9.73804 10.3306C11.1393 10.7177 11.2551 13.493 9.27163 13.7252C8.54153 13.7667 7.86733 13.5473 7.29963 13.1726C5.02961 11.6212 4.1538 7.36927 6.84273 5.2113C8.63306 3.92962 11.1222 4.75161 12.2997 6.18208C13.6343 7.56256 14.1278 9.45384 14.1562 11.0766C14.2735 13.7472 13.2539 15.773 12.6572 17.3864C12.6556 17.4911 12.602 17.595 12.6005 17.6996C13.4102 15.7754 14.4781 14.0119 15.8026 12.514C15.8554 12.4625 15.857 12.3578 15.9098 12.3063L15.9106 12.254C15.8577 12.3055 15.8049 12.357 15.7512 12.4609L15.8049 12.357C15.8577 12.3055 15.8585 12.2532 15.9113 12.2016C15.965 12.0978 15.9665 11.9931 16.0201 11.8892C16.0753 11.6807 16.1825 11.473 16.2384 11.2122L16.1848 11.316L16.24 11.1075L16.2407 11.0552L16.1335 11.263C16.1863 11.2114 16.24 11.1075 16.2928 11.056C16.6237 9.80494 16.8566 8.13378 16.8297 6.40642C16.7622 3.89348 15.8128 1.10577 14.3534 1.1364C14.3013 1.13563 14.2492 1.13485 14.1971 1.13408C14.2492 1.13485 14.2492 1.13485 14.3021 1.0833C14.1979 1.08175 14.0937 1.08021 13.9887 1.13098C14.1987 1.02944 14.3549 1.03177 14.5112 1.0341C14.6675 1.03642 14.7725 0.985649 14.928 1.04029C15.606 0.998041 16.4387 1.06274 17.211 1.70221C18.3456 2.50406 19.1049 4.03298 19.1839 5.76112C19.2422 8.9019 17.1286 10.9114 16.0699 12.047C16.0163 12.1509 15.9627 12.2547 15.909 12.3586C16.3909 11.4761 17.0267 10.7529 17.8166 10.189C19.3449 9.00809 22.5525 7.01484 24.3659 7.72212ZM9.35669 15.0348L9.30537 14.9817C9.30461 15.034 9.3046 15.034 9.35669 15.0348Z" fill="#BD8051"/>
<path d="M28.5912 90.5675C28.6314 90.558 28.6502 90.6386 28.6502 90.6386C28.5698 90.6577 28.5296 90.6672 28.4492 90.6862C28.8581 90.8022 29.1533 91.1579 29.5622 91.2739C29.931 91.3993 30.7814 92.1342 31.2956 91.2466C31.1501 90.2597 30.1141 90.5475 29.6743 90.4813C29.5041 90.4791 29.3834 90.5076 29.2226 90.5457C29.1328 90.5244 29.0926 90.5339 29.0027 90.5126L28.9625 90.5222C28.9625 90.5222 28.9223 90.5317 28.9129 90.4914C31.5146 90.0032 33.2736 88.2676 34.3533 87.0759C34.3627 87.1162 34.4123 87.147 34.4123 87.147C34.4876 87.4696 35.6657 87.0631 35.0164 86.2806C34.811 85.9462 34.189 86.0084 34.1035 86.369C33.9991 86.6491 34.1762 86.8625 34.3157 86.9146C34.3251 86.9549 34.3345 86.9952 34.3345 86.9952L34.2327 87.1044C30.3074 91.0123 25.1665 91.1654 20.8785 87.8824C19.4822 86.8086 18.2306 85.4452 17.4332 83.8467C16.617 82.1675 16.1106 80.5426 15.7743 78.9201C15.7932 79.0007 15.812 79.0814 15.871 79.1525C16.309 80.6659 17.5676 82.2404 19.3668 82.4954C23.3485 82.8295 25.0476 77.7464 23.1371 75.5602C22.5066 74.8584 21.9257 74.1873 20.8734 74.2236C19.9913 74.2622 19.1555 75.226 19.5327 76.1155C19.709 75.0525 20.9846 74.1548 21.8017 75.1103C22.3826 75.7814 22.3526 77.1076 21.9804 77.8766C21.4423 79.0253 20.094 79.4295 18.9809 78.8419C17.0029 77.8207 16.6059 75.5742 16.3621 73.8021C16.3715 73.8424 16.4305 73.9135 16.4802 73.9444C16.6615 74.5397 17.3314 75.9557 18.5027 75.338C18.6139 75.2691 18.6755 75.1694 18.7063 75.1196C18.9433 74.6805 18.2392 74.2089 17.9791 74.1853C16.4759 73.5624 16.1482 72.7037 15.9514 71.1333C15.7923 69.7241 15.9053 68.2079 16.6941 67.0425C16.2227 67.7498 15.522 68.3838 15.001 69.0603C14.2455 70.0051 13.4901 70.9499 12.6448 71.8734C11.5865 72.975 11.015 74.3444 10.8267 75.5379C10.6813 76.551 9.62983 77.8638 9.22173 77.0242C9.23115 77.0645 9.23114 77.0645 9.24056 77.1048L9.20035 77.1144C9.22516 78.1298 10.9705 77.972 12.1109 77.4042C13.3437 76.6868 14.367 75.2531 14.9128 73.5919C15.0625 72.9607 15.2123 72.3295 15.291 71.7577C15.1105 74.4388 15.0856 77.4235 15.9403 80.5404C15.806 80.1466 15.6717 79.7529 15.5467 79.3995C15.3371 78.6831 14.5638 76.8236 15.125 76.1375C14.2369 77.2414 13.715 78.6415 12.7277 79.6838C11.9441 80.5076 10.3399 81.2703 9.29787 80.6233C8.50393 80.1303 8.44147 78.9536 8.9856 78.7397C7.55256 78.781 7.55512 82.6103 10.4563 82.8598C12.6507 82.8084 13.887 81.1966 14.2951 80.0362C14.1214 80.9284 14.0658 81.9628 14.2301 83.0304C14.5227 85.5569 15.4201 88.4935 13.7929 88.7936C13.8827 88.8149 13.9631 88.7958 14.0033 88.7863C13.9631 88.7958 13.9229 88.8054 13.8827 88.8149C13.9229 88.8054 13.9631 88.7958 14.0127 88.8267C14.0932 88.8076 14.2138 88.7791 14.3344 88.7505C15.6828 88.3462 17.381 85.9868 16.7411 83.2445C16.6684 82.7511 16.5648 82.3075 16.4117 81.8331C16.5178 82.1059 16.6239 82.3786 16.73 82.6514C16.8429 83.1353 17.0953 83.6714 17.3973 84.2382C17.3879 84.1979 17.3879 84.1979 17.3477 84.2074L17.4161 84.3188C17.5624 84.5821 17.6685 84.8549 17.8242 85.1584C17.9115 85.3506 17.9987 85.5427 18.086 85.7348C18.5574 87.0275 18.6943 89.2505 18.2152 90.4703C17.7147 91.7803 16.1037 92.3318 15.2225 91.6468C14.7476 91.2485 14.5851 90.7338 14.6022 90.2616C14.6356 90.041 14.7091 89.8108 14.8135 89.5307C14.9273 89.291 15.1001 89.1225 15.2327 88.9634C15.5356 88.8066 15.8077 88.6997 16.1884 88.6947C17.5906 88.7032 17.6188 90.8242 16.564 91.0314C16.1003 91.2262 15.6066 90.7473 15.5527 90.3345C15.5082 89.9621 15.8325 89.7151 16.1328 89.7291L16.0926 89.7386C14.9718 89.6635 15.6314 91.7627 16.8241 91.0549C17.8439 90.5156 17.4657 88.3497 15.8907 88.5098C15.3183 88.6027 14.8332 88.8878 14.4568 89.2747C12.9604 90.863 12.9989 94.3008 15.4449 95.5091C17.0473 96.1937 18.8363 95.1319 19.507 93.8242C20.3078 92.5282 20.3711 90.9813 20.1196 89.7216C19.7603 87.6364 18.6293 86.2445 17.8952 85.0991C17.8764 85.0184 17.8174 84.9473 17.7985 84.8666C18.7499 86.2159 19.8741 87.3967 21.1523 88.3282C21.2019 88.359 21.2207 88.4397 21.2703 88.4705L21.2797 88.5108C21.2301 88.48 21.1805 88.4492 21.1215 88.3781L21.1805 88.4492C21.2301 88.48 21.2395 88.5203 21.2891 88.5511C21.3482 88.6223 21.367 88.7029 21.426 88.7741C21.5039 88.9259 21.622 89.0681 21.7092 89.2602L21.6502 89.1891L21.728 89.3409L21.7375 89.3812L21.6194 89.239C21.669 89.2698 21.728 89.3409 21.7777 89.3717C22.2448 90.2824 22.7068 91.5348 22.9771 92.8751C23.3484 94.8298 23.0832 97.148 21.9479 97.3742C21.9077 97.3837 21.8675 97.3932 21.8273 97.4027C21.8675 97.3932 21.8675 97.3932 21.9171 97.424C21.8367 97.4431 21.7562 97.4621 21.6664 97.4408C21.8461 97.4834 21.9667 97.4548 22.0873 97.4263C22.208 97.3977 22.2978 97.419 22.409 97.3501C22.9412 97.2667 23.5751 97.0741 24.0654 96.4474C24.8088 95.6331 25.1391 94.3209 24.9089 92.9711C24.4247 90.5324 22.4493 89.3404 21.438 88.6436C21.379 88.5724 21.3199 88.5013 21.2609 88.4302C21.7828 89.0301 22.3971 89.4804 23.1038 89.7812C24.4863 90.4327 27.3062 91.4249 28.5912 90.5675ZM15.7358 87.4826L15.705 87.5324C15.6956 87.4921 15.6956 87.4921 15.7358 87.4826Z" fill="#BD8051"/>
</svg>
