<svg width="200" height="199" viewBox="0 0 200 199" fill="none" xmlns="http://www.w3.org/2000/svg">
<path d="M160.98 146.322C160.389 146.561 156.12 147.736 156.696 148.925C155.775 147.042 154.203 144.383 154.778 142.206C155.272 140.34 157.274 138.384 159.047 137.665C156.966 138.3 154.863 140.263 152.736 138.452C151.456 137.305 151.051 132.229 148.662 132.78C149.359 132.637 150.411 131.655 151.096 131.308C155.31 129.219 158.867 132.984 161.268 136.002C160.284 134.735 159.482 133.151 158.592 131.776C157.702 130.401 156.499 128.841 157.406 127.155C158.22 125.576 160.094 124.851 160.801 123.177C160.094 124.851 165.006 125.984 165.853 126.647C169.035 129.21 164.348 131.838 164.934 134.863C164.961 133.637 166.436 131.305 167.286 130.336C168.325 129.151 169.72 128.863 170.9 130.016C172.393 131.355 173.423 135.067 175.919 134.611C173.92 134.935 174.048 137.07 172.689 137.968C171.324 138.764 169.365 138.065 168.021 137.534C170.294 138.418 173.195 139.671 171.456 142.632C170.63 144.008 170.752 146.041 170.14 147.608C170.317 147.189 165.499 145.948 165.066 145.464C163.874 144.108 163.432 141.788 162.631 140.204C162.622 141.735 162.942 145.388 160.98 146.322Z" fill="#BD8051"/>
<path d="M67.12 32.3887C66.9464 32.839 66.1128 36.0839 65.2054 35.6634C66.6418 36.3356 68.6743 37.4911 70.3138 37.0276C71.719 36.6302 73.1734 35.0906 73.6943 33.7396C73.2406 35.3223 71.7829 36.9382 73.18 38.5242C74.0644 39.4778 77.91 39.7195 77.5235 41.534C77.6234 41.0043 78.3522 40.1963 78.6061 39.6732C80.1325 36.4581 77.2385 33.8158 74.9243 32.0377C75.8955 32.7662 77.1042 33.3522 78.1557 34.0078C79.2072 34.6634 80.4028 35.5541 81.6672 34.8455C82.8514 34.2098 83.3755 32.7827 84.6333 32.2265C83.3755 32.7827 82.455 29.0808 81.9424 28.4484C79.9622 26.0743 78.0345 29.6537 75.7383 29.2497C76.6653 29.2133 78.4112 28.0677 79.1335 27.4121C80.0163 26.6108 80.2161 25.5512 79.3284 24.6737C78.2966 23.5612 75.4746 22.8294 75.7874 20.9354C75.568 22.4519 73.9514 22.3824 73.2897 23.4221C72.705 24.4651 73.2586 25.9386 73.6779 26.9485C72.9802 25.2399 71.9942 23.0612 69.7766 24.4155C68.7464 25.0578 67.2069 24.9916 66.0293 25.475C66.3437 25.3359 67.3444 28.965 67.7162 29.2861C68.7579 30.1702 70.5185 30.4748 71.7272 31.0609C70.5693 31.0874 67.8014 30.892 67.12 32.3887Z" fill="#BD8051"/>
<path d="M165.708 60.637C165.438 60.2617 163.28 57.8917 164.092 57.3865C162.801 58.1829 160.809 59.2026 160.32 60.7575C159.9 62.0904 160.369 64.062 161.176 65.1877C160.148 63.9941 159.62 61.9799 157.618 62.2652C156.391 62.4723 154.179 65.4222 152.931 64.1607C153.302 64.5186 153.566 65.5257 153.851 66.0034C155.622 68.9121 159.255 67.9834 161.892 67.065C160.8 67.4598 159.697 68.1192 158.62 68.6164C157.544 69.1136 156.204 69.6027 156.107 70.9862C155.994 72.2672 156.861 73.4355 156.646 74.7338C156.861 73.4355 160.306 74.6419 161.081 74.5637C164.019 74.2255 162.167 70.8046 163.696 69.1795C163.238 69.9403 163.239 71.9384 163.384 72.8603C163.562 73.9871 164.305 74.7031 165.473 74.4534C166.904 74.2118 168.971 72.3381 170.322 73.5824C169.224 72.6109 170.128 71.354 169.643 70.279C169.116 69.2638 167.646 68.9334 166.618 68.7388C168.351 69.0773 170.612 69.4319 170.692 66.9469C170.719 65.7856 171.58 64.5886 171.811 63.3927C171.758 63.7173 168.329 62.6133 167.877 62.7422C166.623 63.1116 165.455 64.3604 164.352 65.0199C164.938 64.0795 166.547 61.9676 165.708 60.637Z" fill="#BD8051"/>
<path d="M131.886 27.7084C132.174 27.9072 133.994 29.5099 134.366 28.8885C133.78 29.876 133.034 31.3957 131.864 31.7861C130.861 32.1207 129.364 31.7916 128.502 31.1951C129.418 31.9577 130.949 32.331 130.758 33.8494C130.618 34.7805 128.414 36.4918 129.385 37.4204C129.109 37.144 128.344 36.9573 127.979 36.7476C125.755 35.445 126.411 32.6845 127.072 30.6775C126.787 31.5092 126.303 32.3523 125.94 33.1731C125.578 33.9938 125.225 35.014 124.18 35.105C123.212 35.2068 122.317 34.5662 121.338 34.7456C122.317 34.5662 121.36 31.9754 121.409 31.3881C121.627 29.1604 124.239 30.5176 125.449 29.3404C124.879 29.6962 123.368 29.7217 122.668 29.6235C121.813 29.5035 121.262 28.9507 121.436 28.0639C121.6 26.9776 122.991 25.3901 122.033 24.3839C122.782 25.2022 123.721 24.502 124.541 24.8548C125.316 25.2409 125.584 26.3483 125.745 27.1236C125.466 25.8167 125.169 24.111 127.048 24.0182C127.926 23.9831 128.821 23.3162 129.723 23.1259C129.478 23.1707 130.357 25.7505 130.266 26.0942C130.002 27.0477 129.072 27.9473 128.588 28.7905C129.292 28.3346 130.869 27.0901 131.886 27.7084Z" fill="#BD8051"/>
<path d="M186.735 103.242C186.022 102.461 185.393 101.416 184.336 101.166C184.159 101.081 183.73 101.789 183.024 101.535C180.905 100.774 178.93 97.5505 178.638 95.4465C179.724 97.8033 179.321 100.532 178.652 103C177.818 106.261 175.924 109.097 173.853 111.76C171.434 114.779 168.208 116.492 165.69 118.634C163.348 120.773 161.1 123.439 161.324 126.949C161.225 126.16 158.946 126.454 159.098 124.695C159.17 123.552 160.476 122.744 160.373 121.604C159.155 122.411 157.909 121.198 159.035 120.041C159.726 119.241 161.39 118.867 162.354 118.679C160.512 118.879 160.313 117.125 160.997 115.798C161.684 114.647 163.436 114.272 164.57 113.73C164.657 113.641 167.792 111.666 166.911 111.503C166.648 111.506 166.561 111.595 166.299 111.687C164.979 111.529 163.477 110.846 165.478 109.414C166.948 107.725 170.204 108.208 172.632 105.892C175.753 102.951 177.26 97.4852 175.013 93.651C175.14 96.5477 174.036 99.3733 171.688 101.074C169.166 102.865 166.274 103.343 164.263 103.985C164.784 103.539 165.213 102.83 165.382 102.301C165.897 101.416 166.327 100.795 166.759 100.262C167.283 99.9916 167.716 99.5465 167.884 99.0173L167.971 98.9283C167.797 99.1063 167.712 99.2831 167.45 99.3745C167.099 99.3792 166.399 99.5643 165.789 99.9239C164.123 100.122 161.923 99.8005 159.805 99.0386C157.773 98.1877 156.437 96.8005 155.628 95.4061C157.874 99.1525 162.638 94.2574 165 93.5228C166.312 93.1537 167.458 93.4896 168.584 92.3326C168.151 92.7776 164.9 92.6458 164.456 92.3005C162.683 91.0948 165.13 90.1834 166.268 89.9045C169.155 89.075 172.982 86.3005 173.1 82.0829C173.631 75.8396 171.185 70.3393 168.429 67.8294C171.613 69.543 175.517 72.4765 178.394 77.3563C180.819 81.3638 182.827 86.958 185.49 89.1178C185.95 90.6047 188.929 90.1253 190.514 90.4552C192.282 91.3096 192.569 93.0624 191.703 93.9524C191.529 94.0426 191.353 94.045 191.178 94.0474L191.09 94.0486C192.854 94.6396 193.02 93.9346 194.818 96.9845C196.931 97.3951 198.413 96.5846 199.281 95.7824C198.594 96.9335 197.825 98.5248 196.703 100.033C195.24 102.249 193.038 101.751 191.804 101.417C191.894 101.591 192.072 101.765 192.338 101.937C193.951 104.286 189.388 104.611 188.153 104.189C187.625 104.108 187.18 103.675 186.735 103.242Z" fill="#BD8051"/>
<path d="M99.3825 12.349C99.9824 12.8785 100.781 13.3409 100.984 14.1375C101.051 14.2702 100.52 14.6043 100.721 15.1352C101.325 16.7278 103.789 18.181 105.385 18.3748C103.588 17.5837 101.529 17.9232 99.6697 18.4612C97.2132 19.1343 95.0917 20.6036 93.1037 22.2053C90.8507 24.0737 89.5967 26.5367 88.0085 28.4692C86.4199 30.2689 84.4322 32.0034 81.7736 31.8799C82.3719 31.9442 82.1786 33.6725 83.5072 33.535C84.3709 33.4655 84.9655 32.4667 85.8297 32.5301C85.2348 33.4625 86.1684 34.3895 87.0293 33.5227C87.6256 32.989 87.887 31.7256 88.0173 30.9942C87.8893 32.39 89.2189 32.5183 90.2138 31.9832C91.0759 31.4486 91.337 30.1188 91.7327 29.2536C91.799 29.1869 93.2526 26.7897 93.3878 27.4537C93.3885 27.653 93.3223 27.7197 93.2565 27.9193C93.3929 28.9155 93.9286 30.0432 94.9865 28.5112C96.2452 27.3772 95.8378 24.9201 97.5591 23.0535C99.7438 20.6538 103.86 19.4433 106.79 21.0943C104.596 21.0355 102.473 21.9067 101.216 23.7052C99.8941 25.6368 99.5696 27.8307 99.1097 29.3606C99.4406 28.9608 99.971 28.6267 100.369 28.4924C101.032 28.0914 101.496 27.7575 101.894 27.4239C102.092 27.0245 102.423 26.6911 102.821 26.5569L102.888 26.4902C102.755 26.6235 102.622 26.6904 102.557 26.89C102.558 27.1558 102.427 27.6878 102.162 28.1539C102.034 29.4169 102.306 31.0771 102.909 32.6697C103.579 34.1957 104.646 35.1887 105.711 35.783C102.848 34.1318 106.49 30.4644 107.015 28.6685C107.278 27.6709 107.009 26.808 107.87 25.9412C107.539 26.2746 107.68 28.7326 107.947 29.0639C108.882 30.3896 109.54 28.5268 109.737 27.6623C110.327 25.4674 112.377 22.5366 115.566 22.3925C120.283 21.9109 124.476 23.6903 126.41 25.7434C125.073 23.356 122.803 20.4402 119.074 18.3269C116.011 16.5435 111.753 15.0966 110.084 13.109C108.954 12.7807 109.278 10.5203 109.008 9.32523C108.339 7.99861 107.009 7.80393 106.347 8.47072C106.281 8.60385 106.281 8.73675 106.282 8.86964L106.282 8.93607C105.812 7.60876 106.343 7.47402 104.013 6.15322C103.675 4.55965 104.269 3.42796 104.865 2.76139C104.003 3.29599 102.809 3.8982 101.682 4.76596C100.024 5.90137 100.429 7.56116 100.698 8.49048C100.565 8.4245 100.432 8.29207 100.298 8.09319C98.4995 6.90342 98.3122 10.3594 98.6477 11.2885C98.7156 11.6869 99.049 12.018 99.3825 12.349Z" fill="#BD8051"/>
<path d="M156.496 188.612C156.417 188.612 156.417 188.772 156.417 188.772C156.576 188.771 156.656 188.771 156.815 188.771C156.099 189.171 155.703 189.968 154.986 190.368C154.35 190.768 153.079 192.523 151.721 191.093C151.558 189.181 153.629 189.256 154.425 188.935C154.744 188.855 154.983 188.854 155.302 188.854C155.461 188.774 155.54 188.773 155.7 188.693L155.779 188.693C155.779 188.693 155.859 188.693 155.859 188.613C150.76 188.864 146.691 186.404 144.137 184.657C144.137 184.736 144.058 184.816 144.058 184.816C144.059 185.454 141.669 185.22 142.541 183.465C142.778 182.748 143.973 182.586 144.293 183.222C144.613 183.7 144.375 184.178 144.137 184.338C144.137 184.418 144.137 184.497 144.137 184.497L144.376 184.656C153.472 190.212 163.188 188.198 169.783 180.137C171.928 177.503 173.674 174.392 174.463 171.044C175.252 167.537 175.484 164.27 175.397 161.084C175.397 161.243 175.397 161.402 175.318 161.562C175.166 164.59 173.5 168.099 170.237 169.381C162.912 171.788 157.474 163.036 160.092 158.091C160.965 156.496 161.758 154.98 163.749 154.577C165.422 154.255 167.417 155.684 167.102 157.517C166.301 155.607 163.51 154.498 162.399 156.652C161.606 158.167 162.249 160.636 163.288 161.908C164.806 163.816 167.515 163.97 169.344 162.372C172.605 159.576 172.356 155.195 172.029 151.77C172.029 151.85 171.95 152.009 171.87 152.089C171.793 153.284 171.163 156.234 168.691 155.602C168.452 155.523 168.292 155.364 168.213 155.284C167.573 154.569 168.686 153.371 169.164 153.211C171.709 151.373 171.944 149.619 171.619 146.593C171.294 143.885 170.411 141.098 168.415 139.271C169.613 140.383 171.208 141.256 172.486 142.289C174.321 143.719 176.157 145.148 178.152 146.498C180.626 148.086 182.304 150.392 183.186 152.541C183.907 154.372 186.461 156.358 186.855 154.605C186.856 154.684 186.856 154.684 186.856 154.764L186.935 154.764C187.338 156.675 183.993 157.16 181.601 156.608C178.97 155.817 176.415 153.593 174.656 150.729C174.096 149.614 173.535 148.5 173.135 147.466C174.66 152.402 176.027 157.975 175.802 164.19C175.88 163.393 175.958 162.596 176.036 161.879C176.112 160.445 176.741 156.619 175.384 155.587C177.539 157.255 179.138 159.641 181.452 161.15C183.288 162.34 186.636 163.05 188.305 161.373C189.577 160.095 189.173 157.866 188.058 157.709C190.765 157.145 192.455 164.311 187.121 166.076C182.979 166.962 179.946 164.499 178.667 162.51C179.387 164.102 179.949 166.013 180.114 168.084C180.682 172.942 180.297 178.838 183.484 178.672C183.325 178.752 183.166 178.752 183.086 178.752C183.166 178.752 183.245 178.752 183.325 178.752C183.245 178.752 183.166 178.752 183.086 178.832C182.927 178.832 182.688 178.833 182.449 178.833C179.739 178.68 175.508 175.025 175.496 169.608C175.414 168.652 175.412 167.776 175.489 166.82C175.411 167.377 175.333 167.935 175.254 168.493C175.256 169.449 175.02 170.565 174.704 171.761C174.704 171.681 174.704 171.681 174.783 171.681L174.704 171.92C174.546 172.478 174.468 173.036 174.31 173.674C174.231 174.072 174.152 174.471 174.074 174.869C173.761 177.499 174.488 181.72 175.926 183.788C177.445 186.015 180.713 186.326 182.064 184.65C182.778 183.692 182.856 182.657 182.615 181.781C182.454 181.383 182.215 180.985 181.895 180.508C181.575 180.11 181.176 179.872 180.857 179.634C180.219 179.476 179.661 179.397 178.945 179.558C176.317 180.202 177.202 184.183 179.274 184.099C180.23 184.256 180.945 183.139 180.863 182.342C180.782 181.626 180.064 181.309 179.507 181.469L179.586 181.469C181.656 180.827 181.347 185.05 178.796 184.259C176.643 183.706 176.395 179.485 179.421 179.079C180.537 178.997 181.573 179.313 182.451 179.869C185.962 182.171 187.411 188.621 183.355 191.977C180.651 193.974 176.823 192.788 174.986 190.641C172.91 188.575 172.106 185.708 172.021 183.239C171.773 179.176 173.279 176.066 174.15 173.594C174.15 173.435 174.229 173.275 174.229 173.116C173.04 176.067 171.453 178.779 169.466 181.094C169.387 181.174 169.387 181.333 169.308 181.413L169.308 181.492C169.388 181.413 169.467 181.333 169.546 181.173L169.467 181.333C169.387 181.413 169.388 181.492 169.308 181.572C169.229 181.732 169.229 181.891 169.15 182.05C169.071 182.369 168.912 182.688 168.834 183.087L168.913 182.927L168.834 183.246L168.834 183.326L168.993 183.007C168.913 183.087 168.834 183.246 168.754 183.326C168.281 185.239 167.968 187.789 168.053 190.418C168.222 194.242 169.745 198.461 171.976 198.376C172.055 198.376 172.135 198.375 172.215 198.375C172.135 198.375 172.135 198.376 172.056 198.455C172.215 198.455 172.374 198.455 172.534 198.375C172.215 198.535 171.976 198.535 171.737 198.536C171.498 198.536 171.339 198.616 171.1 198.537C170.064 198.619 168.789 198.542 167.592 197.589C165.836 196.398 164.636 194.091 164.47 191.462C164.3 186.682 167.48 183.568 169.07 181.812C169.149 181.652 169.228 181.493 169.308 181.333C168.594 182.689 167.64 183.807 166.447 184.686C164.14 186.523 159.287 189.641 156.496 188.612ZM179.258 177.088L179.337 177.168C179.337 177.088 179.337 177.088 179.258 177.088Z" fill="#BD8051"/>
<path d="M13.5397 46.3867C13.5412 46.4872 13.3401 46.4902 13.3401 46.4902C13.3371 46.289 13.3356 46.1885 13.3327 45.9873C12.8432 46.8999 11.845 47.4175 11.3556 48.3301C10.8646 49.1421 8.67603 50.7838 10.5113 52.4669C12.9277 52.6324 12.7886 50.0191 13.176 49.0074C13.2706 48.6037 13.2662 48.302 13.2602 47.8997C13.3578 47.6971 13.3564 47.5965 13.454 47.3939L13.4525 47.2933C13.4525 47.2933 13.451 47.1927 13.5516 47.1912C13.3447 53.6322 16.5376 58.7154 18.7974 61.9011C18.6968 61.9026 18.5977 62.0046 18.5977 62.0046C17.7932 62.0165 18.1394 65.0292 20.3354 63.8903C21.236 63.5753 21.4149 62.0637 20.6045 61.6733C19.9952 61.2799 19.3963 61.5905 19.1996 61.8952C19.099 61.8967 18.9985 61.8982 18.9985 61.8982L18.7929 61.5994C11.5848 50.238 13.918 37.9313 23.9515 29.4342C27.23 26.6699 31.1192 24.3995 35.3279 23.3316C39.7377 22.2607 43.8561 21.8983 47.88 21.9396C47.6789 21.9425 47.4777 21.9455 47.2781 22.049C43.4598 22.3065 39.0663 24.4837 37.5181 28.6308C34.6377 37.9278 45.8 44.6036 51.9857 41.1929C53.9806 40.057 55.8764 39.0231 56.3422 36.5014C56.7133 34.3835 54.8662 31.8959 52.5593 32.3323C54.9875 33.3024 56.4472 36.8017 53.7528 38.2497C51.857 39.2836 48.7278 38.5249 47.0996 37.2412C44.6581 35.3659 44.4066 31.9494 46.3837 29.6067C49.8425 25.4314 55.3777 25.6516 59.7076 25.9902C59.6071 25.9916 59.4075 26.0952 59.3084 26.1972C57.8015 26.32 54.0926 27.1794 54.943 30.2853C55.0481 30.5855 55.2521 30.7837 55.3542 30.8828C56.2711 31.6741 57.7587 30.2438 57.9509 29.6374C60.2164 26.3851 62.4242 26.0507 66.2514 26.3967C69.6763 26.7486 73.2122 27.803 75.5621 30.2832C74.1321 28.7954 72.9963 26.8003 71.6653 25.2104C69.8211 22.924 67.977 20.6375 66.2305 18.1484C64.1733 15.0604 61.226 12.9913 58.4946 11.925C56.1684 11.054 53.607 7.87275 55.8119 7.33729C55.7113 7.33878 55.7113 7.33878 55.6108 7.34026L55.6093 7.23971C53.1885 6.77241 52.6473 11.0052 53.3957 14.012C54.4502 17.316 57.3133 20.4928 60.966 22.6521C62.3842 23.3353 63.8024 24.0186 65.1171 24.5022C58.8543 22.6832 51.7899 21.0772 43.9507 21.4945C44.9549 21.3791 45.959 21.2637 46.8625 21.1498C48.6711 21.0225 53.4861 20.1469 54.8186 21.8373C52.6668 19.153 49.6204 17.186 47.6668 14.2976C46.1243 12.0067 45.157 7.79607 47.2377 5.65297C48.8229 4.02012 51.646 4.48148 51.8678 5.88651C52.5214 2.45672 43.4399 0.478088 41.3269 7.24895C40.2978 12.4949 43.4715 16.2707 46.0091 17.8428C43.9846 16.9673 41.5608 16.2989 38.9433 16.1362C32.7988 15.5226 25.3649 16.1351 25.5067 12.1093C25.4091 12.3119 25.4121 12.5131 25.4136 12.6136C25.4121 12.5131 25.4106 12.4125 25.4091 12.3119C25.4106 12.4125 25.4121 12.5131 25.313 12.6151C25.316 12.8163 25.3204 13.118 25.3249 13.4197C25.5764 16.8361 30.2806 22.0983 37.1187 21.9975C38.3268 22.0803 39.433 22.064 40.6382 21.9456C39.9358 22.0566 39.2334 22.1675 38.5309 22.2785C37.3242 22.2962 35.9208 22.6187 34.4184 23.0432C34.5189 23.0417 34.5189 23.0418 34.5174 22.9412L34.2173 23.0462C33.5163 23.2577 32.8139 23.3686 32.0124 23.5816C31.511 23.6896 31.0097 23.7976 30.5084 23.9056C27.1959 24.3567 21.8529 23.5301 19.2117 21.7584C16.3679 19.889 15.9049 15.7715 17.9915 14.0307C19.1848 13.1078 20.4906 12.988 21.6012 13.2734C22.107 13.4671 22.6142 13.7614 23.2235 14.1548C23.7322 14.5497 24.0413 15.0481 24.3489 15.4459C24.5619 16.2475 24.6728 16.9501 24.485 17.8582C23.7295 21.1889 18.6852 20.1566 18.7472 17.5403C18.5283 16.3364 19.9228 15.4105 20.9299 15.4963C21.8364 15.5835 22.252 16.4828 22.0612 17.1897L22.0598 17.0892C22.8257 14.4625 17.502 14.9433 18.555 18.1467C19.2989 20.8518 24.633 21.075 25.0795 17.2459C25.1593 15.8364 24.7378 14.5348 24.0176 13.4389C21.0362 9.05677 12.8642 7.36653 8.71628 12.5579C6.25267 16.0143 7.83221 20.8195 10.5814 23.0927C13.2345 25.669 16.8694 26.6214 19.9882 26.676C25.1212 26.9022 29.0148 24.9335 32.1159 23.7813C32.317 23.7783 32.5166 23.6748 32.7178 23.6719C29.0193 25.2353 25.6299 27.2971 22.7507 29.8543C22.6517 29.9564 22.4506 29.9593 22.3515 30.0613L22.2509 30.0628C22.35 29.9608 22.4491 29.8587 22.6487 29.7552L22.449 29.8588C22.35 29.9608 22.2494 29.9622 22.1503 30.0643C21.9507 30.1678 21.7496 30.1708 21.5499 30.2743C21.1492 30.3808 20.7499 30.5879 20.2486 30.6959L20.4482 30.5923L20.0475 30.6989L19.9469 30.7004L20.3462 30.4933C20.2471 30.5953 20.0475 30.6988 19.9484 30.8009C17.5439 31.4399 14.3319 31.8896 11.012 31.8379C6.18217 31.7079 0.824368 29.8756 0.883437 27.0581C0.881955 26.9575 0.880473 26.857 0.878991 26.7564C0.880473 26.857 0.880466 26.857 0.781388 26.959C0.778424 26.7579 0.775467 26.5567 0.873064 26.3541C0.677871 26.7593 0.68234 27.061 0.686785 27.3627C0.691231 27.6645 0.593635 27.8671 0.698641 28.1674C0.617344 29.4763 0.74159 31.0839 1.97053 32.5747C3.51152 34.765 6.44998 36.2306 9.7714 36.3829C15.8079 36.4951 19.6705 32.4145 21.8531 30.3705C22.0528 30.267 22.2524 30.1634 22.452 30.0598C20.7558 30.9902 19.3658 32.2178 18.2819 33.7427C16.012 36.6933 12.1806 42.8859 13.5397 46.3867ZM27.5964 17.4099L27.4944 17.3109C27.595 17.3094 27.595 17.3094 27.5964 17.4099Z" fill="#BD8051"/>
<path d="M172.786 54.5588C172.767 54.6364 172.922 54.6728 172.922 54.6728C172.959 54.5177 172.977 54.4401 173.014 54.285C173.237 55.0742 173.922 55.6443 174.145 56.4335C174.387 57.1451 175.802 58.7872 174.096 59.7776C172.198 59.4953 172.75 57.4969 172.622 56.6483C172.617 56.3199 172.672 56.0872 172.745 55.7769C172.704 55.6036 172.722 55.526 172.681 55.3527L172.699 55.2751C172.699 55.2751 172.717 55.1975 172.64 55.1793C171.706 60.198 168.372 63.5887 166.082 65.6698C166.16 65.688 166.219 65.7838 166.219 65.7838C166.84 65.9296 166.06 68.2018 164.554 66.9476C163.911 66.5509 164.029 65.351 164.723 65.1865C165.261 64.9856 165.672 65.3277 165.772 65.5968C165.85 65.6151 165.927 65.6333 165.927 65.6333L166.137 65.4371C173.644 57.8708 173.929 47.9523 167.609 39.6736C165.542 36.9779 162.918 34.5606 159.843 33.0195C156.613 31.4418 153.488 30.4619 150.368 29.8103C150.523 29.8468 150.678 29.8832 150.815 29.9972C153.726 30.845 156.755 33.2758 157.249 36.7476C157.898 44.4302 148.128 47.6995 143.921 44.0098C142.57 42.7921 141.279 41.6701 141.347 39.6399C141.42 37.9382 143.271 36.3272 144.982 37.0567C142.939 37.3948 141.215 39.8544 143.054 41.4324C144.345 42.5544 146.895 42.4989 148.373 41.7822C150.58 40.7459 151.355 38.1453 150.223 35.9968C148.256 32.1787 143.936 31.4089 140.528 30.9354C140.606 30.9536 140.743 31.0676 140.802 31.1634C141.947 31.5144 144.671 32.8093 143.485 35.0679C143.353 35.2824 143.162 35.4011 143.066 35.4604C142.222 35.9169 141.314 34.5576 141.268 34.0558C140.068 31.1545 138.416 30.5208 135.396 30.1384C132.687 29.8289 129.772 30.0442 127.532 31.564C128.891 30.6558 130.109 29.305 131.409 28.301C133.224 26.8451 135.039 25.3892 136.814 23.76C138.93 21.7201 141.562 20.6198 143.856 20.2588C145.804 19.9799 148.326 17.9536 146.711 17.1648C146.789 17.183 146.789 17.183 146.866 17.2012L146.884 17.1237C148.837 17.1733 148.537 20.5403 147.447 22.7396C146.07 25.1169 143.315 27.0886 140.122 28.1388C138.908 28.4266 137.695 28.7144 136.596 28.8652C141.75 28.5216 147.489 28.479 153.484 30.1334C152.726 29.8735 151.969 29.6137 151.289 29.3721C149.912 28.9664 146.335 27.471 145.017 28.5526C147.138 26.8412 149.829 25.8367 151.831 23.9337C153.414 22.4232 154.877 19.3296 153.631 17.318C152.682 15.7853 150.419 15.6628 150.009 16.7122C150.086 13.9474 157.449 13.9591 157.934 19.5568C157.839 23.7906 154.742 26.173 152.511 26.9583C154.226 26.6248 156.215 26.5193 158.268 26.8381C163.127 27.407 168.775 29.1436 169.349 26.0046C169.39 26.178 169.353 26.3331 169.335 26.4107C169.353 26.3331 169.371 26.2555 169.39 26.178C169.371 26.2555 169.353 26.3331 169.413 26.4289C169.376 26.584 169.321 26.8167 169.267 27.0494C168.492 29.6501 163.958 32.9225 158.684 31.6831C157.736 31.5419 156.883 31.3414 155.97 31.0451C156.495 31.2503 157.019 31.4554 157.544 31.6606C158.475 31.8793 159.506 32.3672 160.596 32.9508C160.519 32.9326 160.519 32.9326 160.537 32.855L160.751 32.9873C161.258 33.27 161.782 33.4751 162.366 33.7761C162.736 33.9448 163.105 34.1135 163.475 34.2822C165.961 35.1939 170.236 35.4619 172.58 34.5397C175.098 33.5763 176.156 30.4691 174.837 28.7678C174.07 27.851 173.08 27.5365 172.173 27.5687C171.748 27.6327 171.306 27.7742 170.768 27.9751C170.307 28.1942 169.983 28.5274 169.678 28.7829C169.377 29.367 169.172 29.8917 169.163 30.6262C169.181 33.3316 173.26 33.3898 173.656 31.3549C174.03 30.4606 173.108 29.5074 172.315 29.4027C171.598 29.3162 171.124 29.9413 171.152 30.5207L171.17 30.4432C171.023 28.2807 175.061 29.557 173.702 31.8568C172.667 33.8234 168.502 33.0901 168.807 30.0515C168.984 28.9474 169.532 28.0119 170.275 27.2863C173.326 24.4021 179.936 24.4824 182.264 29.2037C183.583 32.2965 181.544 35.7462 179.031 37.038C176.541 38.5807 173.567 38.7002 171.144 38.2127C167.134 37.5158 164.456 35.3312 162.252 33.913C162.097 33.8765 161.96 33.7625 161.805 33.7261C164.401 35.5639 166.674 37.7349 168.467 40.2026C168.526 40.2984 168.681 40.3348 168.741 40.4306L168.818 40.4488C168.759 40.3531 168.7 40.2573 168.563 40.1433L168.7 40.2573C168.759 40.3531 168.836 40.3713 168.896 40.4671C169.033 40.5811 169.188 40.6176 169.325 40.7316C169.617 40.882 169.89 41.1101 170.26 41.2788L170.123 41.1648L170.415 41.3153L170.493 41.3335L170.219 41.1054C170.278 41.2012 170.415 41.3152 170.474 41.411C172.226 42.3139 174.635 43.2074 177.213 43.7313C180.972 44.4511 185.428 43.9434 185.861 41.7534C185.879 41.6759 185.898 41.5983 185.916 41.5208C185.898 41.5983 185.898 41.5983 185.957 41.6941C185.993 41.539 186.03 41.3838 185.989 41.2105C186.071 41.5572 186.016 41.7899 185.962 42.0226C185.907 42.2553 185.948 42.4287 185.816 42.6431C185.656 43.6697 185.287 44.8924 184.083 45.8372C182.519 47.2701 179.996 47.905 177.4 47.4586C172.711 46.5201 170.415 42.7067 169.074 40.7545C168.937 40.6405 168.8 40.5264 168.663 40.4124C169.817 41.4203 170.684 42.6063 171.264 43.9702C172.519 46.6388 174.432 52.081 172.786 54.5588ZM166.831 29.7509L166.927 29.6916C166.85 29.6734 166.85 29.6734 166.831 29.7509Z" fill="#BD8051"/>
</svg>
