<svg width="290" height="25" viewBox="0 0 290 25" fill="none" xmlns="http://www.w3.org/2000/svg">
<path d="M103.434 5.60267C103.442 5.57884 103.394 5.56277 103.394 5.56277C103.378 5.61044 103.37 5.63427 103.354 5.68194C103.307 5.42727 103.109 5.22777 103.062 4.9731C103.008 4.74227 102.612 4.18419 103.177 3.92364C103.765 4.06879 103.533 4.68042 103.548 4.95088C103.539 5.05425 103.515 5.12574 103.483 5.22107C103.491 5.27677 103.483 5.30061 103.491 5.35631L103.482 5.38015C103.482 5.38015 103.474 5.40398 103.498 5.41201C103.941 3.8626 105.09 2.89617 105.871 2.31026C105.847 2.30222 105.831 2.27036 105.831 2.27036C105.641 2.20609 105.953 1.5152 106.389 1.95411C106.579 2.09791 106.507 2.47148 106.284 2.50254C106.109 2.54966 105.99 2.42996 105.966 2.34239C105.942 2.33436 105.919 2.32632 105.919 2.32632L105.847 2.38175C103.263 4.53634 102.878 7.64481 104.618 10.4344C105.188 11.343 105.94 12.1806 106.861 12.7564C107.829 13.3482 108.782 13.7491 109.743 14.0466C109.695 14.0306 109.648 14.0145 109.608 13.9746C108.719 13.6216 107.839 12.7676 107.787 11.662C107.811 9.2283 110.979 8.49141 112.191 9.776C112.58 10.1988 112.952 10.5898 112.87 11.2258C112.797 11.7584 112.167 12.2097 111.651 11.9295C112.303 11.884 112.918 11.1623 112.387 10.6118C112.015 10.2208 111.212 10.1624 110.726 10.3437C110.001 10.6037 109.681 11.3979 109.972 12.1068C110.477 13.3651 111.812 13.7355 112.869 13.9856C112.845 13.9776 112.805 13.9377 112.789 13.9058C112.44 13.7615 111.623 13.2736 112.062 12.599C112.11 12.5355 112.174 12.5039 112.206 12.4881C112.485 12.3698 112.73 12.824 112.729 12.983C113.02 13.9305 113.52 14.1787 114.458 14.3887C115.3 14.5665 116.223 14.5855 116.972 14.1745C116.517 14.4195 116.095 14.8078 115.656 15.0847C115.043 15.4882 114.429 15.8917 113.823 16.351C113.097 16.9291 112.237 17.1967 111.505 17.2419C110.885 17.2716 110.032 17.8334 110.516 18.1293C110.492 18.1213 110.492 18.1213 110.469 18.1133L110.461 18.1371C109.849 18.0634 110.043 17.0143 110.451 16.3555C110.954 15.6494 111.879 15.1117 112.913 14.8766C113.303 14.8222 113.693 14.7678 114.043 14.7531C112.413 14.7078 110.608 14.5506 108.774 13.8525C109.004 13.9566 109.234 14.0608 109.44 14.157C109.861 14.3254 110.941 14.9017 111.387 14.601C110.67 15.0757 109.794 15.3114 109.109 15.8499C108.566 16.2776 108.014 17.2062 108.346 17.8754C108.599 18.3853 109.306 18.4911 109.466 18.1735C109.36 19.0401 107.047 18.8175 107.061 17.0439C107.216 15.7163 108.26 15.0597 108.985 14.8792C108.436 14.933 107.808 14.907 107.172 14.7458C105.662 14.4226 103.939 13.7089 103.665 14.6783C103.657 14.6226 103.673 14.5749 103.681 14.5511C103.673 14.5749 103.665 14.5987 103.657 14.6226C103.665 14.5987 103.673 14.5749 103.658 14.543C103.674 14.4954 103.698 14.4239 103.722 14.3524C104.043 13.5581 105.565 12.6645 107.185 13.2108C107.479 13.2834 107.741 13.3718 108.019 13.492C107.86 13.412 107.702 13.3319 107.543 13.2518C107.257 13.1554 106.947 12.9714 106.622 12.7556C106.646 12.7636 106.646 12.7636 106.638 12.7875L106.574 12.7395C106.424 12.6356 106.265 12.5555 106.09 12.4436C105.979 12.3796 105.868 12.3156 105.757 12.2516C105.003 11.8912 103.667 11.6798 102.903 11.9C102.083 12.1278 101.659 13.0729 102.022 13.6467C102.236 13.9576 102.538 14.0859 102.824 14.1028C102.959 14.0953 103.103 14.0639 103.278 14.0168C103.429 13.9617 103.541 13.8666 103.644 13.7954C103.756 13.6208 103.836 13.462 103.861 13.2314C103.935 12.3806 102.656 12.2411 102.47 12.8688C102.326 13.1387 102.588 13.4657 102.834 13.5222C103.057 13.5707 103.224 13.3883 103.233 13.2054L103.225 13.2293C103.206 13.9132 101.976 13.3921 102.471 12.7097C102.855 12.1225 104.142 12.4768 103.956 13.4226C103.867 13.7643 103.667 14.042 103.412 14.2479C102.367 15.0636 100.293 14.8418 99.7015 13.2889C99.379 12.2778 100.122 11.2543 100.95 10.923C101.779 10.5123 102.717 10.5632 103.464 10.7884C104.703 11.1266 105.48 11.8928 106.13 12.404C106.178 12.42 106.218 12.4599 106.265 12.476C105.504 11.8213 104.855 11.0714 104.364 10.2426C104.349 10.2108 104.301 10.1947 104.285 10.1628L104.261 10.1548C104.277 10.1867 104.293 10.2185 104.332 10.2584L104.293 10.2185C104.277 10.1867 104.253 10.1786 104.237 10.1468C104.198 10.1069 104.15 10.0908 104.111 10.0509C104.023 9.99493 103.944 9.91513 103.833 9.85112L103.872 9.89103L103.785 9.83505L103.761 9.82702L103.841 9.90683C103.825 9.87496 103.785 9.83506 103.769 9.80319C103.246 9.46738 102.515 9.11496 101.721 8.87367C100.561 8.5357 99.1452 8.56274 98.9441 9.23809C98.9361 9.26193 98.928 9.28576 98.92 9.30959C98.928 9.28576 98.928 9.28575 98.9122 9.25389C98.8962 9.30155 98.8801 9.34923 98.8879 9.40493C98.8723 9.29353 98.8964 9.22203 98.9205 9.15053C98.9446 9.07903 98.9369 9.02332 98.9848 8.95986C99.0655 8.64199 99.2178 8.26871 99.6243 8.00762C100.159 7.6038 100.97 7.47929 101.773 7.69674C103.218 8.13112 103.826 9.39776 104.19 10.0512C104.23 10.0911 104.269 10.131 104.309 10.1709C103.976 9.8198 103.739 9.42132 103.597 8.97546C103.282 8.09952 102.843 6.33238 103.434 5.60267ZM104.568 13.5758L104.536 13.5916C104.56 13.5996 104.56 13.5996 104.568 13.5758Z" fill="#BD8051"/>
<path d="M122.715 17.5983C123.114 17.4784 123.592 17.4335 123.861 17.1008C123.922 17.0526 123.744 16.7794 123.954 16.5721C124.586 15.9504 126.067 15.799 126.863 16.0543C125.842 16.0376 124.942 15.4295 124.18 14.7709C123.165 13.9186 122.481 12.7627 121.89 11.5731C121.231 10.1999 121.173 8.76276 120.843 7.50375C120.483 6.30748 119.92 5.05522 118.636 4.5356C118.933 4.63527 119.218 3.77609 119.816 4.12999C120.209 4.35062 120.273 4.95213 120.695 5.11003C120.617 4.53988 121.26 4.30458 121.478 4.90159C121.644 5.28355 121.493 5.93773 121.396 6.31187C121.639 5.62407 122.295 5.85251 122.649 6.32181C122.941 6.762 122.775 7.44754 122.774 7.94264C122.791 7.98857 122.957 9.43801 123.165 9.15347C123.209 9.05938 123.192 9.01345 123.204 8.9048C123.485 8.46343 123.984 8.04669 124.151 9.00104C124.499 9.81086 123.773 10.884 124.181 12.1408C124.692 13.7504 126.375 15.2176 128.119 15.074C127.069 14.625 126.255 13.7513 126.052 12.6279C125.846 11.4271 126.17 10.3192 126.285 9.49591C126.355 9.7569 126.533 10.0302 126.692 10.1803C126.918 10.5141 127.065 10.7728 127.18 11.017C127.187 11.2488 127.271 11.4785 127.43 11.6285L127.447 11.6745C127.414 11.5826 127.365 11.5221 127.378 11.4135C127.436 11.288 127.49 11.008 127.466 10.7302C127.68 10.1051 128.169 9.37921 128.801 8.75747C129.449 8.18164 130.17 7.9441 130.803 7.89475C129.09 8.05287 130.015 10.5787 129.872 11.542C129.78 12.0707 129.465 12.4203 129.683 13.0173C129.599 12.7877 130.201 11.6563 130.399 11.5577C131.129 11.1342 131.035 12.158 130.94 12.6094C130.742 13.7755 131.074 15.6069 132.551 16.3684C134.676 17.6217 137.045 17.692 138.406 17.1418C137.255 17.9798 135.548 18.8649 133.325 19.0534C131.489 19.2305 129.161 18.9888 127.94 19.5658C127.334 19.4752 126.996 20.6144 126.609 21.1207C126.004 21.6025 125.333 21.4054 125.165 20.9461C125.163 20.8689 125.192 20.8061 125.221 20.7434L125.235 20.712C124.725 21.2374 124.946 21.4166 123.557 21.5344C123.051 22.2144 123.086 22.8786 123.223 23.3233C122.931 22.8831 122.498 22.3388 122.154 21.6835C121.617 20.7863 122.169 20.0895 122.498 19.7087C122.421 19.7109 122.329 19.7445 122.223 19.8095C121.114 19.981 121.777 18.3063 122.137 17.94C122.256 17.7664 122.486 17.6823 122.715 17.5983Z" fill="#BD8051"/>
<path d="M120.357 9.11757C120.552 9.16955 121.851 9.68489 121.932 9.27561C121.806 9.9251 121.697 10.8943 121.138 11.3335C120.659 11.71 119.783 11.8226 119.199 11.6667C119.845 11.9022 120.747 11.8071 120.939 12.6677C121.044 13.2001 120.182 14.5566 120.889 14.8716C120.685 14.7752 120.234 14.8228 119.995 14.78C118.536 14.5056 118.355 12.8809 118.323 11.6638C118.331 12.1702 118.232 12.7218 118.195 13.2374C118.158 13.753 118.165 14.3749 117.615 14.6274C117.11 14.8708 116.5 14.6973 116.004 14.985C116.5 14.6973 115.477 13.4781 115.39 13.15C115.075 11.8993 116.756 12.1277 117.183 11.254C116.943 11.5578 116.128 11.8654 115.73 11.9481C115.243 12.0492 114.836 11.8565 114.758 11.3417C114.636 10.7206 115.082 9.58909 114.367 9.22969C114.932 9.52792 115.305 8.9656 115.819 8.99762C116.314 9.05643 116.675 9.60483 116.913 9.99416C116.508 9.33942 116.015 8.47205 117.016 8.05647C117.486 7.86666 117.841 7.3311 118.293 7.05256C118.169 7.1245 119.148 8.35285 119.165 8.55709C119.207 9.12546 118.878 9.7941 118.779 10.3457C119.072 9.96159 119.685 8.98001 120.357 9.11757Z" fill="#BD8051"/>
<path d="M146.697 10.8018C146.525 10.5165 145.102 8.68891 145.715 8.37026C144.74 8.87195 143.249 9.49545 142.81 10.5883C142.433 11.525 142.661 12.9714 143.18 13.8273C142.506 12.9101 142.238 11.4298 140.78 11.5237C139.884 11.6045 138.127 13.6061 137.297 12.6277C137.545 12.9063 137.679 13.6465 137.858 14.0065C138.971 16.2004 141.64 15.734 143.591 15.2195C142.782 15.4429 141.95 15.8565 141.147 16.1546C140.344 16.4527 139.352 16.7303 139.205 17.7215C139.052 18.638 139.611 19.5279 139.384 20.4512C139.611 19.5279 142.026 20.589 142.588 20.5759C144.724 20.4961 143.581 17.9286 144.772 16.8432C144.4 17.3657 144.289 18.805 144.342 19.4773C144.408 20.2989 144.903 20.8561 145.758 20.7413C146.803 20.647 148.396 19.4125 149.3 20.3842C148.563 19.6232 149.284 18.7682 148.995 17.9668C148.672 17.2061 147.632 16.8861 146.902 16.6887C148.131 17.0291 149.74 17.4106 149.936 15.625C150.02 14.79 150.707 13.9757 150.941 13.1272C150.884 13.358 148.476 12.3716 148.143 12.4392C147.219 12.6354 146.308 13.4699 145.477 13.8834C145.951 13.2387 147.228 11.8071 146.697 10.8018Z" fill="#BD8051"/>
<path d="M185.832 4.54847C185.824 4.52464 185.871 4.50857 185.871 4.50857C185.887 4.55624 185.895 4.58007 185.911 4.62774C185.958 4.37307 186.156 4.17357 186.203 3.9189C186.258 3.68807 186.654 3.12999 186.088 2.86944C185.5 3.01459 185.733 3.62622 185.718 3.89668C185.726 4.00005 185.75 4.07154 185.783 4.16687C185.775 4.22257 185.783 4.24641 185.775 4.30211L185.783 4.32595C185.783 4.32595 185.791 4.34978 185.767 4.35781C185.325 2.8084 184.176 1.84197 183.395 1.25606C183.419 1.24802 183.434 1.21616 183.434 1.21616C183.625 1.15189 183.312 0.460999 182.877 0.899908C182.686 1.04371 182.759 1.41728 182.982 1.44834C183.157 1.49547 183.276 1.37576 183.299 1.28819C183.323 1.28016 183.347 1.27212 183.347 1.27212L183.419 1.32755C186.003 3.48214 186.387 6.59061 184.647 9.38018C184.078 10.2888 183.325 11.1264 182.405 11.7022C181.437 12.294 180.484 12.6949 179.523 12.9924C179.57 12.9764 179.618 12.9603 179.657 12.9204C180.547 12.5674 181.427 11.7134 181.479 10.6078C181.454 8.1741 178.287 7.43721 177.074 8.7218C176.686 9.14464 176.314 9.53561 176.395 10.1716C176.469 10.7042 177.099 11.1555 177.615 10.8753C176.962 10.8298 176.347 10.1081 176.878 9.55756C177.251 9.16658 178.054 9.10821 178.54 9.28949C179.264 9.5495 179.585 10.3437 179.293 11.0526C178.789 12.3109 177.454 12.6813 176.397 12.9314C176.421 12.9234 176.46 12.8835 176.476 12.8516C176.826 12.7073 177.643 12.2194 177.203 11.5448C177.155 11.4813 177.092 11.4497 177.06 11.4339C176.781 11.3156 176.536 11.7698 176.537 11.9288C176.246 12.8763 175.746 13.1245 174.808 13.3345C173.965 13.5123 173.043 13.5313 172.294 13.1203C172.748 13.3653 173.171 13.7536 173.609 14.0305C174.223 14.434 174.837 14.8375 175.443 15.2968C176.169 15.8749 177.028 16.1425 177.76 16.1877C178.381 16.2174 179.233 16.7792 178.749 17.0751C178.773 17.0671 178.773 17.0671 178.797 17.0591L178.805 17.0829C179.417 17.0092 179.223 15.9601 178.815 15.3013C178.311 14.5952 177.387 14.0575 176.352 13.8224C175.962 13.768 175.573 13.7136 175.223 13.6989C176.853 13.6536 178.657 13.4964 180.492 12.7983C180.262 12.9024 180.032 13.0066 179.825 13.1028C179.404 13.2712 178.325 13.8475 177.878 13.5468C178.596 14.0215 179.471 14.2572 180.157 14.7957C180.699 15.2234 181.251 16.152 180.92 16.8212C180.667 17.3311 179.959 17.4369 179.799 17.1193C179.906 17.9859 182.219 17.7633 182.205 15.9897C182.049 14.6621 181.005 14.0055 180.281 13.825C180.83 13.8788 181.458 13.8528 182.094 13.6916C183.604 13.3684 185.327 12.6547 185.601 13.6241C185.608 13.5684 185.592 13.5207 185.584 13.4969C185.592 13.5207 185.6 13.5445 185.608 13.5684C185.6 13.5445 185.592 13.5207 185.608 13.4888C185.592 13.4412 185.568 13.3697 185.544 13.2982C185.223 12.5039 183.701 11.6103 182.08 12.1566C181.786 12.2292 181.524 12.3176 181.246 12.4378C181.405 12.3578 181.564 12.2777 181.723 12.1976C182.009 12.1012 182.318 11.9172 182.643 11.7014C182.62 11.7094 182.62 11.7094 182.628 11.7333L182.691 11.6853C182.842 11.5814 183.001 11.5013 183.175 11.3894C183.286 11.3254 183.397 11.2614 183.509 11.1974C184.263 10.837 185.598 10.6256 186.362 10.8458C187.182 11.0736 187.607 12.0187 187.243 12.5925C187.03 12.9034 186.728 13.0317 186.442 13.0486C186.306 13.0411 186.163 13.0098 185.988 12.9626C185.837 12.9075 185.725 12.8124 185.621 12.7412C185.509 12.5666 185.429 12.4078 185.405 12.1772C185.33 11.3264 186.61 11.1869 186.795 11.8146C186.939 12.0845 186.678 12.4115 186.432 12.468C186.209 12.5165 186.041 12.3341 186.033 12.1512L186.041 12.1751C186.059 12.859 187.29 12.3379 186.795 11.6555C186.411 11.0683 185.124 11.4226 185.31 12.3684C185.399 12.7101 185.598 12.9878 185.854 13.1937C186.898 14.0094 188.973 13.7876 189.564 12.2347C189.887 11.2236 189.144 10.2001 188.315 9.86884C187.487 9.45807 186.549 9.50895 185.802 9.73417C184.562 10.0724 183.786 10.8386 183.135 11.3498C183.088 11.3658 183.048 11.4057 183 11.4218C183.762 10.7671 184.411 10.0172 184.901 9.18843C184.917 9.15657 184.965 9.14051 184.981 9.10864L185.004 9.10061C184.989 9.13248 184.973 9.16434 184.933 9.20424L184.973 9.16433C184.989 9.13246 185.012 9.12444 185.028 9.09258C185.068 9.05267 185.115 9.0366 185.155 8.9967C185.242 8.94073 185.322 8.86093 185.433 8.79692L185.393 8.83683L185.48 8.78086L185.504 8.77282L185.425 8.85263C185.441 8.82076 185.48 8.78086 185.496 8.74899C186.02 8.41318 186.75 8.06076 187.545 7.81947C188.705 7.48151 190.12 7.50854 190.322 8.1839C190.33 8.20773 190.338 8.23156 190.346 8.25539C190.338 8.23156 190.338 8.23156 190.353 8.19969C190.369 8.24735 190.386 8.29503 190.378 8.35073C190.393 8.23933 190.369 8.16783 190.345 8.09633C190.321 8.02483 190.329 7.96912 190.281 7.90566C190.2 7.5878 190.048 7.21451 189.641 6.95342C189.107 6.54961 188.295 6.42509 187.493 6.64254C186.047 7.07692 185.439 8.34356 185.076 8.99696C185.036 9.03686 184.996 9.07678 184.957 9.11668C185.29 8.7656 185.527 8.36712 185.668 7.92126C185.983 7.04532 186.423 5.27818 185.832 4.54847ZM184.698 12.5216L184.73 12.5374C184.706 12.5454 184.706 12.5454 184.698 12.5216Z" fill="#BD8051"/>
<path d="M166.549 17.5988C166.151 17.4789 165.672 17.434 165.403 17.1013C165.343 17.0531 165.521 16.7798 165.311 16.5726C164.679 15.9509 163.198 15.7995 162.401 16.0548C163.423 16.0381 164.323 15.4299 165.085 14.7714C166.1 13.9191 166.783 12.7631 167.375 11.5736C168.034 10.2004 168.091 8.76325 168.422 7.50424C168.782 6.30797 169.344 5.0557 170.628 4.53609C170.331 4.63576 170.047 3.77658 169.449 4.13048C169.056 4.35111 168.992 4.95262 168.569 5.11051C168.648 4.54037 168.005 4.30507 167.786 4.90208C167.62 5.28403 167.772 5.93821 167.869 6.31235C167.626 5.62456 166.969 5.853 166.615 6.3223C166.324 6.76249 166.49 7.44803 166.491 7.94313C166.474 7.98905 166.308 9.4385 166.1 9.15396C166.056 9.05987 166.073 9.01394 166.06 8.90529C165.779 8.46392 165.281 8.04718 165.114 9.00153C164.765 9.81135 165.492 10.8845 165.084 12.1413C164.573 13.7509 162.89 15.2181 161.146 15.0745C162.196 14.6255 163.01 13.7518 163.213 12.6283C163.418 11.4276 163.095 10.3197 162.98 9.4964C162.91 9.75739 162.732 10.0307 162.573 10.1808C162.346 10.5145 162.2 10.7733 162.084 11.0175C162.077 11.2493 161.993 11.4789 161.834 11.629L161.817 11.675C161.851 11.5831 161.899 11.5226 161.887 11.414C161.829 11.2885 161.775 11.0085 161.799 10.7307C161.585 10.1056 161.095 9.3797 160.464 8.75795C159.815 8.18213 159.095 7.94459 158.462 7.89523C160.175 8.05336 159.25 10.5792 159.392 11.5425C159.485 12.0712 159.8 12.4208 159.581 13.0178C159.665 12.7881 159.064 11.6567 158.866 11.5581C158.135 11.1347 158.229 12.1585 158.324 12.6099C158.522 13.776 158.191 15.6074 156.714 16.3689C154.589 17.6222 152.219 17.6925 150.858 17.1423C152.01 17.9803 153.717 18.8654 155.939 19.0538C157.775 19.231 160.103 18.9893 161.324 19.5663C161.93 19.4756 162.268 20.6149 162.656 21.1212C163.261 21.6029 163.932 21.4059 164.1 20.9466C164.102 20.8693 164.073 20.8066 164.044 20.7439L164.029 20.7125C164.54 21.2379 164.318 21.4171 165.707 21.5349C166.213 22.2149 166.179 22.8791 166.042 23.3238C166.333 22.8836 166.767 22.3393 167.111 21.684C167.648 20.7868 167.095 20.09 166.766 19.7092C166.843 19.7114 166.935 19.745 167.042 19.81C168.151 19.9815 167.488 18.3068 167.127 17.9405C167.009 17.7668 166.779 17.6828 166.549 17.5988Z" fill="#BD8051"/>
<path d="M168.906 9.11708C168.712 9.16906 167.413 9.6844 167.332 9.27512C167.458 9.92461 167.567 10.8938 168.125 11.3331C168.604 11.7095 169.481 11.8221 170.064 11.6662C169.419 11.9017 168.516 11.8066 168.324 12.6672C168.22 13.1996 169.082 14.5561 168.375 14.8711C168.578 14.7747 169.03 14.8223 169.269 14.7795C170.728 14.5051 170.909 12.8804 170.94 11.6633C170.933 12.1697 171.032 12.7213 171.069 13.2369C171.106 13.7525 171.099 14.3744 171.648 14.627C172.153 14.8703 172.763 14.6968 173.26 14.9845C172.763 14.6968 173.786 13.4776 173.874 13.1495C174.188 11.8988 172.508 12.1272 172.08 11.2535C172.32 11.5573 173.135 11.8649 173.534 11.9476C174.021 12.0487 174.427 11.856 174.505 11.3412C174.627 10.7201 174.181 9.5886 174.897 9.2292C174.332 9.52743 173.958 8.96511 173.445 8.99713C172.95 9.05594 172.589 9.60434 172.351 9.99367C172.756 9.33893 173.249 8.47156 172.248 8.05598C171.778 7.86617 171.423 7.33062 170.97 7.05208C171.095 7.12401 170.116 8.35236 170.099 8.5566C170.057 9.12497 170.386 9.79361 170.485 10.3452C170.192 9.9611 169.578 8.97952 168.906 9.11708Z" fill="#BD8051"/>
<path d="M79.5162 15.8111C79.3964 13.0891 80.6793 10.4998 83.0838 9.13913C84.6571 8.28186 86.6312 7.92817 88.1228 9.03383C86.8325 8.68725 85.4212 10.1086 85.5913 11.3636C85.668 11.8615 86.1893 12.8421 86.7338 12.6358C86.7774 12.615 86.821 12.5942 86.8647 12.5734C86.8647 12.5734 86.8647 12.5734 86.9083 12.5526C86.952 12.5317 87.0392 12.4901 87.1058 12.4049C85.7796 13.8926 83.4795 13.226 83.5217 11.0681C83.5614 10.1405 84.3224 8.81562 85.3406 8.70408C83.8029 8.84962 81.7059 9.95668 81.9942 11.7966C82.0108 12.0559 82.5922 13.275 82.8956 13.2372C82.0728 13.309 81.2375 12.9058 81.1256 11.9972C80.6762 13.9752 83.394 14.2822 83.8819 15.8666C83.9213 16.0616 83.9171 16.2774 83.7175 16.5329C83.8235 16.6427 83.9294 16.7525 84.0125 16.9266C84.4965 17.6044 85.0283 18.0455 85.3919 18.2462C85.1487 18.5225 84.5563 18.9654 83.7335 19.0372C83.0186 19.1109 82.5076 18.7133 82.3207 18.3215C82.358 18.6244 82.4618 18.842 82.5449 19.0162C82.5449 19.0162 82.5449 19.0162 82.5885 18.9954C82.6093 19.0389 82.6301 19.0825 82.7152 19.1487C82.6508 19.126 82.5864 19.1033 82.522 19.0806C82.5012 19.037 81.6347 19.1297 81.4623 19.105C80.1054 18.8436 79.5739 17.28 79.5162 15.8111Z" fill="#BD8051"/>
<path d="M211.751 15.2272C211.871 12.5052 210.588 9.91581 208.184 8.55514C206.611 7.69787 204.636 7.34418 203.145 8.44984C204.435 8.10326 205.846 9.52463 205.676 10.7796C205.6 11.2775 205.078 12.2581 204.534 12.0518C204.49 12.031 204.447 12.0102 204.403 11.9894C204.403 11.9894 204.403 11.9894 204.359 11.9686C204.316 11.9478 204.228 11.9061 204.162 11.8209C205.488 13.3086 207.788 12.642 207.746 10.4841C207.706 9.55655 206.945 8.23163 205.927 8.12009C207.465 8.26563 209.562 9.37269 209.273 11.2126C209.257 11.472 208.675 12.6911 208.372 12.6532C209.195 12.7251 210.03 12.3218 210.142 11.4132C210.591 13.3912 207.874 13.6982 207.386 15.2826C207.346 15.4776 207.35 15.6934 207.55 15.9489C207.444 16.0587 207.338 16.1685 207.255 16.3427C206.771 17.0204 206.239 17.4615 205.876 17.6622C206.119 17.9385 206.711 18.3814 207.534 18.4532C208.249 18.5269 208.76 18.1294 208.947 17.7375C208.91 18.0404 208.806 18.2581 208.723 18.4322C208.723 18.4322 208.723 18.4322 208.679 18.4114L208.635 18.3906L208.679 18.4114C208.658 18.4549 208.638 18.4985 208.552 18.5648C208.617 18.542 208.681 18.5193 208.746 18.4966C208.766 18.4531 209.633 18.5457 209.805 18.521C211.162 18.2596 211.694 16.6961 211.751 15.2272Z" fill="#BD8051"/>
<path d="M0 9L86 9.00001" stroke="#BD8051" stroke-width="1.16718"/>
<path d="M206 9L290 9" stroke="#BD8051" stroke-width="1.16718"/>
</svg>
