<svg width="1170" height="49" viewBox="0 0 1170 49" fill="none" xmlns="http://www.w3.org/2000/svg">
<path d="M513.094 18.3334C513.107 18.2925 513.026 18.265 513.026 18.265C512.998 18.3467 512.984 18.3875 512.957 18.4692C512.877 18.0328 512.537 17.691 512.457 17.2546C512.363 16.859 511.685 15.9027 512.654 15.4563C513.661 15.705 513.262 16.753 513.288 17.2165C513.274 17.3936 513.233 17.5161 513.178 17.6795C513.191 17.7749 513.177 17.8158 513.19 17.9112L513.177 17.9521C513.177 17.9521 513.163 17.9929 513.204 18.0067C513.962 15.3517 515.93 13.6957 517.269 12.6917C517.228 12.6779 517.201 12.6233 517.201 12.6233C516.875 12.5132 517.41 11.3293 518.157 12.0814C518.483 12.3278 518.358 12.9679 517.977 13.0212C517.677 13.1019 517.473 12.8968 517.433 12.7468C517.392 12.733 517.351 12.7192 517.351 12.7192L517.228 12.8142C512.8 16.5062 512.141 21.8326 515.123 26.6127C516.098 28.1696 517.388 29.605 518.965 30.5916C520.624 31.6057 522.257 32.2926 523.904 32.8024C523.823 32.7749 523.741 32.7474 523.673 32.679C522.149 32.0742 520.641 30.6108 520.553 28.7162C520.594 24.546 526.022 23.2833 528.1 25.4845C528.765 26.2091 529.403 26.879 529.263 27.9688C529.137 28.8815 528.058 29.6547 527.174 29.1747C528.291 29.0967 529.345 27.8601 528.435 26.9166C527.797 26.2467 526.421 26.1466 525.589 26.4573C524.347 26.9028 523.797 28.2638 524.297 29.4784C525.162 31.6346 527.449 32.2693 529.26 32.6979C529.219 32.6841 529.151 32.6157 529.124 32.5611C528.526 32.3138 527.125 31.4777 527.878 30.3219C527.961 30.2131 528.07 30.1589 528.124 30.1319C528.602 29.9291 529.022 30.7073 529.021 30.9799C529.519 32.6033 530.376 33.0287 531.983 33.3885C533.427 33.6932 535.007 33.7258 536.291 33.0215C535.513 33.4413 534.788 34.1067 534.037 34.5811C532.985 35.2726 531.933 35.9641 530.895 36.751C529.652 37.7417 528.178 38.2001 526.924 38.2776C525.861 38.3286 524.4 39.2912 525.229 39.7983C525.188 39.7845 525.188 39.7845 525.148 39.7707L525.134 39.8116C524.085 39.6854 524.418 37.8876 525.117 36.7588C525.98 35.5488 527.564 34.6274 529.337 34.2245C530.005 34.1314 530.673 34.0382 531.272 34.013C528.479 33.9354 525.387 33.666 522.243 32.4697C522.638 32.6482 523.032 32.8267 523.386 32.9915C524.107 33.2801 525.957 34.2676 526.722 33.7523C525.493 34.5658 523.992 34.9696 522.817 35.8924C521.888 36.6252 520.942 38.2165 521.511 39.3632C521.944 40.2369 523.156 40.4182 523.43 39.874C523.248 41.3588 519.284 40.9775 519.308 37.9384C519.575 35.6634 521.364 34.5383 522.605 34.229C521.664 34.3212 520.588 34.2767 519.499 34.0004C516.911 33.4466 513.959 32.2237 513.49 33.8847C513.476 33.7893 513.504 33.7076 513.518 33.6668C513.504 33.7076 513.49 33.7484 513.476 33.7893C513.49 33.7484 513.504 33.7076 513.477 33.653C513.504 33.5713 513.546 33.4488 513.587 33.3263C514.137 31.9653 516.745 30.4341 519.521 31.3702C520.025 31.4946 520.474 31.646 520.951 31.8521C520.679 31.7149 520.406 31.5777 520.134 31.4405C519.644 31.2753 519.114 30.96 518.557 30.5902C518.597 30.6039 518.597 30.6039 518.584 30.6448L518.475 30.5626C518.217 30.3846 517.945 30.2474 517.645 30.0556C517.455 29.9459 517.265 29.8362 517.074 29.7266C515.782 29.1089 513.494 28.7468 512.184 29.124C510.779 29.5145 510.051 31.1338 510.675 32.1172C511.041 32.6499 511.558 32.8697 512.048 32.8986C512.28 32.8858 512.526 32.8321 512.826 32.7513C513.085 32.6568 513.276 32.4939 513.454 32.3719C513.646 32.0727 513.783 31.8006 513.825 31.4055C513.953 29.9477 511.76 29.7086 511.443 30.7842C511.196 31.2467 511.643 31.807 512.066 31.9038C512.447 31.9869 512.734 31.6744 512.749 31.361L512.735 31.4018C512.704 32.5737 510.595 31.6808 511.443 30.5116C512.101 29.5053 514.307 30.1124 513.988 31.7331C513.836 32.3186 513.493 32.7945 513.056 33.1473C511.266 34.545 507.711 34.165 506.698 31.504C506.145 29.7714 507.418 28.0176 508.838 27.45C510.257 26.7461 511.865 26.8333 513.145 27.2193C515.268 27.7988 516.599 29.1117 517.714 29.9877C517.795 30.0152 517.863 30.0836 517.945 30.1111C516.641 28.9891 515.528 27.7043 514.688 26.2841C514.661 26.2295 514.579 26.202 514.552 26.1474L514.511 26.1336C514.538 26.1882 514.565 26.2428 514.633 26.3112L514.565 26.2428C514.538 26.1882 514.497 26.1745 514.47 26.1199C514.402 26.0515 514.321 26.0239 514.253 25.9556C514.103 25.8597 513.967 25.7229 513.777 25.6132L513.845 25.6816L513.695 25.5857L513.654 25.5719L513.79 25.7087C513.763 25.6541 513.695 25.5857 513.668 25.5311C512.771 24.9557 511.519 24.3518 510.158 23.9383C508.17 23.3592 505.745 23.4055 505.4 24.5628C505.386 24.6036 505.372 24.6445 505.359 24.6853C505.372 24.6445 505.372 24.6445 505.345 24.5899C505.318 24.6715 505.29 24.7532 505.304 24.8487C505.277 24.6578 505.318 24.5353 505.36 24.4128C505.401 24.2902 505.388 24.1948 505.47 24.086C505.608 23.5414 505.869 22.9017 506.566 22.4543C507.481 21.7624 508.872 21.549 510.247 21.9216C512.724 22.666 513.766 24.8364 514.389 25.956C514.457 26.0244 514.525 26.0928 514.593 26.1612C514.022 25.5596 513.616 24.8768 513.373 24.1128C512.833 22.6118 512.081 19.5838 513.094 18.3334ZM515.036 31.9956L514.981 32.0227C515.022 32.0364 515.022 32.0365 515.036 31.9956Z" fill="#BD8051"/>
<path d="M546.134 38.888C546.817 38.6826 547.637 38.6057 548.097 38.0356C548.201 37.953 547.895 37.4847 548.256 37.1296C549.339 36.0642 551.876 35.8048 553.241 36.2423C551.491 36.2137 549.949 35.1716 548.643 34.0431C546.904 32.5826 545.733 30.602 544.719 28.5636C543.59 26.2106 543.491 23.748 542.925 21.5906C542.308 19.5408 541.344 17.395 539.144 16.5046C539.653 16.6754 540.14 15.2031 541.165 15.8096C541.839 16.1876 541.949 17.2183 542.672 17.4889C542.538 16.5119 543.639 16.1087 544.014 17.1317C544.298 17.7862 544.039 18.9072 543.872 19.5483C544.289 18.3697 545.414 18.7611 546.02 19.5653C546.52 20.3196 546.236 21.4943 546.234 22.3427C546.263 22.4214 546.547 24.905 546.904 24.4175C546.979 24.2562 546.95 24.1775 546.971 23.9914C547.453 23.2351 548.307 22.521 548.593 24.1563C549.191 25.5439 547.945 27.3829 548.644 29.5364C549.52 32.2945 552.404 34.8086 555.393 34.5626C553.594 33.7931 552.198 32.2961 551.85 30.371C551.499 28.3134 552.053 26.415 552.25 25.0043C552.37 25.4515 552.675 25.9198 552.947 26.1769C553.335 26.7489 553.587 27.1922 553.785 27.6106C553.796 28.008 553.94 28.4014 554.213 28.6586L554.242 28.7373C554.184 28.5799 554.102 28.4763 554.123 28.2901C554.222 28.0751 554.314 27.5952 554.274 27.1192C554.64 26.0482 555.479 24.8043 556.561 23.7389C557.673 22.7522 558.907 22.3452 559.991 22.2606C557.056 22.5315 558.641 26.8596 558.398 28.5104C558.238 29.4163 557.699 30.0153 558.074 31.0383C557.93 30.6448 558.96 28.7061 559.3 28.5371C560.551 27.8115 560.39 29.5658 560.227 30.3394C559.888 32.3375 560.457 35.4757 562.987 36.7806C566.629 38.928 570.689 39.0485 573.021 38.1059C571.048 39.5418 568.123 41.0584 564.314 41.3813C561.168 41.6849 557.179 41.2707 555.087 42.2594C554.049 42.1041 553.469 44.0562 552.805 44.9238C551.769 45.7493 550.619 45.4116 550.331 44.6247C550.327 44.4922 550.377 44.3847 550.427 44.2772L550.452 44.2235C549.577 45.1238 549.957 45.4309 547.577 45.6326C546.709 46.7978 546.769 47.936 547.003 48.698C546.504 47.9437 545.761 47.011 545.171 45.8882C544.252 44.3508 545.198 43.1569 545.762 42.5042C545.629 42.5081 545.472 42.5656 545.29 42.677C543.389 42.9709 544.525 40.1012 545.143 39.4735C545.347 39.176 545.74 39.032 546.134 38.888Z" fill="#BD8051"/>
<path d="M542.092 24.3554C542.426 24.4444 544.652 25.3275 544.79 24.6262C544.575 25.7391 544.388 27.3999 543.43 28.1525C542.609 28.7976 541.108 28.9906 540.108 28.7234C541.214 29.1269 542.761 28.964 543.09 30.4386C543.269 31.3509 541.791 33.6753 543.002 34.2151C542.654 34.05 541.881 34.1314 541.471 34.0581C538.971 33.588 538.661 30.8039 538.607 28.7184C538.619 29.5862 538.45 30.5313 538.386 31.4148C538.323 32.2983 538.335 33.364 537.394 33.7968C536.528 34.2138 535.483 33.9164 534.632 34.4095C535.483 33.9164 533.73 31.8273 533.58 31.265C533.041 29.122 535.921 29.5133 536.653 28.0162C536.242 28.5367 534.846 29.0639 534.163 29.2057C533.328 29.3788 532.632 29.0487 532.498 28.1665C532.289 27.1022 533.053 25.1633 531.827 24.5475C532.796 25.0585 533.435 24.095 534.315 24.1498C535.164 24.2506 535.782 25.1903 536.19 25.8574C535.496 24.7355 534.651 23.2492 536.367 22.5371C537.171 22.2119 537.78 21.2942 538.555 20.8169C538.343 20.9402 540.019 23.045 540.048 23.395C540.121 24.3689 539.557 25.5146 539.387 26.4598C539.889 25.8016 540.941 24.1197 542.092 24.3554Z" fill="#BD8051"/>
<path d="M587.228 27.2425C586.932 26.7536 584.494 23.622 585.545 23.076C583.875 23.9357 581.319 25.0041 580.566 26.8767C579.921 28.4817 580.311 30.9602 581.2 32.4268C580.045 30.8553 579.586 28.3186 577.088 28.4796C575.553 28.618 572.541 32.0478 571.12 30.3714C571.545 30.8487 571.774 32.117 572.081 32.7339C573.989 36.4933 578.562 35.6941 581.905 34.8125C580.519 35.1953 579.094 35.904 577.718 36.4148C576.342 36.9257 574.641 37.4014 574.389 39.0998C574.128 40.6703 575.086 42.1951 574.696 43.7771C575.086 42.1951 579.223 44.0134 580.187 43.9908C583.846 43.8541 581.887 39.4547 583.929 37.5947C583.292 38.4901 583.101 40.9564 583.192 42.1083C583.304 43.5162 584.153 44.4709 585.618 44.2743C587.408 44.1128 590.138 41.9974 591.687 43.6623C590.424 42.3583 591.66 40.8933 591.165 39.52C590.611 38.2165 588.829 37.6683 587.578 37.33C589.685 37.9133 592.442 38.567 592.778 35.5074C592.922 34.0764 594.099 32.6812 594.499 31.2272C594.402 31.6227 590.275 29.9325 589.705 30.0484C588.121 30.3845 586.561 31.8144 585.136 32.523C585.95 31.4183 588.137 28.9651 587.228 27.2425Z" fill="#BD8051"/>
<path d="M654.282 16.5272C654.268 16.4864 654.35 16.4588 654.35 16.4588C654.377 16.5405 654.391 16.5814 654.419 16.663C654.499 16.2267 654.838 15.8848 654.919 15.4484C655.013 15.0529 655.691 14.0966 654.722 13.6501C653.714 13.8988 654.113 14.9469 654.087 15.4103C654.102 15.5875 654.143 15.71 654.198 15.8733C654.185 15.9688 654.198 16.0096 654.185 16.1051L654.199 16.1459C654.199 16.1459 654.213 16.1867 654.172 16.2005C653.413 13.5455 651.445 11.8895 650.106 10.8855C650.147 10.8718 650.174 10.8172 650.174 10.8172C650.501 10.707 649.965 9.52317 649.218 10.2753C648.892 10.5217 649.017 11.1618 649.399 11.215C649.699 11.2958 649.903 11.0906 649.943 10.9406C649.984 10.9268 650.025 10.9131 650.025 10.9131L650.148 11.008C654.575 14.7 655.234 20.0265 652.253 24.8065C651.277 26.3635 649.987 27.7988 648.41 28.7854C646.751 29.7995 645.118 30.4864 643.471 30.9963C643.553 30.9687 643.634 30.9412 643.702 30.8728C645.226 30.268 646.734 28.8047 646.823 26.91C646.781 22.7399 641.353 21.4772 639.276 23.6784C638.611 24.4029 637.973 25.0729 638.113 26.1627C638.238 27.0753 639.318 27.8485 640.202 27.3685C639.084 27.2905 638.03 26.0539 638.94 25.1105C639.578 24.4405 640.954 24.3405 641.787 24.6511C643.028 25.0967 643.578 26.4576 643.078 27.6723C642.213 29.8285 639.926 30.4631 638.115 30.8917C638.156 30.878 638.224 30.8096 638.251 30.755C638.85 30.5076 640.251 29.6716 639.497 28.5157C639.415 28.407 639.306 28.3528 639.251 28.3257C638.773 28.1229 638.354 28.9012 638.355 29.1737C637.856 30.7972 636.999 31.2226 635.392 31.5824C633.949 31.8871 632.368 31.9197 631.085 31.2153C631.863 31.6352 632.588 32.3005 633.339 32.775C634.39 33.4665 635.442 34.1579 636.48 34.9449C637.724 35.9355 639.197 36.394 640.451 36.4715C641.514 36.5224 642.976 37.4851 642.146 37.9921C642.187 37.9784 642.187 37.9784 642.228 37.9646L642.242 38.0054C643.29 37.8792 642.957 36.0814 642.258 34.9526C641.396 33.7426 639.812 32.8212 638.039 32.4184C637.371 32.3252 636.703 32.2321 636.103 32.2068C638.896 32.1293 641.989 31.8599 645.132 30.6636C644.738 30.8421 644.343 31.0206 643.99 31.1853C643.268 31.474 641.418 32.4614 640.654 31.9461C641.883 32.7597 643.383 33.1635 644.558 34.0862C645.487 34.819 646.433 36.4104 645.865 37.5571C645.432 38.4307 644.22 38.612 643.945 38.0678C644.127 39.5527 648.092 39.1713 648.068 36.1323C647.801 33.8572 646.012 32.7321 644.771 32.4229C645.711 32.5151 646.788 32.4705 647.877 32.1943C650.464 31.6404 653.417 30.4175 653.886 32.0786C653.899 31.9831 653.872 31.9015 653.858 31.8606C653.872 31.9015 653.885 31.9423 653.899 31.9831C653.885 31.9423 653.872 31.9015 653.899 31.8469C653.871 31.7652 653.83 31.6427 653.789 31.5202C653.239 30.1592 650.631 28.628 647.854 29.5641C647.35 29.6885 646.901 29.8399 646.425 30.0459C646.697 29.9087 646.969 29.7715 647.241 29.6343C647.731 29.4691 648.261 29.1539 648.819 28.784C648.778 28.7978 648.778 28.7978 648.792 28.8386L648.901 28.7565C649.159 28.5784 649.431 28.4412 649.73 28.2494C649.92 28.1397 650.111 28.0301 650.301 27.9204C651.594 27.3028 653.882 26.9407 655.191 27.3179C656.596 27.7083 657.324 29.3277 656.701 30.311C656.335 30.8438 655.818 31.0635 655.327 31.0925C655.095 31.0796 654.85 31.0259 654.55 30.9452C654.291 30.8507 654.099 30.6878 653.922 30.5657C653.73 30.2665 653.593 29.9944 653.55 29.5993C653.423 28.1415 655.616 27.9024 655.933 28.978C656.18 29.4405 655.732 30.0008 655.31 30.0977C654.929 30.1807 654.641 29.8682 654.627 29.5548L654.641 29.5957C654.672 30.7676 656.781 29.8746 655.932 28.7054C655.274 27.6992 653.069 28.3063 653.388 29.927C653.54 30.5125 653.882 30.9883 654.319 31.3412C656.109 32.7389 659.665 32.3589 660.678 29.6979C661.23 27.9652 659.957 26.2115 658.538 25.6439C657.118 24.94 655.511 25.0272 654.231 25.4131C652.107 25.9927 650.776 27.3055 649.662 28.1815C649.58 28.209 649.512 28.2774 649.43 28.3049C650.735 27.183 651.848 25.8982 652.688 24.478C652.715 24.4234 652.797 24.3958 652.824 24.3412L652.864 24.3275C652.837 24.3821 652.81 24.4367 652.742 24.505L652.81 24.4367C652.837 24.3821 652.878 24.3683 652.905 24.3137C652.973 24.2453 653.055 24.2178 653.123 24.1494C653.272 24.0535 653.408 23.9168 653.598 23.8071L653.531 23.8755L653.68 23.7796L653.721 23.7658L653.585 23.9025C653.612 23.8479 653.68 23.7796 653.707 23.725C654.605 23.1495 655.856 22.5456 657.218 22.1322C659.205 21.5531 661.631 21.5994 661.976 22.7566C661.989 22.7975 662.003 22.8383 662.017 22.8792C662.003 22.8383 662.003 22.8383 662.03 22.7837C662.058 22.8654 662.085 22.9471 662.072 23.0425C662.099 22.8516 662.057 22.7291 662.016 22.6066C661.975 22.4841 661.988 22.3886 661.906 22.2799C661.768 21.7352 661.507 21.0956 660.81 20.6482C659.895 19.9562 658.504 19.7429 657.129 20.1155C654.651 20.8598 653.609 23.0302 652.986 24.1499C652.919 24.2182 652.851 24.2866 652.783 24.355C653.353 23.7534 653.759 23.0706 654.002 22.3066C654.542 20.8057 655.295 17.7776 654.282 16.5272ZM652.34 30.1895L652.394 30.2165C652.353 30.2303 652.353 30.2303 652.34 30.1895Z" fill="#BD8051"/>
<path d="M621.242 38.889C620.559 38.6835 619.739 38.6067 619.278 38.0365C619.175 37.954 619.48 37.4857 619.119 37.1306C618.037 36.0652 615.499 35.8058 614.134 36.2433C615.885 36.2147 617.427 35.1726 618.732 34.0441C620.471 32.5836 621.643 30.6029 622.657 28.5646C623.786 26.2115 623.884 23.7489 624.451 21.5916C625.068 19.5417 626.032 17.3959 628.232 16.5056C627.723 16.6763 627.236 15.2041 626.21 15.8105C625.537 16.1886 625.427 17.2193 624.703 17.4899C624.838 16.5129 623.736 16.1097 623.362 17.1327C623.077 17.7872 623.336 18.9081 623.503 19.5492C623.087 18.3707 621.962 18.7621 621.355 19.5663C620.856 20.3206 621.14 21.4953 621.142 22.3436C621.113 22.4223 620.828 24.906 620.471 24.4185C620.396 24.2572 620.425 24.1785 620.404 23.9923C619.922 23.236 619.068 22.5219 618.782 24.1572C618.185 25.5449 619.43 27.3838 618.731 29.5373C617.855 32.2954 614.972 34.8096 611.983 34.5636C613.782 33.7941 615.177 32.2971 615.525 30.3719C615.877 28.3144 615.323 26.416 615.125 25.0052C615.006 25.4524 614.701 25.9207 614.428 26.1779C614.04 26.7499 613.789 27.1932 613.591 27.6116C613.579 28.0089 613.435 28.4024 613.163 28.6596L613.134 28.7383C613.191 28.5809 613.274 28.4772 613.253 28.2911C613.153 28.0761 613.061 27.5962 613.101 27.1202C612.735 26.0491 611.896 24.8053 610.814 23.7399C609.703 22.7532 608.469 22.3461 607.384 22.2616C610.319 22.5325 608.735 26.8606 608.978 28.5113C609.137 29.4173 609.676 30.0162 609.302 31.0392C609.446 30.6458 608.415 28.7071 608.076 28.5381C606.824 27.8124 606.985 29.5668 607.148 30.3404C607.488 32.3385 606.919 35.4767 604.389 36.7816C600.747 38.929 596.687 39.0495 594.355 38.1068C596.328 39.5428 599.253 41.0594 603.061 41.3823C606.207 41.6859 610.196 41.2717 612.288 42.2604C613.327 42.1051 613.906 44.0572 614.57 44.9248C615.607 45.7503 616.757 45.4126 617.045 44.6256C617.048 44.4932 616.999 44.3857 616.949 44.2782L616.924 44.2245C617.799 45.1248 617.419 45.4318 619.799 45.6336C620.666 46.7988 620.607 47.937 620.372 48.699C620.872 47.9447 621.615 47.012 622.204 45.8892C623.124 44.3518 622.178 43.1578 621.614 42.5052C621.746 42.509 621.903 42.5666 622.086 42.678C623.986 42.9718 622.85 40.1022 622.232 39.4745C622.029 39.177 621.635 39.033 621.242 38.889Z" fill="#BD8051"/>
<path d="M625.282 24.3554C624.949 24.4444 622.723 25.3275 622.584 24.6262C622.8 25.7391 622.987 27.3999 623.944 28.1525C624.765 28.7976 626.267 28.9906 627.267 28.7234C626.161 29.1269 624.614 28.964 624.285 30.4386C624.106 31.3509 625.584 33.6753 624.372 34.2151C624.72 34.05 625.494 34.1314 625.903 34.0581C628.403 33.588 628.713 30.8039 628.768 28.7184C628.755 29.5862 628.925 30.5313 628.988 31.4148C629.052 32.2983 629.04 33.364 629.981 33.7968C630.847 34.2138 631.892 33.9164 632.742 34.4095C631.892 33.9164 633.644 31.8273 633.794 31.265C634.333 29.122 631.454 29.5133 630.721 28.0162C631.132 28.5367 632.529 29.0639 633.212 29.2057C634.046 29.3788 634.743 29.0487 634.876 28.1665C635.085 27.1022 634.321 25.1633 635.548 24.5475C634.579 25.0585 633.939 24.095 633.06 24.1498C632.211 24.2506 631.592 25.1903 631.185 25.8574C631.879 24.7355 632.723 23.2492 631.008 22.5371C630.203 22.2119 629.594 21.2942 628.819 20.8169C629.032 20.9402 627.355 23.045 627.326 23.395C627.253 24.3689 627.818 25.5146 627.988 26.4598C627.485 25.8016 626.434 24.1197 625.282 24.3554Z" fill="#BD8051"/>
<path d="M453.26 35.8252C453.055 31.1609 455.253 26.724 459.374 24.3925C462.07 22.9235 465.452 22.3174 468.008 24.212C465.797 23.6181 463.379 26.0537 463.67 28.2042C463.802 29.0573 464.695 30.7376 465.628 30.3842C465.703 30.3485 465.778 30.3128 465.852 30.2772C465.852 30.2772 465.852 30.2772 465.927 30.2415C466.002 30.2058 466.151 30.1345 466.265 29.9885C463.993 32.5377 460.052 31.3954 460.124 27.6977C460.192 26.1084 461.496 23.8381 463.241 23.647C460.606 23.8964 457.013 25.7934 457.507 28.9462C457.535 29.3905 458.531 31.4795 459.051 31.4147C457.641 31.5378 456.21 30.8467 456.018 29.2898C455.248 32.6792 459.905 33.2053 460.741 35.9203C460.809 36.2544 460.802 36.6241 460.46 37.0619C460.641 37.2501 460.823 37.4382 460.965 37.7367C461.794 38.898 462.706 39.6538 463.329 39.9977C462.912 40.4712 461.897 41.2301 460.487 41.3532C459.262 41.4795 458.386 40.7982 458.066 40.1268C458.13 40.6457 458.308 41.0188 458.45 41.3172C458.45 41.3172 458.45 41.3172 458.525 41.2815C458.561 41.3561 458.596 41.4308 458.742 41.5443C458.632 41.5054 458.521 41.4664 458.411 41.4275C458.375 41.3529 456.891 41.5116 456.595 41.4694C454.27 41.0215 453.359 38.3422 453.26 35.8252Z" fill="#BD8051"/>
<path d="M715.138 34.8252C715.343 30.1609 713.145 25.724 709.024 23.3924C706.328 21.9235 702.946 21.3174 700.39 23.212C702.601 22.6181 705.019 25.0537 704.728 27.2042C704.596 28.0573 703.703 29.7376 702.77 29.3842C702.695 29.3485 702.62 29.3128 702.546 29.2772C702.546 29.2772 702.546 29.2772 702.471 29.2415C702.396 29.2058 702.246 29.1345 702.132 28.9885C704.405 31.5377 708.346 30.3954 708.274 26.6977C708.206 25.1084 706.902 22.8381 705.157 22.647C707.792 22.8964 711.385 24.7934 710.891 27.9462C710.863 28.3905 709.867 30.4795 709.347 30.4147C710.757 30.5378 712.188 29.8467 712.38 28.2898C713.15 31.6792 708.493 32.2053 707.657 34.9203C707.589 35.2544 707.596 35.6241 707.938 36.0619C707.757 36.2501 707.575 36.4382 707.433 36.7367C706.604 37.898 705.692 38.6538 705.069 38.9977C705.486 39.4712 706.501 40.2301 707.911 40.3532C709.136 40.4795 710.012 39.7982 710.332 39.1268C710.268 39.6457 710.09 40.0188 709.948 40.3172C709.948 40.3172 709.948 40.3172 709.873 40.2815L709.798 40.2459L709.873 40.2815C709.837 40.3561 709.802 40.4308 709.656 40.5443C709.766 40.5054 709.877 40.4664 709.987 40.4275C710.022 40.3529 711.507 40.5116 711.803 40.4694C714.128 40.0215 715.039 37.3422 715.138 34.8252Z" fill="#BD8051"/>
<path d="M0 24H465" stroke="#BD8051" stroke-width="2"/>
<path d="M1170 23.5264L705 23.5264" stroke="#BD8051" stroke-width="2"/>
</svg>
