<svg width="1171" height="48" viewBox="0 0 1171 48" fill="none" xmlns="http://www.w3.org/2000/svg">
<path d="M500.8 10.6386C500.817 10.5888 500.718 10.5552 500.718 10.5552C500.684 10.6549 500.667 10.7047 500.634 10.8044C500.536 10.2718 500.121 9.85451 500.023 9.32188C499.908 8.83909 499.081 7.67186 500.264 7.12692C501.493 7.4305 501.007 8.70972 501.038 9.2754C501.021 9.49159 500.97 9.64112 500.903 9.8405C500.919 9.957 500.902 10.0069 500.919 10.1233L500.902 10.1732C500.902 10.1732 500.885 10.223 500.935 10.2398C501.861 6.99925 504.263 4.97796 505.897 3.75253C505.847 3.73573 505.814 3.66909 505.814 3.66909C505.416 3.53467 506.069 2.08967 506.981 3.00765C507.379 3.30841 507.227 4.08972 506.761 4.15469C506.394 4.25325 506.146 4.00289 506.097 3.81975C506.047 3.80294 505.997 3.78614 505.997 3.78614L505.847 3.90207C500.442 8.40838 499.638 14.9098 503.277 20.7441C504.468 22.6445 506.042 24.3965 507.967 25.6006C509.992 26.8384 511.985 27.6769 513.996 28.2992C513.896 28.2656 513.797 28.232 513.714 28.1485C511.853 27.4103 510.013 25.6242 509.905 23.3116C509.956 18.2216 516.581 16.6804 519.116 19.3671C519.928 20.2515 520.707 21.0692 520.536 22.3994C520.383 23.5134 519.066 24.4571 517.986 23.8713C519.351 23.7761 520.637 22.2667 519.526 21.1151C518.747 20.2974 517.068 20.1753 516.052 20.5545C514.536 21.0983 513.865 22.7594 514.476 24.242C515.531 26.8738 518.323 27.6484 520.533 28.1716C520.483 28.1548 520.4 28.0713 520.367 28.0047C519.637 27.7028 517.927 26.6823 518.847 25.2715C518.947 25.1387 519.08 25.0726 519.147 25.0396C519.73 24.792 520.242 25.7419 520.241 26.0746C520.849 28.0562 521.896 28.5754 523.857 29.0145C525.619 29.3865 527.548 29.4262 529.114 28.5666C528.164 29.079 527.28 29.8911 526.363 30.4702C525.08 31.3142 523.796 32.1582 522.529 33.1187C521.011 34.3279 519.213 34.8874 517.682 34.9821C516.384 35.0442 514.601 36.2192 515.613 36.8381C515.563 36.8213 515.563 36.8213 515.513 36.8045L515.497 36.8544C514.216 36.7003 514.623 34.506 515.476 33.1282C516.529 31.6513 518.462 30.5267 520.626 30.035C521.442 29.9213 522.257 29.8076 522.989 29.7768C519.58 29.6821 515.805 29.3532 511.968 27.8931C512.45 28.1109 512.931 28.3289 513.363 28.5299C514.243 28.8822 516.501 30.0875 517.435 29.4586C515.935 30.4516 514.103 30.9444 512.669 32.0707C511.535 32.9651 510.38 34.9075 511.074 36.3071C511.603 37.3735 513.082 37.5948 513.417 36.9305C513.195 38.7429 508.356 38.2774 508.386 34.568C508.711 31.7912 510.895 30.4179 512.41 30.0404C511.262 30.153 509.948 30.0986 508.618 29.7615C505.46 29.0854 501.856 27.5928 501.284 29.6202C501.268 29.5037 501.301 29.404 501.318 29.3542C501.301 29.404 501.284 29.4539 501.268 29.5037C501.284 29.4539 501.301 29.404 501.268 29.3374C501.302 29.2377 501.352 29.0882 501.403 28.9386C502.074 27.2774 505.257 25.4085 508.646 26.5511C509.261 26.7029 509.809 26.8877 510.391 27.1392C510.058 26.9717 509.726 26.8043 509.394 26.6368C508.796 26.4352 508.149 26.0504 507.468 25.599C507.518 25.6158 507.518 25.6157 507.502 25.6656L507.369 25.5653C507.054 25.348 506.721 25.1806 506.356 24.9464C506.124 24.8126 505.892 24.6787 505.659 24.5449C504.082 23.791 501.289 23.349 499.69 23.8094C497.976 24.286 497.087 26.2625 497.848 27.4628C498.295 28.113 498.926 28.3813 499.525 28.4166C499.808 28.4009 500.107 28.3354 500.474 28.2368C500.79 28.1214 501.023 27.9226 501.24 27.7737C501.474 27.4085 501.642 27.0763 501.693 26.5941C501.849 24.8148 499.172 24.5229 498.785 25.8357C498.484 26.4003 499.03 27.0842 499.546 27.2024C500.011 27.3037 500.362 26.9223 500.38 26.5398L500.363 26.5896C500.325 28.0201 497.75 26.9301 498.786 25.503C499.589 24.2748 502.281 25.0158 501.892 26.994C501.706 27.7087 501.288 28.2895 500.755 28.7202C498.57 30.4261 494.23 29.9623 492.994 26.7144C492.319 24.5996 493.874 22.459 495.606 21.7662C497.339 20.907 499.301 21.0135 500.863 21.4845C503.455 22.1919 505.08 23.7943 506.44 24.8636C506.539 24.8972 506.622 24.9806 506.722 25.0142C505.13 23.6448 503.771 22.0766 502.746 20.3431C502.713 20.2765 502.614 20.2429 502.58 20.1762L502.531 20.1594C502.564 20.2261 502.597 20.2927 502.68 20.3762L502.597 20.2927C502.564 20.226 502.514 20.2093 502.481 20.1426C502.398 20.0592 502.298 20.0255 502.215 19.9421C502.033 19.825 501.867 19.6581 501.635 19.5243L501.718 19.6077L501.535 19.4907L501.485 19.4738L501.651 19.6408C501.618 19.5741 501.535 19.4907 501.502 19.424C500.407 18.7217 498.879 17.9846 497.217 17.4799C494.791 16.7731 491.831 16.8296 491.41 18.2421C491.393 18.292 491.376 18.3418 491.359 18.3916C491.376 18.3418 491.376 18.3418 491.343 18.2751C491.31 18.3748 491.276 18.4745 491.292 18.591C491.26 18.358 491.31 18.2085 491.361 18.059C491.411 17.9094 491.395 17.7929 491.495 17.6602C491.664 16.9954 491.982 16.2146 492.833 15.6686C493.95 14.824 495.647 14.5636 497.326 15.0184C500.35 15.9269 501.621 18.576 502.382 19.9426C502.465 20.0261 502.547 20.1096 502.63 20.193C501.934 19.4587 501.438 18.6253 501.142 17.6928C500.483 15.8608 499.564 12.1648 500.8 10.6386ZM503.171 27.3144L503.105 27.3474C503.154 27.3643 503.154 27.3643 503.171 27.3144Z" fill="#A95A1D"/>
<path d="M541.128 35.727C541.962 35.4762 542.963 35.3824 543.525 34.6865C543.651 34.5857 543.279 34.0141 543.719 33.5807C545.04 32.2803 548.138 31.9637 549.804 32.4977C547.667 32.4628 545.785 31.1908 544.192 29.8134C542.069 28.0308 540.639 25.6132 539.401 23.1253C538.023 20.2532 537.903 17.2474 537.211 14.6142C536.459 12.1122 535.282 9.4931 532.597 8.40633C533.218 8.61478 533.812 6.81781 535.064 7.558C535.886 8.01944 536.02 9.2775 536.903 9.60774C536.739 8.41528 538.084 7.92315 538.541 9.1718C538.888 9.97065 538.572 11.3389 538.368 12.1214C538.876 10.6829 540.249 11.1606 540.99 12.1422C541.599 13.0628 541.253 14.4966 541.251 15.5322C541.286 15.6282 541.633 18.6597 542.069 18.0646C542.16 17.8678 542.125 17.7718 542.151 17.5445C542.739 16.6214 543.781 15.7498 544.131 17.7458C544.86 19.4395 543.34 21.6841 544.193 24.3126C545.262 27.679 548.782 30.7477 552.43 30.4475C550.234 29.5082 548.53 27.681 548.106 25.3313C547.677 22.8199 548.353 20.5028 548.594 18.7808C548.74 19.3267 549.112 19.8983 549.445 20.2122C549.918 20.9103 550.225 21.4514 550.467 21.9621C550.481 22.4471 550.657 22.9273 550.99 23.2412L551.025 23.3373C550.954 23.1452 550.854 23.0187 550.879 22.7914C551.001 22.529 551.114 21.9433 551.064 21.3623C551.511 20.055 552.535 18.5367 553.856 17.2364C555.213 16.032 556.719 15.5352 558.043 15.432C554.46 15.7627 556.394 21.0455 556.097 23.0603C555.903 24.1661 555.245 24.8971 555.702 26.1458C555.526 25.6655 556.784 23.2992 557.198 23.093C558.726 22.2072 558.529 24.3486 558.331 25.2927C557.916 27.7316 558.611 31.562 561.699 33.1547C566.144 35.7758 571.099 35.9229 573.946 34.7723C571.538 36.5249 567.967 38.3761 563.319 38.7702C559.479 39.1408 554.61 38.6352 552.057 39.842C550.789 39.6524 550.082 42.0351 549.271 43.0941C548.006 44.1017 546.603 43.6895 546.251 42.729C546.247 42.5673 546.307 42.4361 546.368 42.3049L546.399 42.2393C545.331 43.3382 545.795 43.713 542.889 43.9593C541.831 45.3815 541.904 46.7707 542.19 47.7008C541.58 46.7801 540.673 45.6416 539.954 44.2712C538.831 42.3947 539.986 40.9374 540.675 40.1408C540.513 40.1455 540.321 40.2158 540.098 40.3517C537.779 40.7104 539.165 37.2078 539.919 36.4416C540.168 36.0785 540.648 35.9027 541.128 35.727Z" fill="#A95A1D"/>
<path d="M536.196 17.9887C536.603 18.0974 539.32 19.1752 539.489 18.3192C539.226 19.6776 538.997 21.7048 537.829 22.6234C536.827 23.4108 534.994 23.6463 533.774 23.3202C535.123 23.8127 537.011 23.6139 537.413 25.4138C537.632 26.5273 535.828 29.3643 537.306 30.0232C536.881 29.8217 535.937 29.9211 535.438 29.8316C532.386 29.2578 532.008 25.8596 531.942 23.3142C531.957 24.3733 531.75 25.5269 531.672 26.6053C531.595 27.6836 531.61 28.9844 530.461 29.5126C529.404 30.0216 528.128 29.6587 527.09 30.2605C528.128 29.6587 525.989 27.1088 525.806 26.4225C525.148 23.8067 528.663 24.2844 529.557 22.4571C529.055 23.0924 527.351 23.7359 526.517 23.9088C525.499 24.1202 524.649 23.7172 524.485 22.6405C524.23 21.3414 525.163 18.9749 523.666 18.2232C524.849 18.8469 525.63 17.6709 526.703 17.7378C527.739 17.8608 528.494 19.0078 528.991 19.8221C528.144 18.4527 527.113 16.6386 529.207 15.7694C530.189 15.3724 530.933 14.2523 531.878 13.6697C531.619 13.8202 533.665 16.3893 533.701 16.8165C533.79 18.0052 533.101 19.4037 532.894 20.5573C533.507 19.754 534.79 17.701 536.196 17.9887Z" fill="#A95A1D"/>
<path d="M597.638 45.4099C595.829 43.9612 595.437 41.7971 595.666 40.6554C595.457 40.8307 595.295 41.2039 595.192 41.6467C595.145 41.4489 595.097 41.2511 595.039 41.1815L595.028 41.3096C594.902 42.0086 594.406 43.2561 593.606 44.2836C593.026 45.0075 592.13 44.9292 591.35 44.9903C592.514 44.9628 592.446 42.0524 592.641 41.295C592.939 40.0947 593.795 38.4268 594.467 37.3882C591.677 41.9853 586.081 43.2397 581.119 42.4194C578.381 41.9869 575.747 41.1116 573.425 39.6181C571.103 38.1247 570.343 37.2193 568.926 34.9659C566.666 31.2834 566.323 26.3483 568.149 22.4415C569.189 20.1443 570.975 18.1702 573.264 17.0792C573.601 16.915 573.869 16.8093 574.264 16.7147C578.451 15.3374 583.427 16.7398 585.316 20.9707C586.819 24.458 584.922 31.392 580.016 29.9312C578.815 29.6328 577.671 28.6939 578.179 27.3183C577.741 28.6355 580.95 27.3665 581.159 27.1911C584.736 24.6634 581.95 20.3542 578.697 19.1668C576.89 18.4282 575.213 18.411 573.447 19.4187C574.667 18.7506 577.915 18.5177 579.482 20.5261C579.354 20.5149 579.284 20.5734 579.145 20.6903L579.273 20.7015C579.343 20.643 579.471 20.6542 579.529 20.7239C579.646 20.8632 579.752 21.1306 579.869 21.2698C579.932 22.7598 577.682 21.9181 575.922 21.3772C572.859 20.9809 571.1 24.119 570.562 26.5891C569.713 30.3876 572.138 34.407 574.916 36.5858C577.636 38.6948 581.215 39.8461 584.518 38.9726C585.309 38.7835 586.181 38.4078 586.797 38.0097C586.994 37.9624 587.889 37.3305 587.9 37.2024C588.418 35.6987 585.064 38.633 584.797 38.7388C583.866 39.0448 582.632 39.1308 581.688 38.8548C580.686 38.5091 580.683 37.799 579.948 37.3476C580.8 37.9382 581.639 37.9469 582.171 37.0252C582.843 35.9866 583.4 35.5189 584.063 35.3186C584.004 35.2489 584.004 35.2489 583.876 35.2378C583.946 35.1793 584.085 35.0624 584.155 35.0039C583.514 34.948 582.665 35.0675 581.721 34.7915C580.974 34.4682 580.287 34.2146 579.785 34.0418C581.779 34.8611 584.315 30.9518 588.395 32.2759C591.536 31.7756 594.439 29.5763 595.967 26.8698C596.951 25.213 598.291 22.4256 597.167 20.5204C596.218 18.824 594.956 20.7146 594.913 21.9372C594.633 25.1399 591.355 26.4673 590.024 25.4476L590.094 25.3891C590.152 25.4588 590.222 25.4003 590.28 25.47C590.28 25.47 590.28 25.47 590.408 25.4811C591.714 26.0469 593.116 24.0393 592.585 21.9922C591.926 19.9339 591.046 18.1791 592.145 15.9515C593.104 13.8407 592.364 11.969 590.543 10.6484C589.574 9.9184 586.088 8.45245 584.962 9.51597C587.074 7.50586 590.076 7.12241 592.85 7.88077C596.696 8.92631 600.109 12.7094 601.007 16.4666C601.727 19.3047 601.146 22.9974 603.273 25.2483C603.623 25.6662 605.968 26.9034 606.013 26.391C605.865 27.3462 604.831 28.0951 603.817 27.8775C602.804 27.66 602.205 26.3815 601.888 25.5793C602.217 26.2534 602.395 27.1725 602.608 28.4175C602.892 29.6039 603.515 31.3364 601.989 31.0741C599.589 30.4774 598.902 27.255 599.142 25.9851C599.212 25.9266 599.281 25.8682 599.421 25.7512C599.351 25.8097 599.223 25.7985 599.153 25.857C596.747 26.8087 598.811 31.2486 601.88 33.0654C604.761 34.8013 602.565 39.2566 604.361 40.1233C603.336 40.0338 601.997 39.8524 600.933 38.7269C600.22 38.0193 599.764 37.3341 599.48 36.1476C599.13 35.7298 599.359 34.588 597.718 34.8966C597.35 36.1553 597.781 36.3866 598.04 37.1191C599.852 39.2781 600.172 40.7904 599.656 43.0043C599.546 44.9955 600.877 46.0152 601.938 46.4305L601.868 46.489C600.749 46.0041 598.863 46.1622 597.638 45.4099Z" fill="#A95A1D"/>
<path d="M673.132 8.43403C673.115 8.38418 673.215 8.35058 673.215 8.35058C673.248 8.45028 673.265 8.50012 673.299 8.59982C673.397 8.06718 673.811 7.64992 673.909 7.11729C674.024 6.6345 674.851 5.46727 673.668 4.92233C672.439 5.22591 672.925 6.50513 672.894 7.07081C672.912 7.287 672.962 7.43653 673.029 7.63591C673.013 7.75241 673.03 7.80226 673.014 7.91876L673.03 7.96862C673.03 7.96862 673.047 8.01846 672.997 8.03526C672.071 4.79466 669.669 2.77337 668.035 1.54794C668.085 1.53114 668.118 1.4645 668.118 1.4645C668.517 1.33008 667.863 -0.114923 666.951 0.803056C666.553 1.10382 666.705 1.88513 667.171 1.9501C667.538 2.04866 667.786 1.7983 667.836 1.61516C667.885 1.59835 667.935 1.58155 667.935 1.58155L668.085 1.69748C673.49 6.20379 674.294 12.7052 670.655 18.5395C669.464 20.4399 667.89 22.1919 665.965 23.3961C663.94 24.6339 661.947 25.4723 659.936 26.0946C660.036 26.061 660.136 26.0274 660.218 25.9439C662.079 25.2057 663.919 23.4196 664.027 21.107C663.977 16.017 657.351 14.4758 654.816 17.1625C654.004 18.0469 653.225 18.8646 653.396 20.1948C653.549 21.3088 654.867 22.2525 655.946 21.6667C654.581 21.5715 653.296 20.0621 654.406 18.9105C655.185 18.0928 656.864 17.9707 657.88 18.3499C659.396 18.8937 660.067 20.5549 659.457 22.0374C658.401 24.6692 655.609 25.4438 653.399 25.967C653.449 25.9502 653.532 25.8667 653.565 25.8001C654.296 25.4982 656.005 24.4777 655.086 23.0669C654.985 22.9341 654.852 22.868 654.785 22.835C654.202 22.5874 653.69 23.5373 653.691 23.87C653.083 25.8516 652.037 26.3708 650.075 26.8099C648.314 27.1819 646.384 27.2217 644.818 26.362C645.768 26.8744 646.652 27.6865 647.569 28.2656C648.852 29.1096 650.136 29.9536 651.404 30.9142C652.921 32.1233 654.72 32.6829 656.25 32.7775C657.548 32.8396 659.332 34.0146 658.319 34.6335C658.369 34.6167 658.369 34.6167 658.419 34.5999L658.436 34.6498C659.716 34.4957 659.309 32.3014 658.456 30.9236C657.403 29.4467 655.47 28.3221 653.306 27.8304C652.49 27.7167 651.675 27.603 650.943 27.5722C654.352 27.4775 658.127 27.1487 661.964 25.6885C661.482 25.9064 661.001 26.1243 660.569 26.3253C659.689 26.6776 657.431 27.8829 656.497 27.254C657.998 28.247 659.829 28.7398 661.263 29.8661C662.397 30.7606 663.552 32.7029 662.858 34.1025C662.329 35.1689 660.85 35.3902 660.515 34.7259C660.737 36.5383 665.576 36.0728 665.547 32.3634C665.221 29.5866 663.037 28.2133 661.522 27.8358C662.67 27.9484 663.984 27.8941 665.314 27.5569C668.472 26.8808 672.076 25.3882 672.648 27.4156C672.665 27.2991 672.631 27.1994 672.614 27.1496C672.631 27.1994 672.648 27.2493 672.665 27.2991C672.648 27.2493 672.631 27.1994 672.664 27.1328C672.63 27.0331 672.58 26.8836 672.53 26.734C671.859 25.0728 668.675 23.2039 665.286 24.3465C664.671 24.4983 664.123 24.6831 663.542 24.9346C663.874 24.7671 664.206 24.5997 664.538 24.4322C665.136 24.2306 665.783 23.8458 666.464 23.3944C666.414 23.4112 666.414 23.4112 666.431 23.461L666.563 23.3608C666.879 23.1434 667.211 22.976 667.576 22.7419C667.808 22.608 668.041 22.4741 668.273 22.3403C669.851 21.5864 672.643 21.1444 674.242 21.6048C675.957 22.0814 676.845 24.0579 676.084 25.2582C675.637 25.9084 675.006 26.1767 674.407 26.212C674.124 26.1963 673.825 26.1308 673.459 26.0322C673.142 25.9169 672.909 25.718 672.692 25.5691C672.458 25.2039 672.29 24.8718 672.239 24.3895C672.083 22.6102 674.76 22.3183 675.147 23.6312C675.448 24.1957 674.902 24.8796 674.386 24.9978C673.921 25.0991 673.57 24.7177 673.553 24.3352L673.569 24.385C673.608 25.8155 676.182 24.7255 675.146 23.2985C674.343 22.0702 671.651 22.8112 672.04 24.7894C672.226 25.5041 672.644 26.0849 673.178 26.5156C675.362 28.2216 679.702 27.7577 680.938 24.5098C681.613 22.395 680.059 20.2544 678.326 19.5616C676.594 18.7024 674.631 18.8089 673.069 19.2799C670.477 19.9873 668.853 21.5898 667.492 22.659C667.393 22.6926 667.31 22.776 667.21 22.8096C668.802 21.4402 670.161 19.872 671.186 18.1385C671.219 18.0719 671.319 18.0383 671.352 17.9716L671.401 17.9548C671.368 18.0215 671.335 18.0881 671.253 18.1716L671.335 18.0881C671.368 18.0214 671.418 18.0047 671.451 17.938C671.534 17.8546 671.634 17.821 671.717 17.7375C671.899 17.6204 672.065 17.4535 672.297 17.3197L672.215 17.4031L672.397 17.2861L672.447 17.2693L672.281 17.4362C672.314 17.3695 672.397 17.2861 672.43 17.2194C673.526 16.5171 675.053 15.78 676.715 15.2753C679.141 14.5685 682.102 14.625 682.522 16.0375C682.539 16.0874 682.556 16.1372 682.573 16.1871C682.556 16.1372 682.556 16.1372 682.589 16.0705C682.623 16.1702 682.656 16.27 682.64 16.3865C682.672 16.1535 682.622 16.0039 682.572 15.8544C682.521 15.7048 682.537 15.5883 682.437 15.4556C682.268 14.7908 681.95 14.01 681.1 13.464C679.982 12.6194 678.285 12.359 676.606 12.8138C673.582 13.7223 672.311 16.3715 671.55 17.7381C671.468 17.8215 671.385 17.905 671.302 17.9884C671.998 17.2542 672.494 16.4207 672.79 15.4882C673.449 13.6562 674.368 9.96022 673.132 8.43403ZM670.761 25.1098L670.828 25.1429C670.778 25.1597 670.778 25.1597 670.761 25.1098Z" fill="#A95A1D"/>
<path d="M632.804 35.7279C631.97 35.4772 630.969 35.3833 630.407 34.6875C630.281 34.5867 630.653 34.0151 630.213 33.5817C628.892 32.2813 625.795 31.9647 624.129 32.4987C626.265 32.4637 628.147 31.1918 629.741 29.8144C631.864 28.0318 633.293 25.6142 634.531 23.1263C635.909 20.2542 636.029 17.2484 636.721 14.6152C637.473 12.1132 638.65 9.49408 641.335 8.40731C640.714 8.61575 640.12 6.81879 638.868 7.55897C638.046 8.02041 637.912 9.27847 637.029 9.60871C637.193 8.41625 635.848 7.92412 635.391 9.17278C635.044 9.97163 635.36 11.3398 635.564 12.1224C635.056 10.6838 633.683 11.1616 632.942 12.1432C632.333 13.0638 632.679 14.4976 632.681 15.5331C632.646 15.6292 632.299 18.6607 631.863 18.0656C631.772 17.8688 631.807 17.7727 631.781 17.5455C631.193 16.6224 630.151 15.7507 629.801 17.7468C629.072 19.4405 630.593 21.685 629.739 24.3136C628.67 27.68 625.15 30.7487 621.503 30.4484C623.698 29.5092 625.402 27.682 625.826 25.3323C626.256 22.8208 625.579 20.5038 625.338 18.7818C625.193 19.3277 624.82 19.8992 624.487 20.2131C624.014 20.9112 623.707 21.4524 623.465 21.9631C623.451 22.448 623.275 22.9283 622.943 23.2422L622.907 23.3382C622.978 23.1461 623.078 23.0196 623.053 22.7924C622.931 22.53 622.819 21.9443 622.868 21.3633C622.421 20.056 621.397 18.5377 620.076 17.2373C618.72 16.033 617.213 15.5362 615.889 15.433C619.472 15.7637 617.538 21.0464 617.835 23.0613C618.029 24.1671 618.687 24.8981 618.23 26.1467C618.406 25.6665 617.148 23.3001 616.734 23.0939C615.206 22.2082 615.403 24.3495 615.602 25.2937C616.016 27.7326 615.322 31.5629 612.233 33.1557C607.788 35.7768 602.833 35.9239 599.986 34.7733C602.394 36.5259 605.965 38.3771 610.613 38.7712C614.453 39.1417 619.322 38.6362 621.876 39.843C623.143 39.6534 623.85 42.0361 624.661 43.0951C625.926 44.1026 627.329 43.6905 627.681 42.73C627.686 42.5683 627.625 42.4371 627.564 42.3059L627.533 42.2403C628.602 43.3392 628.138 43.714 631.043 43.9603C632.101 45.3825 632.029 46.7717 631.743 47.7018C632.352 46.7811 633.259 45.6426 633.978 44.2722C635.101 42.3957 633.946 40.9384 633.258 40.1418C633.419 40.1465 633.611 40.2168 633.834 40.3527C636.153 40.7114 634.767 37.2088 634.013 36.4426C633.764 36.0794 633.284 35.9037 632.804 35.7279Z" fill="#A95A1D"/>
<path d="M637.735 17.9887C637.329 18.0974 634.611 19.1752 634.442 18.3192C634.705 19.6776 634.934 21.7048 636.102 22.6234C637.104 23.4108 638.937 23.6463 640.157 23.3202C638.808 23.8127 636.92 23.6139 636.518 25.4138C636.299 26.5273 638.103 29.3643 636.625 30.0232C637.05 29.8217 637.994 29.9211 638.493 29.8316C641.545 29.2578 641.923 25.8596 641.99 23.3142C641.974 24.3733 642.181 25.5269 642.259 26.6053C642.336 27.6836 642.322 28.9844 643.471 29.5126C644.527 30.0216 645.803 29.6587 646.841 30.2605C645.803 29.6587 647.942 27.1088 648.125 26.4225C648.783 23.8067 645.268 24.2844 644.374 22.4571C644.876 23.0924 646.581 23.7359 647.414 23.9088C648.432 24.1202 649.282 23.7172 649.446 22.6405C649.701 21.3414 648.768 18.9749 650.265 18.2232C649.083 18.8469 648.302 17.6709 647.228 17.7378C646.192 17.8608 645.437 19.0078 644.94 19.8221C645.787 18.4527 646.818 16.6386 644.724 15.7694C643.742 15.3724 642.998 14.2523 642.053 13.6697C642.312 13.8202 640.266 16.3893 640.23 16.8165C640.141 18.0052 640.83 19.4037 641.037 20.5573C640.424 19.754 639.141 17.701 637.735 17.9887Z" fill="#A95A1D"/>
<path d="M453.26 35.8252C453.055 31.1609 455.253 26.724 459.374 24.3925C462.07 22.9235 465.452 22.3174 468.008 24.212C465.797 23.6181 463.379 26.0537 463.67 28.2042C463.802 29.0573 464.695 30.7376 465.628 30.3842C465.703 30.3485 465.778 30.3128 465.852 30.2772C465.852 30.2772 465.852 30.2772 465.927 30.2415C466.002 30.2058 466.151 30.1345 466.265 29.9885C463.993 32.5377 460.052 31.3954 460.124 27.6977C460.192 26.1084 461.496 23.8381 463.241 23.647C460.606 23.8964 457.013 25.7934 457.507 28.9462C457.535 29.3905 458.531 31.4795 459.051 31.4147C457.641 31.5378 456.21 30.8467 456.018 29.2898C455.248 32.6792 459.905 33.2053 460.741 35.9203C460.809 36.2544 460.802 36.6241 460.46 37.0619C460.641 37.2501 460.823 37.4382 460.965 37.7367C461.794 38.898 462.706 39.6538 463.329 39.9977C462.912 40.4712 461.897 41.2301 460.487 41.3532C459.262 41.4795 458.386 40.7982 458.066 40.1268C458.13 40.6457 458.308 41.0188 458.45 41.3172C458.45 41.3172 458.45 41.3172 458.525 41.2815C458.561 41.3561 458.596 41.4308 458.742 41.5443C458.632 41.5054 458.521 41.4664 458.411 41.4275C458.375 41.3529 456.891 41.5116 456.595 41.4694C454.27 41.0215 453.359 38.3422 453.26 35.8252Z" fill="#A95A1D"/>
<path d="M715.138 34.8247C715.343 30.1605 713.145 25.7235 709.024 23.392C706.328 21.923 702.946 21.3169 700.39 23.2115C702.601 22.6177 705.019 25.0532 704.728 27.2037C704.596 28.0568 703.703 29.7371 702.77 29.3837C702.695 29.348 702.62 29.3123 702.546 29.2767C702.546 29.2767 702.546 29.2767 702.471 29.241C702.396 29.2053 702.246 29.134 702.132 28.988C704.405 31.5372 708.346 30.3949 708.274 26.6973C708.206 25.1079 706.902 22.8376 705.157 22.6465C707.792 22.8959 711.385 24.7929 710.891 27.9457C710.863 28.39 709.867 30.479 709.347 30.4142C710.757 30.5373 712.188 29.8462 712.38 28.2893C713.15 31.6787 708.493 32.2048 707.657 34.9198C707.589 35.2539 707.596 35.6236 707.938 36.0615C707.757 36.2496 707.575 36.4378 707.433 36.7362C706.604 37.8975 705.692 38.6534 705.069 38.9973C705.486 39.4708 706.501 40.2296 707.911 40.3527C709.136 40.479 710.012 39.7977 710.332 39.1263C710.268 39.6453 710.09 40.0183 709.948 40.3167C709.948 40.3167 709.948 40.3167 709.873 40.281L709.798 40.2454L709.873 40.281C709.837 40.3556 709.802 40.4303 709.656 40.5438C709.766 40.5049 709.877 40.4659 709.987 40.427C710.022 40.3524 711.507 40.5111 711.803 40.4689C714.128 40.021 715.039 37.3417 715.138 34.8247Z" fill="#A95A1D"/>
<path d="M0 24H465" stroke="#A95A1D" stroke-width="2"/>
<path d="M1170 24L705.001 23.053" stroke="#A95A1D" stroke-width="2"/>
</svg>
