<svg width="181" height="194" viewBox="0 0 181 194" fill="none" xmlns="http://www.w3.org/2000/svg">
<path d="M139.695 28.907C137.606 30.5798 137.154 33.0785 137.418 34.3968C137.177 34.1943 136.99 33.7635 136.871 33.2522C136.816 33.4806 136.762 33.7089 136.694 33.7893L136.681 33.6414C136.536 32.8343 135.963 31.3939 135.04 30.2076C134.37 29.3717 133.335 29.4621 132.435 29.3916C133.779 29.4233 133.7 32.7837 133.925 33.6583C134.27 35.0441 135.258 36.97 136.033 38.1692C132.812 32.8612 126.351 31.4129 120.621 32.36C117.46 32.8594 114.419 33.87 111.738 35.5944C109.056 37.3188 108.179 38.3642 106.543 40.9662C103.934 45.218 103.538 50.9163 105.646 55.4272C106.846 58.0797 108.909 60.359 111.552 61.6188C111.942 61.8084 112.25 61.9305 112.707 62.0397C117.541 63.6299 123.287 62.0107 125.468 57.1255C127.203 53.0989 125.013 45.0927 119.347 46.7794C117.962 47.1239 116.64 48.2079 117.226 49.7963C116.721 48.2754 120.426 49.7407 120.667 49.9432C124.797 52.8617 121.581 57.8373 117.825 59.2083C115.739 60.0611 113.803 60.081 111.763 58.9175C113.172 59.6889 116.922 59.9579 118.731 57.6388C118.584 57.6517 118.503 57.5842 118.342 57.4492L118.49 57.4363C118.571 57.5038 118.718 57.4909 118.786 57.4105C118.921 57.2496 119.043 56.9409 119.178 56.7801C119.251 55.0597 116.653 56.0316 114.621 56.6561C111.084 57.1138 109.054 53.4903 108.432 50.6382C107.452 46.2524 110.251 41.6114 113.46 39.0958C116.6 36.6606 120.732 35.3312 124.546 36.3398C125.459 36.5582 126.466 36.992 127.177 37.4516C127.405 37.5062 128.438 38.2358 128.451 38.3838C129.05 40.12 125.177 36.7319 124.868 36.6098C123.794 36.2564 122.369 36.1572 121.279 36.4758C120.122 36.8749 120.119 37.6949 119.27 38.2161C120.254 37.5341 121.222 37.5242 121.836 38.5883C122.612 39.7875 123.255 40.3276 124.021 40.5589C123.953 40.6393 123.953 40.6393 123.805 40.6522C123.886 40.7197 124.046 40.8547 124.127 40.9222C123.387 40.9868 122.406 40.8488 121.316 41.1675C120.455 41.5407 119.661 41.8336 119.082 42.0331C121.384 41.087 124.312 45.6009 129.022 44.0721C132.65 44.6498 136.002 47.1891 137.765 50.3142C138.901 52.2272 140.449 55.4456 139.151 57.6455C138.055 59.6041 136.598 57.4212 136.549 56.0095C136.226 52.3116 132.44 50.7789 130.904 51.9563L130.984 52.0238C131.052 51.9434 131.132 52.0109 131.2 51.9305C131.2 51.9305 131.2 51.9305 131.348 51.9176C132.855 51.2643 134.474 53.5823 133.861 55.946C133.1 58.3226 132.084 60.3488 133.352 62.9209C134.46 65.358 133.605 67.5192 131.503 69.0441C130.384 69.8869 126.359 71.5795 125.059 70.3516C127.497 72.6725 130.964 73.1153 134.167 72.2396C138.607 71.0324 142.548 66.6644 143.584 62.3261C144.416 59.0491 143.745 54.7854 146.201 52.1864C146.606 51.7039 149.313 50.2754 149.365 50.867C149.194 49.7641 148 48.8994 146.83 49.1506C145.66 49.4018 144.969 50.878 144.603 51.8042C144.982 51.0259 145.187 49.9647 145.434 48.5272C145.762 47.1572 146.481 45.1569 144.719 45.4597C141.947 46.1487 141.155 49.8694 141.432 51.3357C141.512 51.4032 141.593 51.4707 141.753 51.6057C141.673 51.5382 141.525 51.5511 141.445 51.4836C138.666 50.3847 141.05 45.2582 144.593 43.1605C147.92 41.1562 145.384 36.0119 147.458 35.0112C146.274 35.1145 144.728 35.324 143.5 36.6235C142.677 37.4405 142.15 38.2317 141.822 39.6016C141.417 40.0841 141.682 41.4025 139.787 41.0461C139.362 39.5928 139.861 39.3257 140.159 38.4799C142.252 35.9871 142.621 34.2409 142.025 31.6846C141.898 29.3855 143.435 28.2081 144.66 27.7286L144.58 27.6611C143.287 28.221 141.11 28.0384 139.695 28.907Z" fill="#A95A1D"/>
<path d="M146.794 171.007C150.166 166.744 151.115 161.058 148.814 156.05C147.271 152.826 144.491 149.949 140.787 149.996C143.279 150.942 143.902 154.889 142.162 156.72C141.456 157.436 139.468 158.413 138.828 157.444C138.782 157.359 138.736 157.274 138.689 157.19C138.689 157.19 138.689 157.19 138.643 157.105C138.597 157.02 138.504 156.851 138.496 156.636C138.904 160.59 143.403 162.198 145.854 158.658C146.873 157.112 147.189 154.08 145.672 152.711C147.989 154.742 150.089 158.981 147.474 161.62C147.144 162.02 144.78 163.313 144.334 162.898C145.581 163.975 147.403 164.298 148.645 162.959C147.062 166.683 142.308 164.006 139.668 165.999C139.377 166.268 139.132 166.622 139.156 167.269C138.857 167.322 138.557 167.376 138.22 167.561C136.645 168.092 135.27 168.185 134.448 168.085C134.518 168.816 134.959 170.224 136.207 171.3C137.277 172.254 138.567 172.208 139.327 171.792C138.913 172.239 138.491 172.47 138.153 172.654C138.153 172.654 138.153 172.654 138.107 172.57L138.061 172.485L138.107 172.57C138.023 172.616 137.938 172.662 137.723 172.67C137.854 172.708 137.985 172.747 138.115 172.785C138.2 172.739 139.493 173.901 139.801 174.062C142.301 175.224 144.986 173.315 146.794 171.007Z" fill="#A95A1D"/>
<path d="M152.842 71.5629C152.982 68.0618 151.318 64.7388 148.219 63.0018C146.191 61.9077 143.65 61.4634 141.738 62.8932C143.396 62.4406 145.218 64.261 145.006 65.8758C144.91 66.5164 144.245 67.7803 143.544 67.5179C143.487 67.4914 143.431 67.4648 143.375 67.4383C143.375 67.4383 143.375 67.4383 143.319 67.4118C143.262 67.3852 143.15 67.3322 143.064 67.223C144.777 69.129 147.732 68.2595 147.666 65.4847C147.61 64.2921 146.624 62.5923 145.314 62.4543C147.293 62.6333 149.995 64.0458 149.634 66.4134C149.614 66.747 148.873 68.3179 148.483 68.2709C149.541 68.3588 150.613 67.8358 150.752 66.6667C151.341 69.208 147.847 69.6173 147.228 71.6575C147.179 71.9084 147.185 72.1859 147.443 72.5134C147.308 72.6552 147.172 72.7969 147.066 73.0214C146.447 73.8955 145.766 74.4656 145.299 74.7256C145.613 75.0797 146.377 75.646 147.436 75.734C148.356 75.825 149.011 75.311 149.249 74.8061C149.203 75.1958 149.07 75.4763 148.964 75.7007C148.964 75.7007 148.964 75.7007 148.908 75.6741L148.852 75.6476L148.908 75.6741C148.882 75.7302 148.855 75.7864 148.746 75.872C148.829 75.8425 148.912 75.8129 148.994 75.7833C149.021 75.7272 150.136 75.8417 150.357 75.8091C152.101 75.4657 152.776 73.4521 152.842 71.5629Z" fill="#A95A1D"/>
<path d="M124.238 144.991C124.182 144.985 124.168 145.097 124.168 145.097C124.28 145.111 124.337 145.118 124.449 145.132C123.908 145.35 123.557 145.878 123.016 146.097C122.531 146.322 121.477 147.448 120.646 146.317C120.701 144.953 122.157 145.191 122.747 145.035C122.979 145.007 123.148 145.028 123.373 145.056C123.493 145.013 123.549 145.02 123.668 144.978L123.725 144.985C123.725 144.985 123.781 144.992 123.788 144.936C120.166 144.658 117.512 142.558 115.865 141.098C115.858 141.154 115.795 141.203 115.795 141.203C115.739 141.653 114.072 141.275 114.844 140.114C115.076 139.629 115.934 139.621 116.103 140.099C116.287 140.464 116.076 140.781 115.893 140.873C115.886 140.929 115.879 140.985 115.879 140.985L116.034 141.118C121.96 145.852 128.999 145.296 134.374 140.193C136.123 138.524 137.633 136.483 138.488 134.19C139.358 131.785 139.813 129.499 140.035 127.241C140.021 127.354 140.007 127.466 139.937 127.572C139.56 129.696 138.071 132.025 135.653 132.639C130.267 133.685 127.208 127.023 129.497 123.765C130.255 122.716 130.95 121.717 132.392 121.61C133.601 121.531 134.883 122.718 134.497 123.984C134.102 122.564 132.23 121.533 131.254 122.954C130.559 123.953 130.793 125.753 131.413 126.744C132.315 128.227 134.214 128.576 135.647 127.612C138.198 125.928 138.413 122.813 138.488 120.366C138.481 120.422 138.411 120.528 138.347 120.577C138.187 121.414 137.478 123.44 135.79 122.774C135.628 122.696 135.529 122.57 135.48 122.507C135.093 121.945 135.985 121.198 136.337 121.128C138.298 120.057 138.62 118.84 138.66 116.674C138.672 114.734 138.297 112.688 137.051 111.219C137.797 112.112 138.846 112.87 139.655 113.713C140.824 114.886 141.992 116.059 143.281 117.19C144.885 118.531 145.865 120.309 146.295 121.905C146.642 123.262 148.268 124.891 148.702 123.689C148.695 123.745 148.695 123.745 148.689 123.801L148.745 123.808C148.859 125.193 146.454 125.238 144.815 124.635C143.027 123.842 141.422 122.044 140.435 119.865C140.139 119.028 139.843 118.192 139.652 117.426C140.289 121.046 140.757 125.103 140.045 129.47C140.171 128.915 140.297 128.359 140.416 127.86C140.597 126.854 141.382 124.209 140.516 123.359C141.889 124.729 142.805 126.557 144.305 127.828C145.494 128.832 147.795 129.631 149.123 128.596C150.134 127.808 150.048 126.197 149.275 125.987C151.236 125.831 151.79 131.04 147.867 131.811C144.865 132.067 142.943 130.058 142.217 128.54C142.584 129.728 142.81 131.127 142.741 132.604C142.71 136.084 141.913 140.213 144.177 140.379C144.058 140.422 143.945 140.408 143.889 140.401C143.945 140.408 144.001 140.415 144.058 140.422C144.001 140.415 143.945 140.408 143.882 140.457C143.769 140.443 143.601 140.422 143.432 140.401C141.533 140.052 138.871 137.094 139.345 133.268C139.373 132.586 139.449 131.967 139.589 131.299C139.484 131.686 139.379 132.073 139.274 132.46C139.191 133.135 138.924 133.902 138.594 134.718C138.601 134.661 138.601 134.661 138.658 134.668L138.58 134.83C138.419 135.21 138.314 135.597 138.146 136.033C138.055 136.307 137.963 136.582 137.872 136.856C137.417 138.685 137.554 141.729 138.386 143.317C139.259 145.025 141.538 145.536 142.641 144.473C143.231 143.861 143.378 143.137 143.286 142.497C143.209 142.202 143.075 141.899 142.891 141.534C142.701 141.225 142.441 141.021 142.237 140.824C141.8 140.656 141.414 140.551 140.893 140.601C138.981 140.821 139.251 143.71 140.721 143.835C141.382 144.032 141.986 143.307 142 142.737C142.006 142.224 141.528 141.936 141.12 142L141.176 142.007C142.695 141.738 142.1 144.692 140.369 143.906C138.899 143.324 139.1 140.321 141.273 140.305C142.067 140.346 142.771 140.662 143.341 141.133C145.615 143.071 146.063 147.754 142.9 149.761C140.813 150.93 138.217 149.752 137.111 148.072C135.829 146.428 135.517 144.333 135.677 142.582C135.864 139.692 137.205 137.63 138.04 135.963C138.054 135.85 138.124 135.745 138.138 135.632C137.036 137.609 135.674 139.383 134.065 140.84C134.002 140.889 133.988 141.002 133.925 141.051L133.918 141.107C133.981 141.058 134.044 141.009 134.114 140.903L134.044 141.009C133.981 141.058 133.974 141.114 133.911 141.163C133.84 141.269 133.826 141.381 133.756 141.487C133.672 141.705 133.532 141.916 133.44 142.19L133.511 142.085L133.427 142.303L133.42 142.359L133.56 142.148C133.497 142.197 133.427 142.303 133.363 142.352C132.858 143.661 132.41 145.433 132.236 147.297C132.014 150.011 132.714 153.125 134.296 153.264C134.352 153.271 134.409 153.278 134.465 153.285C134.409 153.278 134.409 153.278 134.345 153.328C134.458 153.342 134.57 153.356 134.69 153.313C134.451 153.398 134.282 153.377 134.113 153.356C133.945 153.335 133.825 153.377 133.663 153.3C132.925 153.266 132.031 153.098 131.271 152.318C130.138 151.321 129.496 149.585 129.614 147.714C129.919 144.325 132.442 142.409 133.721 141.311C133.791 141.206 133.861 141.1 133.932 140.995C133.307 141.888 132.534 142.592 131.613 143.106C129.821 144.198 126.117 145.967 124.238 144.991ZM141.334 138.885L141.384 138.948C141.391 138.891 141.391 138.891 141.334 138.885Z" fill="#A95A1D"/>
<path d="M142.015 96.9877C141.57 96.1612 141.255 95.1251 140.398 94.6818C140.265 94.57 139.742 95.087 139.189 94.7156C137.53 93.6016 136.526 90.3993 136.73 88.5248C137.155 90.7887 136.219 93.0505 135.109 95.0308C133.685 97.6578 131.441 99.6899 129.081 101.534C126.346 103.61 123.198 104.387 120.567 105.686C118.088 107.021 115.577 108.83 115.009 111.9C115.095 111.2 113.069 110.96 113.58 109.479C113.89 108.51 115.189 108.097 115.347 107.093C114.124 107.524 113.313 106.211 114.533 105.458C115.302 104.919 116.815 104.957 117.685 105.003C116.056 104.777 116.264 103.224 117.14 102.23C117.981 101.388 119.57 101.444 120.664 101.222C120.758 101.164 123.884 100.143 123.161 99.8111C122.934 99.7571 122.84 99.815 122.594 99.837C121.492 99.4157 120.347 98.5032 122.379 97.7028C124.01 96.5671 126.708 97.6872 129.3 96.2181C132.623 94.3618 135.103 89.982 133.998 86.1949C133.481 88.7162 131.919 90.9101 129.53 91.8661C126.971 92.8621 124.378 92.6483 122.507 92.7659C123.052 92.4944 123.575 91.9774 123.835 91.5582C124.47 90.9075 124.975 90.4663 125.462 90.101C125.971 89.9813 126.44 89.6919 126.7 89.2726L126.793 89.2148C126.606 89.3306 126.494 89.4643 126.248 89.4862C125.945 89.4143 125.302 89.4223 124.699 89.5999C123.222 89.4101 121.398 88.6574 119.739 87.5433C118.175 86.3713 117.324 84.8879 116.929 83.5124C118.053 87.2237 123.213 84.04 125.405 83.9184C126.614 83.8845 127.529 84.4216 128.748 83.6691C128.279 83.9585 125.509 83.1418 125.201 82.7485C123.936 81.327 126.24 81.0716 127.28 81.0777C129.944 80.9881 133.839 79.4272 134.854 75.8219C136.661 70.5617 135.745 65.2973 133.915 62.5402C136.286 64.7044 139.013 68.0745 140.433 72.8977C141.654 76.8726 142.173 82.123 143.999 84.5587C144.072 85.9381 146.741 86.1699 148.035 86.7969C149.372 87.9149 149.24 89.486 148.302 90.0649C148.132 90.1048 147.98 90.0689 147.829 90.0329L147.753 90.015C149.144 90.9055 149.439 90.3345 150.327 93.349C152.058 94.1597 153.509 93.7825 154.429 93.2795C153.589 94.1219 152.583 95.3256 151.291 96.3816C149.552 97.9725 147.764 97.068 146.774 96.513C146.814 96.6827 146.929 96.8703 147.121 97.076C148.001 99.4477 144.003 98.7407 143.031 98.1098C142.594 97.9261 142.304 97.4569 142.015 96.9877Z" fill="#A95A1D"/>
<path d="M124.349 106.027C124.376 105.574 124.927 102.472 123.987 102.478C125.478 102.463 127.668 102.266 128.891 103.301C129.938 104.189 130.583 106.073 130.503 107.433C130.731 105.901 130.113 103.95 131.927 103.137C133.055 102.666 136.441 103.957 136.817 102.254C136.696 102.746 137.005 103.722 137.019 104.268C137.072 107.615 133.566 108.749 130.892 109.369C132.007 109.124 133.27 109.093 134.426 108.942C135.581 108.79 136.951 108.494 137.757 109.593C138.523 110.598 138.416 112.024 139.275 112.99C138.416 112.024 136.185 114.834 135.5 115.175C132.88 116.436 132.625 112.621 130.502 112.072C131.282 112.464 132.33 114.125 132.692 114.968C133.136 115.998 132.894 116.982 131.792 117.387C130.475 117.938 127.775 117.464 127.305 119.207C127.708 117.824 126.297 117.253 126.136 116.105C126.042 114.985 127.09 113.94 127.842 113.239C126.579 114.429 124.886 115.91 123.516 113.886C122.885 112.935 121.541 112.392 120.722 111.519C120.937 111.761 123.207 109.045 123.651 108.915C124.887 108.564 126.512 108.989 127.775 108.959C126.794 108.485 124.349 107.573 124.349 106.027Z" fill="#A95A1D"/>
<path d="M45.5286 43.4041C45.4212 43.8451 45.0366 46.9722 44.1395 46.6899C45.5605 47.1429 47.5959 47.9745 49.0687 47.3436C50.3311 46.803 51.5011 45.191 51.8232 43.8681C51.5917 45.399 50.428 47.0824 51.9229 48.3924C52.8632 49.1746 56.4788 48.9344 56.338 50.6734C56.367 50.1672 56.9489 49.3255 57.1223 48.8069C58.1566 45.6237 55.1378 43.51 52.7643 42.1319C53.7582 42.6937 54.9564 43.0939 56.0164 43.578C57.0763 44.0621 58.2992 44.748 59.3926 43.9341C60.4199 43.1979 60.7359 41.8035 61.8416 41.1325C60.7359 41.8035 59.4293 38.4626 58.8747 37.9349C56.7406 35.9606 55.3762 39.5321 53.1858 39.4334C54.0459 39.2871 55.5355 38.0074 56.1297 37.3085C56.8559 36.4543 56.914 35.442 55.9799 34.7312C54.8829 33.8185 52.1626 33.4778 52.225 31.6736C52.204 33.1144 50.688 33.2453 50.1968 34.2951C49.7778 35.3385 50.4724 36.6456 50.9857 37.5367C50.1282 36.0278 48.9449 34.1153 47.0408 35.6468C46.1578 36.3706 44.714 36.4952 43.6743 37.0886C43.9507 36.9208 45.3233 40.1841 45.709 40.4386C46.7874 41.1369 48.4663 41.2078 49.6645 41.6081C48.5878 41.773 45.9828 41.9259 45.5286 43.4041Z" fill="#A95A1D"/>
<path d="M105.687 37.1901C106.016 37.3167 108.39 37.9233 108.083 38.5873C108.574 37.5362 109.417 36.0488 109.076 34.8503C108.784 33.823 107.657 32.7609 106.669 32.3812C107.827 32.7115 109.01 33.776 110.168 32.7529C110.865 32.1053 111.038 29.2928 112.365 29.5738C111.978 29.5012 111.386 28.969 111.003 28.7838C108.651 27.6705 106.721 29.7893 105.423 31.4833C105.955 30.7724 106.382 29.8879 106.861 29.1184C107.339 28.3488 107.989 27.4737 107.47 26.5497C107.004 25.6843 105.96 25.3024 105.552 24.383C105.96 25.3024 103.254 25.9789 102.792 26.3544C101.057 27.8046 103.677 29.211 103.383 30.8906C103.356 30.2127 102.517 28.937 102.036 28.4094C101.45 27.7646 100.675 27.6194 100.034 28.2694C99.2211 29.025 98.6885 31.0893 97.3032 30.8623C98.4124 31.0214 98.3631 32.2036 99.124 32.6866C99.8873 33.1132 100.964 32.707 101.702 32.3995C100.454 32.9113 98.8613 33.6343 99.8537 35.2548C100.324 36.0075 100.277 37.1335 100.632 37.9942C100.53 37.7643 103.183 37.0292 103.417 36.757C104.063 35.9945 104.284 34.7066 104.712 33.8222C104.732 34.6689 104.592 36.6933 105.687 37.1901Z" fill="#A95A1D"/>
<path d="M65.1991 30.5105C66.0598 30.885 67.1186 31.1127 67.6317 31.929C67.7543 32.053 67.2828 32.6173 67.699 33.1373C68.9475 34.6972 72.2223 35.4302 74.0733 35.0707C71.7819 34.8361 69.6061 35.9581 67.7253 37.2295C65.2262 38.8673 63.3884 41.2729 61.7472 43.7782C59.9066 46.6768 59.3956 49.8786 58.3202 52.6089C57.1963 55.1911 55.6037 57.8445 52.5914 58.666C53.2824 58.5219 53.6904 60.5209 55.1238 59.8879C56.0628 59.4987 56.3661 58.1692 57.3536 57.9282C57.0261 59.1835 58.4027 59.8814 59.0509 58.6031C59.5238 57.7923 59.3597 56.2877 59.2413 55.4242C59.6021 57.0285 61.1324 56.6919 62.05 55.7356C62.8193 54.8277 62.6309 53.2491 62.7604 52.1405C62.8103 52.0421 63.5678 48.8417 63.9584 49.5341C64.0311 49.7564 63.9812 49.8547 63.9798 50.1012C64.4916 51.164 65.4964 52.2296 66.1245 50.1377C67.1203 48.4177 65.7789 45.8219 67.0267 43.1172C68.5993 39.6501 72.7569 36.8136 76.6231 37.5992C74.1537 38.3251 72.0977 40.0639 71.3443 42.5248C70.5653 45.1582 70.9947 47.7242 71.0335 49.5979C71.2586 49.0322 71.7301 48.4678 72.1262 48.1742C72.7217 47.4873 73.1192 46.9472 73.4426 46.4313C73.5195 45.914 73.7688 45.4224 74.1649 45.1288L74.2147 45.0304C74.115 45.2271 73.991 45.3497 73.9896 45.5962C74.0866 45.8925 74.1323 46.5337 74.0056 47.1493C74.3179 48.6054 75.2203 50.3606 76.4688 51.9205C77.7673 53.3821 79.3164 54.1055 80.7201 54.3845C76.928 53.5747 79.6702 48.1666 79.6085 45.9724C79.5413 44.7641 78.9298 43.8979 79.578 42.6197C79.3287 43.1113 80.3737 45.804 80.7913 46.0775C82.3134 47.2199 82.3757 44.903 82.2829 43.8672C82.1499 41.2041 83.3804 37.1929 86.8885 35.8811C91.9796 33.6414 97.302 34.1146 100.202 35.7083C97.8477 33.526 94.262 31.0903 89.337 30.077C85.2742 29.1918 79.9988 29.1133 77.4193 27.4967C76.0385 27.5384 75.5849 24.8982 74.8522 23.6616C73.6265 22.4223 72.0719 22.6849 71.5733 23.6681C71.5477 23.8405 71.5961 23.9887 71.6446 24.1369L71.6688 24.211C70.6654 22.8989 71.2097 22.5568 68.1316 21.9235C67.1794 20.2666 67.4342 18.789 67.8587 17.83C67.0894 18.7378 65.9738 19.8409 65.0293 21.2161C63.5889 23.0816 64.6394 24.7884 65.2752 25.7286C65.1027 25.703 64.906 25.6033 64.6851 25.4295C62.2483 24.7505 63.2864 28.6757 63.9962 29.5917C64.2157 30.012 64.7074 30.2612 65.1991 30.5105Z" fill="#A95A1D"/>
<path d="M11.502 51.779C11.5101 51.8351 11.3979 51.8513 11.3979 51.8513C11.3816 51.7391 11.3735 51.683 11.3572 51.5708C11.1499 52.1164 10.6294 52.4782 10.4221 53.0239C10.2065 53.5134 9.10227 54.59 10.2503 55.3976C11.6131 55.3148 11.3457 53.864 11.4888 53.2704C11.5124 53.0378 11.4881 52.8695 11.4556 52.6451C11.4954 52.5247 11.4873 52.4686 11.5271 52.3482L11.519 52.2921C11.519 52.2921 11.5109 52.236 11.567 52.2279C11.9188 55.8434 14.0726 58.4532 15.5669 60.0701C15.5108 60.0782 15.4628 60.1424 15.4628 60.1424C15.014 60.2074 15.4261 61.8664 16.5711 61.0704C17.0516 60.8289 17.0419 59.971 16.5606 59.8116C16.1914 59.6359 15.8792 59.853 15.7914 60.0376C15.7353 60.0457 15.6791 60.0538 15.6791 60.0538L15.5426 59.9017C10.6887 54.0738 11.0998 47.0249 16.0919 41.5469C17.724 39.7637 19.7333 38.2123 22.0084 37.3099C24.3958 36.3912 26.6718 35.8898 28.9241 35.6208C28.8119 35.6371 28.6997 35.6533 28.5956 35.7257C26.4798 36.1467 24.1819 37.6826 23.6174 40.1132C22.6819 45.5193 29.4062 48.441 32.6165 46.0855C33.6492 45.3058 34.6339 44.5903 34.7113 43.1468C34.765 41.936 33.552 40.6794 32.2941 41.0908C33.7219 41.4569 34.7918 43.307 33.3907 44.312C32.406 45.0275 30.6017 44.8305 29.5984 44.2311C28.0974 43.36 27.7089 41.4684 28.6441 40.0153C30.2745 37.4303 33.3847 37.1517 35.8298 37.0267C35.7737 37.0349 35.6696 37.1072 35.6216 37.1715C34.7881 37.3495 32.7773 38.099 33.478 39.7735C33.5585 39.9337 33.687 40.0297 33.7512 40.0777C34.3212 40.4535 35.049 39.546 35.1124 39.1931C36.1428 37.2106 37.3527 36.8634 39.5172 36.7791C41.4573 36.7273 43.5104 37.0601 45.004 38.276C44.0967 37.5481 43.3169 36.5152 42.4575 35.7231C41.2607 34.5788 40.0639 33.4345 38.9069 32.1698C37.5329 30.5929 35.7352 29.6501 34.1309 29.2523C32.7673 28.9342 31.1046 27.3418 32.2983 26.8825C32.2422 26.8906 32.2422 26.8906 32.1861 26.8987L32.178 26.8426C30.7908 26.7571 30.7955 29.1625 31.4321 30.789C32.2613 32.5594 34.0924 34.1275 36.2909 35.0694C37.1333 35.3484 37.9757 35.6275 38.7457 35.8024C35.1127 35.2401 31.0472 34.855 26.6953 35.6572C27.2483 35.5198 27.8012 35.3824 28.298 35.2532C29.2998 35.0508 31.9278 34.2118 32.7954 35.0601C31.3977 33.7157 29.552 32.8373 28.2503 31.3644C27.2218 30.1957 26.3755 27.9122 27.3831 26.5632C28.1507 25.5354 29.7623 25.5884 29.9883 26.3577C30.1047 24.393 24.8846 23.946 24.1948 27.8843C24.0002 30.8915 26.0483 32.7718 27.581 33.4665C26.3857 33.124 24.9823 32.9262 23.5073 33.0253C20.028 33.1282 15.9168 34.0101 15.704 31.7494C15.6641 31.8697 15.6804 31.9819 15.6885 32.038C15.6804 31.9819 15.6722 31.9258 15.6641 31.8697C15.6722 31.9258 15.6804 31.9819 15.6324 32.0462C15.6486 32.1584 15.673 32.3267 15.6974 32.4951C16.0859 34.3866 19.0975 36.9868 22.9127 36.4342C23.5941 36.3928 24.2112 36.3034 24.8764 36.1498C24.4918 36.2628 24.1071 36.3758 23.7225 36.4887C23.0493 36.5863 22.2882 36.8684 21.4791 37.2147C21.5352 37.2066 21.5352 37.2066 21.5271 37.1505L21.3669 37.231C20.9904 37.4001 20.6058 37.5131 20.1732 37.6903C19.9008 37.787 19.6284 37.8838 19.356 37.9805C17.537 38.4731 14.4903 38.3988 12.8853 37.6001C11.1599 36.7615 10.6023 34.4934 11.6423 33.3688C12.2425 32.7663 12.9637 32.6046 13.6052 32.6835C13.902 32.7551 14.2069 32.8828 14.5761 33.0585C14.8891 33.2423 15.0981 33.4985 15.2989 33.6986C15.4761 34.1312 15.5891 34.5159 15.55 35.0371C15.3694 36.9538 12.4747 36.7429 12.3195 35.2759C12.1098 34.6188 12.8221 34 13.3913 33.9748C13.9044 33.9578 14.2019 34.4303 14.1466 34.8394L14.1385 34.7833C14.376 33.2593 11.435 33.9145 12.2561 35.6288C12.8682 37.0869 15.8662 36.8246 15.8379 34.6517C15.7802 33.858 15.4502 33.161 14.968 32.6007C12.9834 30.3674 8.29255 30.0156 6.3506 33.2186C5.22428 35.3296 6.45597 37.9011 8.15774 38.9723C9.82779 40.2199 11.9288 40.4885 13.6762 40.2927C16.562 40.0466 18.5957 38.6635 20.2456 37.7944C20.3578 37.7781 20.4619 37.7058 20.5741 37.6895C18.6201 38.8319 16.875 40.2304 15.4512 41.8689C15.4032 41.9331 15.291 41.9493 15.243 42.0136L15.1869 42.0217C15.2349 41.9575 15.2828 41.8932 15.3869 41.8209L15.2828 41.8933C15.2349 41.9575 15.1788 41.9656 15.1308 42.0298C15.0267 42.1022 14.9145 42.1185 14.8104 42.1908C14.5941 42.2794 14.3859 42.4242 14.1135 42.5209L14.2176 42.4485L14.0013 42.5372L13.9452 42.5453L14.1534 42.4006C14.1054 42.4648 14.0013 42.5372 13.9533 42.6014C12.6556 43.1331 10.8927 43.6176 9.03311 43.8296C6.32379 44.1075 3.19579 43.472 3.02434 41.8928C3.01621 41.8366 3.00808 41.7805 2.99996 41.7244C3.00808 41.7805 3.00808 41.7805 2.9601 41.8448C2.94385 41.7326 2.92759 41.6203 2.96745 41.5C2.88774 41.7407 2.91214 41.909 2.93652 42.0773C2.9609 42.2457 2.92105 42.366 3.00154 42.5263C3.05108 43.2638 3.23721 44.1535 4.03238 44.8977C5.05276 46.0102 6.80173 46.6163 8.66946 46.4603C12.052 46.085 13.9151 43.5236 14.9869 42.2226C15.0909 42.1502 15.195 42.0778 15.2991 42.0055C14.4184 42.6486 13.7305 43.4357 13.2352 44.3668C12.1805 46.181 10.4882 49.9207 11.502 51.779ZM17.2568 34.5608L17.1926 34.5128C17.2487 34.5047 17.2487 34.5047 17.2568 34.5608Z" fill="#A95A1D"/>
</svg>
