<svg width="255" height="235" viewBox="0 0 255 235" fill="none" xmlns="http://www.w3.org/2000/svg">
<path d="M206.204 53.8912C204.021 56.6048 200.768 57.1859 199.054 56.838C199.316 57.1526 199.876 57.3968 200.541 57.5534C200.244 57.6237 199.947 57.694 199.842 57.7816L200.034 57.7989C201.084 57.99 202.957 58.74 204.497 59.9451C205.583 60.8183 205.462 62.1653 205.551 63.337C205.514 61.588 201.141 61.6805 200.004 61.3845C198.202 60.9319 195.699 59.6404 194.141 58.6278C201.038 62.835 202.903 71.246 201.653 78.6986C200.993 82.8097 199.669 86.7642 197.417 90.2475C195.166 93.7308 193.803 94.8693 190.412 96.9896C184.872 100.372 177.457 100.87 171.594 98.1135C168.146 96.5433 165.187 93.8532 163.556 90.4094C163.31 89.9024 163.153 89.5003 163.012 88.9058C160.957 82.6115 163.082 75.1404 169.445 72.317C174.689 70.072 185.099 72.9459 182.888 80.3121C182.435 82.1142 181.021 83.83 178.956 83.0628C180.933 83.7251 179.038 78.8998 178.775 78.5853C174.99 73.2025 168.507 77.3729 166.711 82.255C165.595 84.9673 165.564 87.4861 167.071 90.1429C166.072 88.3075 165.733 83.428 168.756 81.0807C168.739 81.2731 168.827 81.378 169.002 81.5876L169.019 81.3952C168.931 81.2903 168.949 81.098 169.053 81.0104C169.263 80.8352 169.665 80.6773 169.875 80.5022C172.114 80.4121 170.841 83.7893 170.022 86.4314C169.416 91.0322 174.124 93.6853 177.834 94.5031C183.537 95.7908 189.584 92.1631 192.867 87.9965C196.045 83.9174 197.787 78.5457 196.487 73.5798C196.205 72.3907 195.644 71.0796 195.048 70.1532C194.978 69.856 194.031 68.5103 193.839 68.493C191.582 67.7086 195.978 72.7583 196.136 73.1604C196.593 74.5591 196.718 76.413 196.3 77.8303C195.777 79.3351 194.71 79.3363 194.029 80.439C194.92 79.1612 194.935 77.9018 193.553 77.0989C191.995 76.0862 191.294 75.2474 190.995 74.2508C190.891 74.3384 190.891 74.3384 190.873 74.5308C190.786 74.426 190.611 74.2163 190.523 74.1114C190.437 75.0735 190.613 76.3502 190.195 77.7674C189.707 78.8874 189.324 79.9198 189.062 80.6722C190.3 77.6798 184.436 73.8562 186.439 67.732C185.699 63.0104 182.405 58.6415 178.344 56.3374C175.859 54.8536 171.676 52.8296 168.81 54.512C166.258 55.9317 169.094 57.8349 170.93 57.9027C175.741 58.3344 177.724 63.2646 176.187 65.2603L176.099 65.1554C176.204 65.0678 176.117 64.963 176.221 64.8755C176.221 64.8755 176.221 64.8754 176.239 64.683C177.093 62.723 174.082 60.6101 171.005 61.4008C167.91 62.3839 165.271 63.6988 161.928 62.0411C158.76 60.5931 155.946 61.6982 153.955 64.4291C152.855 65.8822 150.641 71.1145 152.235 72.8093C149.222 69.6295 148.657 65.1174 149.806 60.9533C151.39 55.1794 157.085 50.0655 162.733 48.7296C166.999 47.6577 172.545 48.5432 175.934 45.3559C176.563 44.8305 178.43 41.3126 177.66 41.2436C179.095 41.4693 180.216 43.0247 179.886 44.5468C179.555 46.0689 177.633 46.9631 176.426 47.4368C177.44 46.9459 178.822 46.6819 180.693 46.3649C182.476 45.9431 185.081 45.013 184.682 47.3047C183.777 50.9089 178.933 51.929 177.026 51.5639C176.939 51.4591 176.851 51.3543 176.676 51.1446C176.764 51.2494 176.746 51.4418 176.834 51.5467C178.255 55.1656 184.933 52.0794 187.673 47.4762C190.291 43.1529 196.977 46.4684 198.285 43.7732C198.147 45.3126 197.87 47.3243 196.175 48.918C195.11 49.9862 194.078 50.6695 192.295 51.0914C191.666 51.6169 189.951 51.269 190.409 53.7347C192.299 54.2922 192.648 53.6447 193.749 53.2586C196.999 50.5437 199.272 50.0688 202.597 50.852C205.588 51.0234 207.124 49.0277 207.752 47.4353L207.839 47.5401C207.107 49.2201 207.338 52.0534 206.204 53.8912Z" fill="#BD8051"/>
<path d="M27.3623 47.975C31.8245 44.4623 37.7677 43.4851 42.995 45.9009C46.3593 47.5216 49.3586 50.4334 49.3009 54.3029C48.3185 51.6973 44.1962 51.0366 42.2785 52.8506C41.5291 53.5859 40.503 55.6607 41.5143 56.3316C41.6026 56.3802 41.6909 56.4287 41.7792 56.4773C41.7792 56.4773 41.7791 56.4773 41.8675 56.5259C41.9558 56.5744 42.1324 56.6715 42.3575 56.6806C38.2266 56.2447 36.558 51.5405 40.2622 48.9878C41.8806 47.9272 45.0487 47.6041 46.4757 49.1921C44.3594 46.7661 39.9355 44.5626 37.1714 47.288C36.7526 47.6314 35.396 50.0982 35.8289 50.5658C34.7067 49.2602 34.3737 47.3559 35.7757 46.0615C31.8808 47.7061 34.6661 52.6802 32.5772 55.4328C32.2951 55.7366 31.9247 55.9918 31.2495 55.9647C31.1925 56.2776 31.1354 56.5905 30.9416 56.9429C30.3829 58.5863 30.2829 60.023 30.3853 60.8825C29.6218 60.8068 28.1518 60.3426 27.0296 59.037C26.0355 57.9166 26.0871 56.568 26.5231 55.7751C26.0558 56.2065 25.8136 56.6471 25.6198 56.9995C25.6198 56.9995 25.6198 56.9994 25.7081 57.048L25.7964 57.0966L25.7081 57.048C25.6596 57.1361 25.6112 57.2242 25.6026 57.449C25.5627 57.3123 25.5229 57.1757 25.483 57.039C25.5315 56.9509 24.3209 55.5967 24.1529 55.2748C22.9455 52.6601 24.946 49.859 27.3623 47.975Z" fill="#BD8051"/>
<path d="M150.743 36.6554C155.298 36.4845 159.617 38.6591 161.868 42.6971C163.285 45.3388 163.855 48.6458 161.989 51.1296C162.583 48.9744 160.22 46.5976 158.118 46.8685C157.285 46.9915 155.638 47.8531 155.977 48.7663C156.012 48.8396 156.046 48.9128 156.08 48.9861C156.08 48.9861 156.08 48.986 156.115 49.0593C156.149 49.1325 156.218 49.279 156.36 49.3913C153.885 47.1562 155.025 43.3149 158.635 43.4089C160.187 43.4854 162.395 44.773 162.571 46.4779C162.344 43.9034 160.515 40.3827 157.433 40.8452C156.999 40.8701 154.953 41.8298 155.013 42.3378C154.901 40.9602 155.585 39.5671 157.107 39.3896C153.802 38.6162 153.259 43.1604 150.602 43.9596C150.276 44.0234 149.915 44.014 149.489 43.6773C149.305 43.8534 149.12 44.0295 148.827 44.1666C147.688 44.969 146.944 45.8541 146.605 46.4603C146.145 46.0503 145.41 45.0544 145.299 43.6768C145.183 42.4799 145.854 41.6291 146.512 41.3206C146.005 41.3798 145.639 41.5512 145.347 41.6883C145.347 41.6883 145.347 41.6883 145.381 41.7615L145.416 41.8348L145.381 41.7615C145.308 41.7958 145.235 41.8301 145.123 41.9719C145.162 41.8643 145.201 41.7568 145.24 41.6493C145.313 41.615 145.167 40.1641 145.21 39.8758C145.662 37.6084 148.284 36.7361 150.743 36.6554Z" fill="#BD8051"/>
<path d="M55.1154 73.6512C55.1244 73.7245 54.9779 73.7423 54.9779 73.7423C54.9601 73.5958 54.9512 73.5226 54.9334 73.3761C54.6474 74.0797 53.9597 74.5349 53.6737 75.2384C53.3788 75.8688 51.9103 77.2364 53.3797 78.3211C55.1549 78.2539 54.8501 76.3588 55.054 75.5908C55.0916 75.289 55.0649 75.0693 55.0293 74.7764C55.0847 74.6211 55.0758 74.5478 55.1313 74.3925L55.1223 74.3192C55.1223 74.3192 55.1134 74.246 55.1867 74.2371C55.5368 78.9506 58.2607 82.4095 60.1565 84.557C60.0833 84.5659 60.019 84.6481 60.019 84.6481C59.4332 84.7193 59.9199 86.8895 61.4329 85.8881C62.0652 85.5883 62.0781 84.472 61.4567 84.2503C60.9818 84.0108 60.5691 84.2839 60.4494 84.5214C60.3762 84.5303 60.3029 84.5392 60.3029 84.5392L60.1298 84.3373C53.9893 76.6121 54.7337 67.4553 61.3903 60.478C63.5663 58.207 66.2261 56.2487 69.2125 55.1425C72.3452 54.0185 75.3207 53.4339 78.2585 53.1511C78.112 53.1689 77.9656 53.1867 77.8281 53.2777C75.0634 53.7624 72.0285 55.692 71.222 58.8369C69.8443 65.8413 78.5042 69.8418 82.7503 66.8732C84.1168 65.8897 85.419 64.9882 85.5625 63.1129C85.6685 61.5395 84.1279 59.8689 82.4794 60.3666C84.3258 60.8852 85.6625 63.3237 83.8101 64.5893C82.5079 65.4908 80.1668 65.1808 78.8795 64.3713C76.953 63.1935 76.5038 60.7214 77.7635 58.8591C79.9613 55.545 84.0153 55.2751 87.1995 55.1853C87.1262 55.1942 86.9887 55.2852 86.9244 55.3674C85.8349 55.5741 83.1969 56.4893 84.0587 58.6883C84.1586 58.8991 84.3229 59.0278 84.405 59.0921C85.1352 59.5978 86.1089 58.4391 86.202 57.9819C87.6012 55.4337 89.1854 55.0182 92.0035 54.9728C94.5286 54.9631 97.1894 55.4571 99.0961 57.0831C97.9374 56.1093 96.9539 54.7426 95.8596 53.6866C94.3368 52.1625 92.814 50.6384 91.3467 48.959C89.6062 46.8668 87.2958 45.5871 85.2209 45.0219C83.4566 44.5675 81.3411 42.4467 82.9075 41.8847C82.8343 41.8936 82.8343 41.8936 82.7611 41.9025L82.7522 41.8293C80.9503 41.6768 80.8849 44.8059 81.6645 46.9405C82.6906 49.2681 85.0257 51.3623 87.8576 52.6529C88.945 53.0409 90.0324 53.4289 91.0289 53.6794C86.3199 52.8399 81.0429 52.2181 75.3583 53.1321C76.0816 52.9698 76.8049 52.8076 77.455 52.6542C78.7641 52.4208 82.2076 51.4077 83.3109 52.5369C81.5328 50.7466 79.1581 49.5489 77.5087 47.5944C76.2056 46.0436 75.1726 43.048 76.5233 41.3232C77.5525 40.0091 79.6472 40.126 79.9183 41.1334C80.1282 38.5812 73.3512 37.8445 72.3367 42.9469C71.9942 46.8528 74.6024 49.3596 76.5755 50.3088C75.0309 49.8277 73.2112 49.5288 71.2896 49.6138C66.7607 49.6441 61.3867 50.669 61.1771 47.7219C61.1216 47.8773 61.1395 48.0238 61.1484 48.097C61.1395 48.0238 61.1305 47.9505 61.1216 47.8773C61.1305 47.9505 61.1394 48.0238 61.0751 48.1059C61.0929 48.2524 61.1196 48.4721 61.1463 48.6917C61.5955 51.1638 65.4356 54.6356 70.4147 54.0303C71.3023 53.9967 72.1078 53.8988 72.9775 53.7187C72.4739 53.8543 71.9702 53.9898 71.4666 54.1254C70.5879 54.2322 69.5895 54.5765 68.5267 55.003C68.6 54.9941 68.6 54.9941 68.5911 54.9208L68.3803 55.0208C67.8855 55.2295 67.3819 55.3651 66.8139 55.5828C66.4567 55.7005 66.0995 55.8182 65.7423 55.936C63.3615 56.5226 59.4006 56.3354 57.3366 55.2486C55.1172 54.1065 54.4593 51.1396 55.8456 49.7077C56.6441 48.9418 57.5872 48.7529 58.4193 48.8747C58.8032 48.9766 59.196 49.1518 59.671 49.3913C60.0727 49.6397 60.3369 49.9792 60.5922 50.2454C60.8098 50.8134 60.9454 51.3172 60.8791 51.9941C60.5871 54.4819 56.828 54.1214 56.6697 52.2085C56.4165 51.3475 57.3615 50.5638 58.1026 50.548C58.7705 50.5412 59.1435 51.1646 59.0594 51.6951L59.0505 51.6219C59.4048 49.6466 55.5596 50.4113 56.5767 52.6657C57.3297 54.5807 61.2372 54.3286 61.265 51.5013C61.2136 50.4671 60.8049 49.5507 60.1945 48.8075C57.6793 45.8434 51.588 45.2463 48.9666 49.355C47.4388 52.0674 48.9644 55.449 51.1462 56.893C53.2815 58.5655 56.0065 58.9774 58.2853 58.7747C62.0464 58.5404 64.733 56.8018 66.9049 55.7203C67.0514 55.7025 67.1889 55.6115 67.3354 55.5937C64.7597 57.0215 62.4482 58.7888 60.5473 60.8778C60.4829 60.9599 60.3365 60.9777 60.2722 61.0598L60.1989 61.0687C60.2633 60.9866 60.3276 60.9044 60.4651 60.8134L60.3276 60.9045C60.2633 60.9866 60.19 60.9955 60.1257 61.0776C59.9882 61.1686 59.8417 61.1864 59.7042 61.2775C59.4202 61.3863 59.1451 61.5684 58.7879 61.6861L58.9254 61.5951L58.6415 61.7039L58.5682 61.7128L58.8433 61.5308C58.779 61.6129 58.6414 61.7039 58.5771 61.7861C56.8732 62.4391 54.5657 63.0169 52.1404 63.2374C48.6079 63.5182 44.558 62.5986 44.3819 60.5392C44.373 60.466 44.3641 60.3928 44.3552 60.3195C44.3641 60.3928 44.3641 60.3928 44.2998 60.4749C44.282 60.3284 44.2642 60.1819 44.3196 60.0266C44.2088 60.3373 44.2355 60.557 44.2622 60.7767C44.2889 60.9964 44.2335 61.1518 44.3334 61.3626C44.3759 62.3235 44.5916 63.4863 45.6038 64.4779C46.898 65.9555 49.155 66.7958 51.5892 66.6485C56.0003 66.2609 58.4999 62.9845 59.9328 61.324C60.0703 61.233 60.2078 61.1419 60.3454 61.0509C59.1807 61.8613 58.2624 62.8647 57.5905 64.0611C56.1646 66.3896 53.852 71.2039 55.1154 73.6512ZM63.1134 51.4252L63.0312 51.3609C63.1045 51.352 63.1045 51.3519 63.1134 51.4252Z" fill="#BD8051"/>
<path d="M117.628 50.6668C118.703 51.2484 120.05 51.6617 120.624 52.7772C120.769 52.9515 120.095 53.6305 120.576 54.351C122.021 56.5125 126.184 57.828 128.624 57.5685C125.679 57.0088 122.734 58.2204 120.154 59.6588C116.731 61.5031 114.08 64.4165 111.673 67.4811C108.964 71.0333 107.944 75.1269 106.246 78.5463C104.501 81.7682 102.14 85.0303 98.1433 85.7591C99.0553 85.6495 99.3611 88.2863 101.29 87.6257C102.551 87.2259 103.092 85.5363 104.399 85.334C103.834 86.9248 105.541 87.9831 106.524 86.3983C107.228 85.3999 107.183 83.4311 107.126 82.2986C107.414 84.4186 109.436 84.1529 110.732 83.0156C111.83 81.9246 111.762 79.8571 112.054 78.4344C112.129 78.3125 113.469 74.2482 113.898 75.1894C113.967 75.4856 113.891 75.6075 113.862 75.9269C114.407 77.3618 115.591 78.8552 116.638 76.2135C118.121 74.0949 116.672 70.5802 118.591 67.2133C121.017 62.8942 126.723 59.681 131.647 61.1308C128.365 61.7962 125.506 63.8209 124.254 66.9271C122.951 70.2538 123.221 73.6282 123.062 76.0615C123.417 75.3532 124.091 74.6742 124.638 74.3378C125.486 73.5137 126.062 72.8579 126.539 72.2252C126.696 71.5633 127.074 70.9538 127.62 70.6173L127.696 70.4954C127.545 70.7392 127.37 70.8843 127.341 71.2037C127.434 71.5987 127.421 72.4349 127.188 73.2188C127.431 75.1413 128.405 77.5173 129.849 79.6788C131.369 81.7183 133.297 82.829 135.085 83.3472C130.26 81.8743 134.418 75.1697 134.583 72.3183C134.631 70.7445 133.934 69.5534 134.917 67.9687C134.539 68.5782 135.594 72.1854 136.104 72.5865C137.95 74.2372 138.289 71.2408 138.285 69.8876C138.409 66.4206 140.452 61.3579 145.146 60.0489C151.996 57.7135 158.843 58.9207 162.424 61.3102C159.616 58.2186 155.239 54.6611 148.968 52.7981C143.8 51.1972 136.97 50.5069 133.806 48.1234C132.012 48.0234 131.718 44.5502 130.906 42.8654C129.456 41.1221 127.411 41.289 126.655 42.5081C126.603 42.7287 126.649 42.9262 126.695 43.1237L126.718 43.2224C125.564 41.4096 126.308 41.0269 122.388 39.8625C121.339 37.6084 121.834 35.7213 122.491 34.5254C121.392 35.6164 119.823 36.9219 118.445 38.5993C116.37 40.8569 117.541 43.1866 118.261 44.4764C118.04 44.424 117.796 44.2728 117.529 44.0229C114.446 42.8707 115.354 48.075 116.172 49.3416C116.409 49.9109 117.019 50.2889 117.628 50.6668Z" fill="#BD8051"/>
<path d="M105.814 73.6241C106.403 73.5905 110.441 72.883 110.43 74.1067C110.455 72.1664 110.718 69.3176 109.374 67.7238C108.222 66.3577 105.772 65.513 104.004 65.6138C105.997 65.3212 108.533 66.1311 109.597 63.7737C110.214 62.3067 108.543 57.8977 110.761 57.4134C110.12 57.5692 108.852 57.1643 108.141 57.1452C103.787 57.0652 102.301 61.6243 101.486 65.101C101.808 63.6509 101.852 62.0078 102.052 60.5049C102.253 59.0021 102.642 57.2199 101.215 56.1678C99.9088 55.1684 98.0535 55.304 96.7989 54.1823C98.0535 55.304 94.391 58.1974 93.9445 59.0878C92.2967 62.4928 97.2593 62.8363 97.9673 65.5999C97.4591 64.5848 95.3013 63.2164 94.2061 62.7419C92.8675 62.162 91.5855 62.4737 91.0551 63.9059C90.3353 65.6173 90.943 69.1324 88.6738 69.739C90.4751 69.2187 91.213 71.0558 92.7058 71.269C94.1635 71.3947 95.5268 70.0344 96.4411 69.0576C94.8884 70.6972 92.9569 72.8953 95.5852 74.6844C96.821 75.5088 97.5237 77.2585 98.6566 78.3274C98.343 78.047 101.884 75.1009 102.054 74.5244C102.514 72.9173 101.966 70.8009 102.01 69.1578C102.623 70.4353 103.802 73.6195 105.814 73.6241Z" fill="#BD8051"/>
<path d="M170.124 212.273C170.051 212.285 170.074 212.43 170.074 212.43C170.22 212.407 170.293 212.396 170.439 212.373C169.84 212.841 169.591 213.627 168.993 214.095C168.468 214.551 167.555 216.339 166.109 215.223C165.687 213.498 167.593 213.271 168.276 212.864C168.556 212.745 168.774 212.711 169.066 212.665C169.2 212.569 169.273 212.557 169.407 212.461L169.48 212.45C169.48 212.45 169.553 212.438 169.541 212.365C164.912 213.321 160.839 211.65 158.254 210.416C158.265 210.489 158.204 210.573 158.204 210.573C158.296 211.156 156.076 211.283 156.624 209.554C156.739 208.863 157.809 208.545 158.192 209.082C158.553 209.473 158.403 209.944 158.208 210.125C158.219 210.198 158.231 210.27 158.231 210.27L158.473 210.382C167.586 214.168 176.187 210.941 181.072 202.626C182.659 199.911 183.813 196.816 184.057 193.641C184.279 190.32 184.025 187.298 183.492 184.396C183.515 184.541 183.538 184.687 183.488 184.844C183.78 187.636 182.757 191.084 179.954 192.722C173.596 195.967 167.374 188.736 169.064 183.839C169.635 182.255 170.145 180.756 171.909 180.103C173.393 179.57 175.422 180.593 175.395 182.315C174.39 180.682 171.679 180.065 170.97 182.194C170.46 183.693 171.4 185.859 172.531 186.875C174.192 188.405 176.693 188.159 178.138 186.437C180.723 183.415 179.87 179.442 179.084 176.355C179.095 176.428 179.045 176.585 178.984 176.67C179.084 177.774 178.927 180.562 176.576 180.336C176.346 180.298 176.177 180.175 176.093 180.114C175.406 179.55 176.254 178.296 176.668 178.081C178.735 176.037 178.7 174.4 177.971 171.677C177.287 169.246 176.083 166.823 173.996 165.435C175.25 166.282 176.834 166.853 178.15 167.616C180.033 168.663 181.917 169.709 183.934 170.66C186.423 171.76 188.287 173.63 189.4 175.471C190.321 177.043 192.94 178.496 193.051 176.835C193.063 176.908 193.063 176.908 193.074 176.981L193.147 176.969C193.788 178.66 190.797 179.581 188.53 179.417C186.01 179.069 183.356 177.397 181.338 175.028C180.667 174.089 179.996 173.149 179.482 172.26C181.58 176.558 183.625 181.462 184.305 187.179C184.263 186.439 184.221 185.699 184.19 185.032C184.055 183.709 184.085 180.12 182.697 179.369C184.906 180.587 186.709 182.543 189.041 183.593C190.89 184.421 194.054 184.593 195.342 182.821C196.324 181.471 195.637 179.488 194.594 179.504C196.99 178.602 199.557 184.917 194.929 187.292C191.266 188.693 188.14 186.872 186.687 185.235C187.573 186.588 188.359 188.256 188.805 190.127C190.017 194.491 190.505 199.94 193.397 199.333C193.263 199.429 193.117 199.452 193.044 199.464C193.117 199.452 193.19 199.441 193.263 199.429C193.19 199.441 193.117 199.452 193.056 199.537C192.91 199.56 192.691 199.594 192.473 199.629C189.972 199.875 185.581 197.134 184.797 192.18C184.586 191.317 184.459 190.516 184.394 189.63C184.402 190.151 184.41 190.673 184.417 191.194C184.556 192.069 184.498 193.123 184.38 194.262C184.368 194.189 184.368 194.189 184.441 194.178L184.403 194.408C184.338 194.941 184.345 195.462 184.292 196.068C184.277 196.444 184.261 196.82 184.246 197.196C184.335 199.646 185.601 203.404 187.212 205.091C188.919 206.912 191.953 206.731 192.949 205.005C193.467 204.027 193.39 203.068 193.045 202.302C192.841 201.96 192.565 201.631 192.205 201.239C191.856 200.921 191.457 200.76 191.131 200.588C190.525 200.534 190.003 200.542 189.37 200.791C187.058 201.755 188.436 205.271 190.319 204.898C191.216 204.906 191.71 203.782 191.522 203.065C191.346 202.421 190.644 202.233 190.157 202.459L190.23 202.448C192.032 201.565 192.351 205.473 189.904 205.113C187.856 204.914 187.027 201.087 189.739 200.285C190.747 200.051 191.74 200.193 192.623 200.576C196.163 202.182 198.407 207.876 195.175 211.524C192.986 213.737 189.315 213.197 187.328 211.495C185.134 209.9 183.991 207.392 183.561 205.145C182.755 201.464 183.69 198.404 184.135 196.018C184.112 195.873 184.161 195.716 184.138 195.57C183.472 198.438 182.406 201.146 180.918 203.547C180.857 203.631 180.88 203.777 180.819 203.861L180.83 203.934C180.892 203.85 180.953 203.765 181.003 203.608L180.953 203.765C180.892 203.85 180.903 203.923 180.842 204.007C180.792 204.164 180.815 204.31 180.765 204.467C180.738 204.77 180.639 205.085 180.623 205.46L180.673 205.303L180.646 205.606L180.658 205.679L180.758 205.364C180.696 205.449 180.646 205.606 180.585 205.69C180.424 207.508 180.502 209.886 180.955 212.278C181.653 215.752 183.648 219.395 185.677 219C185.75 218.988 185.823 218.977 185.896 218.965C185.823 218.977 185.823 218.977 185.761 219.061C185.907 219.038 186.053 219.015 186.187 218.919C185.919 219.111 185.7 219.145 185.481 219.18C185.263 219.214 185.129 219.31 184.898 219.272C183.963 219.495 182.785 219.606 181.554 218.905C179.778 218.065 178.351 216.125 177.825 213.744C176.988 209.396 179.454 206.093 180.658 204.26C180.707 204.103 180.757 203.946 180.807 203.788C180.347 205.131 179.634 206.289 178.668 207.263C176.82 209.273 172.824 212.817 170.124 212.273ZM189.305 198.487L189.389 198.548C189.378 198.475 189.378 198.475 189.305 198.487Z" fill="#BD8051"/>
<path d="M193.04 140.891C192.556 139.77 192.263 138.392 191.202 137.722C191.041 137.562 190.306 138.174 189.63 137.631C187.604 136.001 186.661 131.738 187.134 129.331C187.432 132.313 185.966 135.141 184.306 137.584C182.167 140.831 179.032 143.215 175.767 145.342C171.99 147.728 167.822 148.383 164.267 149.774C160.904 151.229 157.446 153.293 156.368 157.21C156.558 156.311 153.958 155.774 154.786 153.911C155.295 152.691 157.026 152.3 157.343 151.016C155.708 151.438 154.805 149.645 156.47 148.805C157.526 148.193 159.483 148.411 160.607 148.567C158.52 148.093 158.963 146.103 160.21 144.912C161.393 143.914 163.447 144.164 164.89 143.999C165.018 143.934 169.184 142.958 168.285 142.448C167.996 142.352 167.868 142.417 167.547 142.418C166.166 141.749 164.782 140.438 167.506 139.628C169.747 138.337 173.12 140.09 176.643 138.475C181.159 136.439 184.862 131.038 183.852 126.006C182.9 129.216 180.631 131.886 177.427 132.859C173.998 133.865 170.661 133.298 168.223 133.242C168.96 132.951 169.696 132.339 170.079 131.825C170.974 131.052 171.678 130.536 172.351 130.117C173.024 130.019 173.664 129.696 174.048 129.181L174.176 129.117C173.919 129.246 173.76 129.407 173.439 129.408C173.054 129.281 172.219 129.219 171.418 129.382C169.524 128.971 167.243 127.792 165.218 126.163C163.32 124.469 162.383 122.451 162.025 120.624C163.067 125.56 170.112 122.009 172.966 122.096C174.538 122.187 175.663 122.985 177.329 122.146C176.688 122.469 173.188 121.101 172.833 120.557C171.352 118.573 174.366 118.499 175.714 118.623C179.178 118.804 184.401 117.215 186.119 112.654C189.048 106.037 188.449 99.1105 186.384 95.3322C189.216 98.4023 192.374 103.075 193.678 109.486C194.817 114.775 194.903 121.639 196.999 125C196.94 126.797 200.374 127.395 201.981 128.352C203.59 129.951 203.243 131.973 201.963 132.618C201.738 132.651 201.545 132.588 201.353 132.524L201.257 132.492C202.961 133.802 203.407 133.095 204.222 137.102C206.375 138.346 208.298 138.019 209.547 137.469C208.364 138.468 206.925 139.916 205.133 141.14C202.701 143.009 200.484 141.637 199.262 140.807C199.295 141.031 199.424 141.287 199.65 141.575C200.526 144.748 195.422 143.386 194.232 142.459C193.686 142.172 193.363 141.532 193.04 140.891Z" fill="#BD8051"/>
<path d="M170.72 149.992C170.806 149.407 171.866 145.447 170.646 145.351C172.581 145.497 175.442 145.486 176.911 146.965C178.171 148.232 178.796 150.747 178.54 152.5C179.007 150.54 178.424 147.942 180.866 147.091C182.381 146.605 186.626 148.658 187.304 146.491C187.092 147.116 187.384 148.415 187.34 149.125C187.036 153.469 182.364 154.548 178.829 155.053C180.302 154.86 181.942 154.961 183.457 154.894C184.972 154.827 186.781 154.595 187.704 156.11C188.584 157.499 188.286 159.335 189.292 160.684C188.286 159.335 185.081 162.729 184.155 163.095C180.618 164.436 180.713 159.463 178.022 158.514C178.989 159.11 180.162 161.38 180.538 162.513C180.998 163.897 180.574 165.147 179.101 165.549C177.333 166.115 173.885 165.2 173.081 167.407C173.758 165.659 171.993 164.762 171.912 163.256C171.915 161.793 173.39 160.555 174.444 159.73C172.674 161.132 170.314 162.863 168.763 160.087C168.051 158.783 166.37 157.929 165.405 156.707C165.657 157.044 168.903 153.776 169.492 153.657C171.134 153.34 173.194 154.073 174.834 154.174C173.616 153.451 170.548 151.996 170.72 149.992Z" fill="#BD8051"/>
<path d="M195.326 96.7227C195.162 96.2936 194.38 93.2032 193.516 93.6002C194.885 92.9656 196.822 91.873 198.381 92.3197C199.717 92.7026 201.095 94.1726 201.586 95.4598C201.16 93.9522 199.778 92.4098 201.113 90.9055C201.958 90.0012 205.618 89.7843 205.256 88.0565C205.349 88.5609 206.04 89.3322 206.28 89.8308C207.721 92.8952 204.959 95.3994 202.751 97.0833C203.677 96.3935 204.829 95.84 205.832 95.2198C206.835 94.5996 207.975 93.7562 209.176 94.4348C210.301 95.0437 210.794 96.4034 211.989 96.937C210.794 96.4034 209.906 99.9225 209.416 100.523C207.524 102.775 205.702 99.3624 203.516 99.7389C204.398 99.7767 206.055 100.873 206.74 101.499C207.577 102.264 207.764 103.273 206.916 104.105C205.93 105.16 203.243 105.847 203.534 107.65C203.33 106.206 201.792 106.267 201.166 105.275C200.613 104.281 201.145 102.881 201.547 101.921C200.878 103.545 199.932 105.614 197.827 104.318C196.849 103.704 195.383 103.761 194.265 103.297C194.563 103.431 195.528 99.9811 195.883 99.6768C196.877 98.8391 198.553 98.5553 199.705 98.0018C198.604 97.9726 195.969 98.1491 195.326 96.7227Z" fill="#BD8051"/>
</svg>
